%TF.GenerationSoftware,Altium Limited,Altium Designer,24.9.1 (31)*%
G04 Layer_Color=65535*
%FSLAX44Y44*%
%MOMM*%
%TF.SameCoordinates,85F17886-7C47-4E42-9478-76476F6C8A6A*%
%TF.FilePolarity,Positive*%
%TF.FileFunction,Legend,Top*%
%TF.Part,Single*%
G01*
G75*
%TA.AperFunction,NonConductor*%
%ADD24C,0.3810*%
%ADD25C,0.1270*%
%ADD26C,0.5000*%
%ADD27C,0.2000*%
%ADD28C,0.4000*%
%ADD29C,0.2540*%
%ADD30C,0.3000*%
%ADD31C,0.3048*%
%ADD32C,0.2032*%
G36*
X1313631Y462424D02*
X1313684Y462266D01*
X1313719Y462124D01*
X1313754Y461913D01*
X1313825Y461737D01*
X1313931Y461314D01*
X1313983Y461084D01*
X1314054Y460802D01*
X1314195Y460414D01*
X1314248Y460220D01*
X1314283Y460079D01*
X1314389Y459692D01*
X1314460Y459409D01*
X1314548Y459039D01*
X1314671Y458739D01*
X1314812Y458175D01*
X1314900Y457946D01*
X1314988Y457646D01*
X1315024Y457505D01*
X1315059Y457258D01*
X1315094Y457117D01*
Y453768D01*
Y453732D01*
X1315129Y445834D01*
X1315271Y445587D01*
X1315517Y445128D01*
X1315658Y444811D01*
X1315729Y444635D01*
X1315817Y444406D01*
X1316011Y444071D01*
X1316223Y443577D01*
X1316258Y443506D01*
X1316434Y443224D01*
X1316469Y443083D01*
X1316434Y443013D01*
X1316346Y442925D01*
X1316099Y442889D01*
X1310598Y442925D01*
X1310510Y443013D01*
X1310493Y443101D01*
X1310616Y443295D01*
X1310757Y443612D01*
X1310827Y443788D01*
X1310969Y444000D01*
X1311321Y444741D01*
X1311409Y444970D01*
X1311568Y445270D01*
X1311815Y445798D01*
X1311850Y445939D01*
X1311885Y457258D01*
X1312026Y457611D01*
X1312132Y458034D01*
X1312185Y458228D01*
X1312379Y458669D01*
X1312432Y459004D01*
X1312467Y459145D01*
X1312661Y459550D01*
X1312696Y459797D01*
X1312732Y459938D01*
X1312784Y460132D01*
X1312873Y460291D01*
X1312943Y460467D01*
X1312979Y460608D01*
X1313031Y460873D01*
X1313067Y461014D01*
X1313208Y461402D01*
X1313331Y461807D01*
X1313366Y461948D01*
X1313402Y462195D01*
X1313454Y462389D01*
X1313490Y462459D01*
X1313631Y462424D01*
D02*
G37*
G36*
X1316628Y442537D02*
X1316716Y442484D01*
X1316787Y442308D01*
X1316752Y441637D01*
X1316769Y440386D01*
X1316699Y440210D01*
X1316628Y440139D01*
X1316487Y440104D01*
X1315394Y440068D01*
X1315200Y439910D01*
X1315094Y439663D01*
X1315041Y439469D01*
X1314900Y439328D01*
X1314636Y439310D01*
X1312467Y439328D01*
X1312361Y439293D01*
X1312062Y439346D01*
X1312009Y439398D01*
X1311956Y439416D01*
X1311921Y439487D01*
X1311850Y439663D01*
X1311815Y439804D01*
X1311639Y440051D01*
X1311480Y440104D01*
X1310352Y440139D01*
X1310228Y440262D01*
X1310193Y440509D01*
X1310228Y442413D01*
X1310352Y442537D01*
X1310598Y442572D01*
X1315218D01*
X1316628Y442537D01*
D02*
G37*
G36*
X1317263Y464716D02*
X1317580Y464575D01*
X1317721Y464540D01*
X1319273Y464505D01*
X1319379Y464469D01*
X1320507Y464434D01*
X1320613Y464399D01*
X1320859Y464328D01*
X1321001Y464293D01*
X1321424Y464328D01*
X1321529Y464293D01*
X1321723Y464240D01*
X1321900Y464205D01*
X1322464Y464170D01*
X1322605Y464134D01*
X1322816Y464099D01*
X1323275Y464064D01*
X1323998Y463976D01*
X1324456Y463835D01*
X1324703Y463800D01*
X1325056Y463764D01*
X1325302Y463729D01*
X1325602Y463676D01*
X1325902Y463553D01*
X1326043Y463517D01*
X1326589Y463465D01*
X1326766Y463429D01*
X1326907Y463394D01*
X1327065Y463341D01*
X1327207Y463306D01*
X1327453Y463270D01*
X1327735Y463200D01*
X1328035Y463147D01*
X1328388Y463077D01*
X1328529Y463041D01*
X1328952Y462971D01*
X1329093Y462935D01*
X1329375Y462830D01*
X1329657Y462759D01*
X1330116Y462689D01*
X1330292Y462618D01*
X1330451Y462530D01*
X1330733Y462459D01*
X1331456Y462371D01*
X1331949Y462195D01*
X1332108Y462142D01*
X1332355Y462107D01*
X1332496Y462072D01*
X1332725Y462019D01*
X1332866Y461983D01*
X1333042Y461913D01*
X1333095Y461860D01*
X1333448Y461754D01*
X1333659Y461719D01*
X1333730Y461648D01*
X1334188Y461437D01*
X1334418Y461349D01*
X1334594Y461278D01*
X1334893Y461155D01*
X1335264Y461067D01*
X1335440Y460996D01*
X1335581Y460961D01*
X1335757Y460890D01*
X1336234Y460696D01*
X1336516Y460661D01*
X1336798Y460485D01*
X1337150Y460379D01*
X1337344Y460326D01*
X1337856Y460062D01*
X1338085Y459974D01*
X1338860Y459692D01*
X1339001Y459656D01*
X1339284Y459480D01*
X1339478Y459392D01*
X1339707Y459304D01*
X1339918Y459163D01*
X1340148Y459074D01*
X1340482Y458951D01*
X1340535Y458898D01*
X1340923Y458722D01*
X1341064Y458686D01*
X1341241Y458616D01*
X1341311Y458581D01*
X1341558Y458404D01*
X1341752Y458352D01*
X1341928Y458281D01*
X1342210Y458105D01*
X1342492Y457999D01*
X1343215Y457629D01*
X1343533Y457452D01*
X1343779Y457347D01*
X1344097Y457170D01*
X1344308Y457029D01*
X1344449Y456994D01*
X1344802Y456747D01*
X1344978Y456677D01*
X1345208Y456589D01*
X1345331Y456500D01*
X1345542Y456359D01*
X1345613Y456324D01*
X1345948Y456095D01*
X1346301Y455919D01*
X1346900Y455566D01*
X1347129Y455407D01*
X1347200Y455372D01*
X1347517Y455196D01*
X1347764Y455019D01*
X1348081Y454843D01*
X1348187Y454737D01*
X1348258Y454702D01*
X1348575Y454526D01*
X1348822Y454349D01*
X1349139Y454173D01*
X1349315Y453997D01*
X1349386Y453961D01*
X1349633Y453785D01*
X1349845Y453644D01*
X1350091Y453503D01*
X1350197Y453397D01*
X1350268Y453362D01*
X1350338Y453292D01*
X1350585Y453150D01*
X1350691Y453045D01*
X1350761Y453009D01*
X1351096Y452780D01*
X1351308Y452639D01*
X1351502Y452516D01*
X1351749Y452269D01*
X1351819Y452234D01*
X1352013Y452075D01*
X1352066Y452022D01*
X1352137Y451987D01*
X1352383Y451810D01*
X1352454Y451740D01*
X1352507Y451722D01*
X1352524Y451670D01*
X1352595Y451634D01*
X1352665Y451564D01*
X1352736Y451528D01*
X1353071Y451299D01*
X1353124Y451246D01*
X1353194Y451211D01*
X1353512Y450894D01*
X1353582Y450858D01*
X1353794Y450647D01*
X1353935Y450612D01*
X1354252Y450365D01*
X1354323Y450294D01*
X1354570Y450153D01*
X1354781Y449942D01*
X1354852Y449906D01*
X1355134Y449624D01*
X1355204Y449589D01*
X1355486Y449307D01*
X1355715Y449219D01*
X1355839Y449131D01*
X1355927Y449043D01*
X1355962Y448972D01*
X1356015Y448919D01*
X1356086Y448884D01*
X1356368Y448602D01*
X1356438Y448567D01*
X1356509Y448496D01*
X1356562Y448478D01*
X1356597Y448408D01*
X1356756Y448249D01*
X1356826Y448214D01*
X1356985Y448090D01*
X1357020Y448020D01*
X1357144Y447896D01*
X1357214Y447861D01*
X1357549Y447526D01*
X1357584Y447456D01*
X1357743Y447262D01*
X1358131Y446874D01*
X1358201Y446839D01*
X1358519Y446521D01*
X1358589Y446486D01*
X1358907Y446169D01*
X1358977Y446133D01*
X1359030Y446081D01*
X1359065Y446010D01*
X1359242Y445693D01*
X1359400Y445534D01*
X1359471Y445499D01*
X1359682Y445287D01*
X1359753Y445252D01*
X1359823Y445181D01*
X1359894Y445146D01*
X1359947Y445093D01*
X1360088Y444846D01*
X1360458Y444476D01*
X1360529Y444441D01*
X1360652Y444317D01*
X1360828Y444000D01*
X1361058Y443771D01*
X1361128Y443736D01*
X1361287Y443577D01*
X1361428Y443330D01*
X1361675Y443083D01*
X1361710Y443013D01*
X1361781Y442942D01*
X1361816Y442872D01*
X1362027Y442660D01*
X1362133Y442484D01*
X1362204Y442413D01*
X1362239Y442343D01*
X1362309Y442272D01*
X1362345Y442202D01*
X1362503Y442008D01*
X1362627Y441884D01*
X1362662Y441814D01*
X1362733Y441743D01*
X1362768Y441673D01*
X1363015Y441426D01*
X1363121Y441250D01*
X1363332Y441038D01*
X1363473Y440791D01*
X1363526Y440738D01*
X1363596Y440703D01*
X1363720Y440580D01*
X1363755Y440368D01*
X1363826Y440298D01*
X1363843Y440245D01*
X1363914Y440210D01*
X1364002Y440121D01*
X1364037Y440051D01*
X1364267Y439716D01*
X1364319Y439663D01*
X1364443Y439434D01*
X1364513Y439398D01*
X1364637Y439275D01*
X1364672Y439204D01*
X1364848Y438887D01*
X1364954Y438781D01*
X1365166Y438394D01*
X1365342Y438217D01*
X1365553Y437829D01*
X1365624Y437759D01*
X1365800Y437441D01*
X1366012Y437230D01*
X1366047Y437089D01*
X1366118Y436912D01*
X1366206Y436824D01*
X1366276Y436789D01*
X1366329Y436736D01*
X1366364Y436666D01*
X1366435Y436489D01*
X1366576Y436242D01*
X1366647Y436172D01*
X1366682Y436101D01*
X1366858Y435784D01*
X1366999Y435573D01*
X1367034Y435432D01*
X1367105Y435255D01*
X1367140Y435185D01*
X1367352Y434973D01*
X1367422Y434726D01*
X1367563Y434479D01*
X1367669Y434409D01*
X1367704Y434338D01*
X1367775Y434162D01*
X1367916Y433915D01*
X1367986Y433845D01*
X1368057Y433598D01*
X1368128Y433422D01*
X1368269Y433281D01*
X1368304Y433210D01*
X1368445Y432893D01*
X1368480Y432752D01*
X1368621Y432505D01*
X1368692Y432434D01*
X1368762Y432258D01*
X1368903Y432011D01*
X1369044Y431870D01*
X1369080Y431729D01*
X1369133Y431429D01*
X1369221Y431306D01*
X1369326Y431200D01*
X1369362Y431130D01*
X1369432Y430953D01*
X1369520Y430724D01*
X1369573Y430671D01*
X1369609Y430601D01*
X1369714Y430354D01*
X1369750Y430213D01*
X1369803Y430019D01*
X1370032Y429578D01*
X1370102Y429331D01*
X1370137Y429190D01*
X1370279Y428943D01*
X1370384Y428838D01*
X1370455Y428591D01*
X1370490Y428309D01*
X1370631Y428062D01*
X1370737Y427956D01*
X1370807Y427780D01*
X1370860Y427586D01*
X1370913Y427462D01*
X1370984Y427392D01*
X1371019Y427321D01*
X1371054Y427216D01*
X1371090Y427075D01*
X1371142Y426845D01*
X1371178Y426704D01*
X1371319Y426316D01*
X1371407Y426087D01*
X1371477Y425911D01*
X1371513Y425770D01*
X1371566Y425541D01*
X1371636Y425364D01*
X1371724Y425206D01*
X1371795Y424959D01*
X1371830Y424818D01*
X1371865Y424324D01*
X1372006Y424077D01*
X1372077Y423901D01*
X1372130Y423601D01*
X1372200Y423319D01*
X1372359Y422949D01*
X1372430Y422667D01*
X1372465Y422420D01*
X1372500Y422279D01*
X1372553Y422085D01*
X1372676Y421679D01*
X1372712Y421433D01*
X1372764Y421203D01*
X1372817Y421009D01*
X1372888Y420763D01*
X1372941Y420533D01*
X1372976Y420251D01*
X1373047Y419969D01*
X1373135Y419740D01*
X1373170Y419493D01*
X1373223Y419158D01*
X1373258Y418982D01*
X1373293Y418770D01*
X1373329Y418629D01*
X1373417Y418435D01*
X1373452Y418294D01*
X1373505Y417783D01*
X1373540Y417466D01*
X1373593Y417131D01*
X1373699Y416884D01*
X1373734Y416743D01*
X1373787Y416161D01*
X1373822Y415985D01*
X1373858Y415280D01*
X1373928Y415103D01*
X1374016Y414909D01*
X1374052Y413887D01*
X1374087Y413781D01*
X1374122Y413534D01*
X1374157Y412229D01*
X1374228Y412053D01*
X1374263Y411912D01*
X1374228Y408069D01*
X1374175Y408016D01*
X1373523Y408069D01*
X1373417Y408174D01*
X1373382Y409091D01*
X1373311Y409267D01*
X1373276Y409408D01*
X1373241Y412053D01*
X1373100Y412370D01*
X1373064Y412617D01*
X1373029Y414133D01*
X1372994Y414239D01*
X1372958Y414944D01*
X1372747Y415297D01*
X1372712Y416284D01*
X1372676Y416390D01*
X1372641Y416813D01*
X1372500Y417131D01*
X1372482Y417289D01*
X1372500Y417483D01*
X1372465Y417589D01*
X1372430Y417942D01*
X1372394Y418048D01*
X1372359Y418189D01*
X1372324Y418647D01*
X1372289Y418753D01*
X1372253Y419211D01*
X1372183Y419388D01*
X1372112Y419670D01*
X1372059Y419899D01*
X1372024Y420110D01*
X1371989Y420251D01*
X1371953Y420428D01*
X1371812Y420816D01*
X1371724Y421009D01*
X1371654Y421679D01*
X1371442Y422032D01*
X1371372Y422314D01*
X1371336Y422773D01*
X1371090Y423302D01*
X1371054Y423443D01*
X1371019Y423971D01*
X1370948Y424148D01*
X1370878Y424430D01*
X1370825Y424624D01*
X1370737Y424818D01*
X1370666Y425065D01*
X1370614Y425294D01*
X1370578Y425435D01*
X1370420Y425699D01*
X1370349Y425981D01*
X1370190Y426422D01*
X1370032Y426792D01*
X1369908Y427127D01*
X1369855Y427180D01*
X1369750Y427427D01*
X1369697Y427621D01*
X1369573Y427956D01*
X1369362Y428414D01*
X1369326Y428555D01*
X1369274Y428749D01*
X1369203Y428926D01*
X1369150Y428979D01*
X1369115Y429049D01*
X1369044Y429120D01*
X1368974Y429366D01*
X1368903Y429649D01*
X1368798Y429754D01*
X1368762Y429825D01*
X1368656Y430072D01*
X1368568Y430301D01*
X1368480Y430424D01*
X1368410Y430495D01*
X1368339Y430671D01*
X1368251Y430900D01*
X1368092Y431200D01*
X1368004Y431429D01*
X1367898Y431711D01*
X1367845Y431764D01*
X1367704Y432011D01*
X1367458Y432469D01*
X1367140Y433069D01*
X1366999Y433281D01*
X1366911Y433510D01*
X1366788Y433704D01*
X1366717Y433774D01*
X1366647Y433951D01*
X1366400Y434409D01*
X1366082Y435008D01*
X1365941Y435220D01*
X1365836Y435396D01*
X1365730Y435502D01*
X1365695Y435573D01*
X1365448Y436031D01*
X1365271Y436278D01*
X1365236Y436348D01*
X1364989Y436701D01*
X1364954Y436772D01*
X1364778Y437018D01*
X1364531Y437477D01*
X1364425Y437583D01*
X1364390Y437653D01*
X1364319Y437724D01*
X1364108Y438111D01*
X1363931Y438288D01*
X1363826Y438464D01*
X1363720Y438570D01*
X1363685Y438640D01*
X1363544Y438852D01*
X1363508Y438922D01*
X1363297Y439134D01*
X1363121Y439451D01*
X1363015Y439557D01*
X1362979Y439628D01*
X1362750Y439963D01*
X1362627Y440086D01*
X1362592Y440157D01*
X1362362Y440491D01*
X1362239Y440615D01*
X1362204Y440686D01*
X1361886Y441003D01*
X1361851Y441073D01*
X1361657Y441267D01*
X1361604Y441285D01*
X1361569Y441356D01*
X1361498Y441426D01*
X1361463Y441497D01*
X1361357Y441602D01*
X1361322Y441673D01*
X1361252Y441743D01*
X1361146Y441920D01*
X1360934Y442131D01*
X1360758Y442449D01*
X1360546Y442660D01*
X1360405Y442907D01*
X1360017Y443295D01*
X1359982Y443365D01*
X1359876Y443471D01*
X1359841Y443542D01*
X1359559Y443824D01*
X1359524Y443894D01*
X1359471Y443947D01*
X1359400Y443982D01*
X1359206Y444176D01*
X1359171Y444247D01*
X1359012Y444476D01*
X1358960Y444494D01*
X1358942Y444547D01*
X1358889Y444564D01*
X1358854Y444635D01*
X1358766Y444723D01*
X1358695Y444758D01*
X1358501Y444952D01*
X1358466Y445023D01*
X1358307Y445217D01*
X1357814Y445710D01*
X1357743Y445746D01*
X1357320Y446169D01*
X1357249Y446204D01*
X1357003Y446451D01*
X1356932Y446486D01*
X1356844Y446574D01*
X1356809Y446645D01*
X1356632Y446892D01*
X1356015Y447509D01*
X1355945Y447544D01*
X1355486Y448002D01*
X1355416Y448037D01*
X1355134Y448320D01*
X1355063Y448355D01*
X1354816Y448496D01*
X1354746Y448567D01*
X1354675Y448602D01*
X1354534Y448743D01*
X1354358Y448849D01*
X1354164Y449007D01*
X1354129Y449078D01*
X1353935Y449272D01*
X1353864Y449307D01*
X1353159Y450012D01*
X1352771Y450224D01*
X1352524Y450471D01*
X1352454Y450506D01*
X1352207Y450753D01*
X1351890Y450929D01*
X1351713Y451105D01*
X1351643Y451141D01*
X1351431Y451352D01*
X1351361Y451387D01*
X1351079Y451564D01*
X1351008Y451599D01*
X1350797Y451810D01*
X1350726Y451846D01*
X1350532Y452005D01*
X1350320Y452146D01*
X1350197Y452234D01*
X1350056Y452375D01*
X1349986Y452410D01*
X1349774Y452551D01*
X1349598Y452657D01*
X1349492Y452763D01*
X1349104Y452974D01*
X1348928Y453150D01*
X1348857Y453186D01*
X1348399Y453503D01*
X1348258Y453538D01*
X1347940Y453785D01*
X1347623Y453961D01*
X1347552Y454032D01*
X1347482Y454067D01*
X1347411Y454138D01*
X1347165Y454279D01*
X1346918Y454455D01*
X1346741Y454526D01*
X1346495Y454667D01*
X1346424Y454737D01*
X1346354Y454772D01*
X1345966Y454984D01*
X1345895Y455055D01*
X1345825Y455090D01*
X1345613Y455231D01*
X1345542Y455266D01*
X1345472Y455337D01*
X1345401Y455372D01*
X1345331Y455443D01*
X1345084Y455548D01*
X1344590Y455830D01*
X1344414Y455901D01*
X1344238Y456007D01*
X1343991Y456183D01*
X1343850Y456218D01*
X1343533Y456395D01*
X1343462Y456465D01*
X1342651Y456853D01*
X1342334Y457029D01*
X1342263Y457100D01*
X1341946Y457241D01*
X1341346Y457523D01*
X1341117Y457611D01*
X1340712Y457840D01*
X1340571Y457876D01*
X1340394Y457946D01*
X1338314Y458933D01*
X1338120Y458986D01*
X1337979Y459021D01*
X1337715Y459145D01*
X1337468Y459251D01*
X1337274Y459304D01*
X1337080Y459427D01*
X1336904Y459533D01*
X1336674Y459586D01*
X1336533Y459621D01*
X1336234Y459780D01*
X1335987Y459850D01*
X1335846Y459885D01*
X1335669Y459956D01*
X1335334Y460079D01*
X1335158Y460150D01*
X1334964Y460238D01*
X1334823Y460273D01*
X1334453Y460362D01*
X1334241Y460503D01*
X1334047Y460555D01*
X1333906Y460591D01*
X1333677Y460644D01*
X1333413Y460767D01*
X1333166Y460873D01*
X1332937Y460926D01*
X1332760Y460961D01*
X1332460Y461049D01*
X1332284Y461120D01*
X1331826Y461261D01*
X1331544Y461331D01*
X1331191Y461366D01*
X1330733Y461578D01*
X1330433Y461631D01*
X1330151Y461737D01*
X1329745Y461860D01*
X1329199Y461983D01*
X1329058Y462019D01*
X1328705Y462089D01*
X1328564Y462124D01*
X1328370Y462177D01*
X1328123Y462248D01*
X1327788Y462301D01*
X1327436Y462336D01*
X1327224Y462371D01*
X1326942Y462442D01*
X1326783Y462495D01*
X1326219Y462636D01*
X1325444Y462671D01*
X1325197Y462777D01*
X1324844Y462918D01*
X1324068Y462953D01*
X1323963Y462989D01*
X1323539Y463024D01*
X1323434Y463059D01*
X1323187Y463094D01*
X1322587Y463130D01*
X1322270Y463270D01*
X1321600Y463306D01*
X1321459Y463341D01*
X1320613Y463376D01*
X1320401Y463517D01*
X1320260Y463553D01*
X1320013Y463588D01*
X1319907Y463553D01*
X1319273Y463588D01*
X1319167Y463623D01*
X1318814Y463658D01*
X1317474Y463694D01*
X1317298Y463764D01*
X1317051Y463800D01*
X1314318Y463782D01*
X1314177Y463817D01*
X1313878Y463941D01*
X1313631Y463976D01*
X1313595Y463941D01*
X1313490Y463976D01*
X1312961Y463941D01*
X1312714Y463835D01*
X1312467Y463800D01*
X1309875Y463817D01*
X1309541Y463764D01*
X1309435Y463729D01*
X1309153Y463658D01*
X1307601Y463623D01*
X1307495Y463588D01*
X1307354Y463553D01*
X1306790Y463588D01*
X1306684Y463553D01*
X1306473Y463517D01*
X1306226Y463376D01*
X1306085Y463341D01*
X1304710Y463306D01*
X1304604Y463270D01*
X1304392Y463235D01*
X1304075Y463094D01*
X1303370Y463059D01*
X1303264Y463024D01*
X1302876Y462989D01*
X1302770Y462953D01*
X1302206Y462918D01*
X1301853Y462883D01*
X1301395Y462671D01*
X1301042Y462636D01*
X1300549Y462601D01*
X1300372Y462530D01*
X1300002Y462442D01*
X1299808Y462354D01*
X1299667Y462318D01*
X1299315Y462283D01*
X1298927Y462248D01*
X1298539Y462072D01*
X1298398Y462036D01*
X1298045Y462001D01*
X1297904Y461966D01*
X1297569Y461913D01*
X1297287Y461807D01*
X1296935Y461737D01*
X1296758Y461666D01*
X1296564Y461613D01*
X1296212Y461578D01*
X1295965Y461402D01*
X1295788Y461331D01*
X1295542Y461296D01*
X1295136Y461243D01*
X1294995Y461208D01*
X1294819Y461137D01*
X1294766Y461084D01*
X1294590Y461014D01*
X1294343Y460979D01*
X1293990Y460943D01*
X1293884Y460908D01*
X1293602Y460838D01*
X1293214Y460661D01*
X1292968Y460591D01*
X1292791Y460520D01*
X1292650Y460379D01*
X1292474Y460309D01*
X1292333Y460273D01*
X1292051Y460238D01*
X1291663Y459991D01*
X1291328Y459938D01*
X1290834Y459762D01*
X1290464Y459603D01*
X1290235Y459550D01*
X1290094Y459515D01*
X1290041Y459462D01*
X1289970Y459427D01*
X1289653Y459286D01*
X1289512Y459251D01*
X1289336Y459145D01*
X1289194Y459004D01*
X1288948Y458933D01*
X1288595Y458898D01*
X1288348Y458757D01*
X1287960Y458581D01*
X1287766Y458528D01*
X1287643Y458440D01*
X1287431Y458299D01*
X1287238Y458246D01*
X1287097Y458210D01*
X1286902Y458087D01*
X1286832Y458017D01*
X1286761Y457981D01*
X1286585Y457911D01*
X1286356Y457858D01*
X1286074Y457682D01*
X1285880Y457593D01*
X1285739Y457558D01*
X1285545Y457505D01*
X1285351Y457382D01*
X1285280Y457311D01*
X1285104Y457241D01*
X1284910Y457188D01*
X1284628Y457012D01*
X1284575Y456959D01*
X1284505Y456923D01*
X1284046Y456677D01*
X1283870Y456606D01*
X1283729Y456571D01*
X1283553Y456465D01*
X1283412Y456324D01*
X1283341Y456289D01*
X1283165Y456218D01*
X1282971Y456165D01*
X1282742Y455936D01*
X1282565Y455866D01*
X1282371Y455813D01*
X1282248Y455725D01*
X1282107Y455583D01*
X1281860Y455513D01*
X1281631Y455425D01*
X1281472Y455266D01*
X1281155Y455090D01*
X1280979Y454913D01*
X1280732Y454843D01*
X1280556Y454737D01*
X1280379Y454561D01*
X1280203Y454490D01*
X1280062Y454455D01*
X1279868Y454296D01*
X1279815Y454244D01*
X1279498Y454067D01*
X1279321Y453891D01*
X1279180Y453856D01*
X1278951Y453768D01*
X1278845Y453662D01*
X1278810Y453591D01*
X1278757Y453538D01*
X1278299Y453292D01*
X1278087Y453150D01*
X1277911Y453045D01*
X1277699Y452833D01*
X1277523Y452763D01*
X1277329Y452604D01*
X1277276Y452551D01*
X1276888Y452340D01*
X1276712Y452163D01*
X1276641Y452128D01*
X1276448Y451969D01*
X1276395Y451916D01*
X1276077Y451740D01*
X1275989Y451617D01*
X1275866Y451493D01*
X1275725Y451458D01*
X1275478Y451282D01*
X1275372Y451176D01*
X1275302Y451141D01*
X1275143Y451017D01*
X1275107Y450947D01*
X1275055Y450894D01*
X1274984Y450858D01*
X1274737Y450717D01*
X1274526Y450506D01*
X1274455Y450471D01*
X1274261Y450312D01*
X1274226Y450241D01*
X1274138Y450153D01*
X1273909Y450065D01*
X1273785Y449977D01*
X1273644Y449836D01*
X1273574Y449801D01*
X1273380Y449607D01*
X1273344Y449536D01*
X1273256Y449448D01*
X1273186Y449413D01*
X1272992Y449254D01*
X1272833Y449095D01*
X1272763Y449060D01*
X1272480Y448778D01*
X1272410Y448743D01*
X1272093Y448496D01*
X1271846Y448320D01*
X1271564Y448037D01*
X1271493Y448002D01*
X1271176Y447685D01*
X1271105Y447650D01*
X1271017Y447561D01*
X1270982Y447491D01*
X1270929Y447438D01*
X1270859Y447403D01*
X1270506Y447050D01*
X1270435Y447015D01*
X1270347Y446927D01*
X1270206Y446680D01*
X1269977Y446451D01*
X1269906Y446415D01*
X1269801Y446310D01*
X1269748Y446292D01*
X1269713Y446222D01*
X1269519Y446028D01*
X1269448Y445992D01*
X1269342Y445887D01*
X1269289Y445869D01*
X1269272Y445816D01*
X1269201Y445781D01*
X1269007Y445587D01*
X1268972Y445516D01*
X1268813Y445358D01*
X1268743Y445322D01*
X1268619Y445199D01*
X1268478Y444952D01*
X1268179Y444652D01*
X1268108Y444617D01*
X1267914Y444423D01*
X1267879Y444353D01*
X1267720Y444159D01*
X1267174Y443612D01*
X1267138Y443542D01*
X1266962Y443365D01*
X1266927Y443295D01*
X1266768Y443101D01*
X1266698Y443030D01*
X1266222Y443013D01*
X1265199Y443048D01*
X1265234Y443189D01*
X1265446Y443401D01*
X1265481Y443471D01*
X1265657Y443647D01*
X1265693Y443718D01*
X1265781Y443806D01*
X1265851Y443841D01*
X1265922Y443912D01*
X1265992Y443947D01*
X1266045Y444000D01*
X1266116Y444176D01*
X1266222Y444353D01*
X1266274Y444406D01*
X1266345Y444441D01*
X1266645Y444670D01*
X1266680Y444741D01*
X1266821Y444987D01*
X1266980Y445146D01*
X1267050Y445181D01*
X1267332Y445463D01*
X1267403Y445499D01*
X1267473Y445569D01*
X1267544Y445605D01*
X1267667Y445728D01*
X1267703Y445798D01*
X1267879Y446116D01*
X1267967Y446204D01*
X1268038Y446239D01*
X1268161Y446363D01*
X1268196Y446433D01*
X1268443Y446609D01*
X1268478Y446680D01*
X1268602Y446803D01*
X1268672Y446839D01*
X1269025Y447191D01*
X1269095Y447226D01*
X1269148Y447279D01*
X1269184Y447350D01*
X1269342Y447544D01*
X1269430Y447632D01*
X1269466Y447703D01*
X1269589Y447826D01*
X1269660Y447861D01*
X1269748Y447914D01*
X1269783Y447985D01*
X1269854Y448055D01*
X1269871Y448108D01*
X1269942Y448143D01*
X1270012Y448214D01*
X1270083Y448249D01*
X1270330Y448496D01*
X1270400Y448531D01*
X1270471Y448602D01*
X1270541Y448637D01*
X1270594Y448690D01*
X1270629Y448760D01*
X1270682Y448813D01*
X1270753Y448849D01*
X1271035Y449131D01*
X1271105Y449166D01*
X1271352Y449342D01*
X1271528Y449519D01*
X1271599Y449554D01*
X1271793Y449712D01*
X1271916Y449871D01*
X1271987Y449906D01*
X1272057Y449977D01*
X1272110Y449995D01*
X1272146Y450065D01*
X1272304Y450224D01*
X1272375Y450259D01*
X1272533Y450382D01*
X1272569Y450453D01*
X1272692Y450576D01*
X1272868Y450647D01*
X1272939Y450682D01*
X1273009Y450753D01*
X1273080Y450788D01*
X1273150Y450858D01*
X1273327Y450964D01*
X1273450Y451088D01*
X1273485Y451158D01*
X1273644Y451317D01*
X1273715Y451352D01*
X1273803Y451440D01*
X1273838Y451511D01*
X1273926Y451599D01*
X1274156Y451687D01*
X1274349Y451810D01*
X1274420Y451881D01*
X1274491Y451916D01*
X1274684Y452075D01*
X1274843Y452234D01*
X1275090Y452375D01*
X1275213Y452498D01*
X1275249Y452569D01*
X1275548Y452763D01*
X1275689Y452904D01*
X1275971Y453009D01*
X1276183Y453221D01*
X1276254Y453256D01*
X1276500Y453397D01*
X1276589Y453521D01*
X1276641Y453574D01*
X1276871Y453662D01*
X1277065Y453785D01*
X1277170Y453891D01*
X1277488Y454067D01*
X1277576Y454155D01*
X1277594Y454208D01*
X1277664Y454244D01*
X1277981Y454420D01*
X1278122Y454561D01*
X1278457Y454684D01*
X1278598Y454825D01*
X1278634Y454896D01*
X1278687Y454949D01*
X1278933Y455019D01*
X1279110Y455125D01*
X1279251Y455266D01*
X1279639Y455478D01*
X1279850Y455619D01*
X1280168Y455795D01*
X1280273Y455901D01*
X1280344Y455936D01*
X1280450Y455971D01*
X1280591Y456007D01*
X1280767Y456077D01*
X1280943Y456254D01*
X1281261Y456430D01*
X1281349Y456518D01*
X1281366Y456571D01*
X1281437Y456606D01*
X1281613Y456677D01*
X1281860Y456712D01*
X1281931Y456782D01*
X1282001Y456818D01*
X1282072Y456888D01*
X1282142Y456923D01*
X1282389Y457029D01*
X1282565Y457135D01*
X1282706Y457276D01*
X1282883Y457347D01*
X1283024Y457382D01*
X1283200Y457488D01*
X1283271Y457558D01*
X1283341Y457593D01*
X1283517Y457664D01*
X1283658Y457699D01*
X1283888Y457787D01*
X1283941Y457840D01*
X1284117Y457911D01*
X1284364Y458017D01*
X1284558Y458069D01*
X1285104Y458369D01*
X1285298Y458422D01*
X1285351Y458475D01*
X1285422Y458510D01*
X1285809Y458686D01*
X1285950Y458722D01*
X1286197Y458863D01*
X1286444Y458969D01*
X1286797Y459110D01*
X1286973Y459216D01*
X1287361Y459392D01*
X1287537Y459462D01*
X1287784Y459639D01*
X1287925Y459674D01*
X1288101Y459744D01*
X1288295Y459797D01*
X1288489Y459885D01*
X1288719Y459974D01*
X1288912Y460027D01*
X1289159Y460132D01*
X1289688Y460379D01*
X1289970Y460450D01*
X1290252Y460626D01*
X1290446Y460679D01*
X1290623Y460714D01*
X1291010Y460855D01*
X1291205Y460943D01*
X1291434Y461031D01*
X1291575Y461067D01*
X1291769Y461120D01*
X1292051Y461190D01*
X1292227Y461261D01*
X1292544Y461402D01*
X1292827Y461472D01*
X1293214Y461648D01*
X1293408Y461701D01*
X1293549Y461737D01*
X1293726Y461772D01*
X1293867Y461807D01*
X1294043Y461878D01*
X1294237Y461966D01*
X1294431Y462019D01*
X1294607Y462054D01*
X1294889Y462124D01*
X1295066Y462160D01*
X1295577Y462318D01*
X1295930Y462424D01*
X1296264Y462477D01*
X1296441Y462548D01*
X1296494Y462601D01*
X1296670Y462671D01*
X1296811Y462706D01*
X1297181Y462759D01*
X1297463Y462830D01*
X1297975Y462989D01*
X1298116Y463024D01*
X1298451Y463077D01*
X1298662Y463112D01*
X1299015Y463182D01*
X1299297Y463253D01*
X1299720Y463323D01*
X1299896Y463394D01*
X1300090Y463447D01*
X1300602Y463500D01*
X1301025Y463570D01*
X1301395Y463729D01*
X1301959Y463764D01*
X1302065Y463800D01*
X1302453Y463835D01*
X1302700Y463941D01*
X1302841Y463976D01*
X1303299Y464011D01*
X1303405Y464046D01*
X1303863Y464081D01*
X1304198Y464134D01*
X1304375Y464170D01*
X1304939Y464205D01*
X1305150Y464240D01*
X1305309Y464293D01*
X1305450Y464328D01*
X1306191Y464364D01*
X1306367Y464434D01*
X1306508Y464469D01*
X1307742Y464505D01*
X1307848Y464540D01*
X1309294Y464575D01*
X1309541Y464681D01*
X1309682Y464716D01*
X1309928Y464752D01*
X1312679D01*
X1317263Y464716D01*
D02*
G37*
G36*
X1265393Y442431D02*
X1266116Y442413D01*
X1266081Y442272D01*
X1265552Y441743D01*
X1265411Y441497D01*
X1265199Y441285D01*
X1265164Y441214D01*
X1265023Y441073D01*
X1264987Y441003D01*
X1264882Y440897D01*
X1264846Y440827D01*
X1264688Y440597D01*
X1264617Y440562D01*
X1264529Y440439D01*
X1264388Y440192D01*
X1264335Y440139D01*
X1264317Y440121D01*
X1264247Y440051D01*
X1264035Y439663D01*
X1263930Y439592D01*
X1263894Y439522D01*
X1263753Y439275D01*
X1263665Y439187D01*
X1263595Y439152D01*
X1263454Y438940D01*
X1263277Y438728D01*
X1263189Y438640D01*
X1263154Y438499D01*
X1262995Y438305D01*
X1262801Y438111D01*
X1262766Y438041D01*
X1262607Y437847D01*
X1262449Y437583D01*
X1262413Y437512D01*
X1262308Y437406D01*
X1262272Y437336D01*
X1262202Y437265D01*
X1262114Y437036D01*
X1262026Y436948D01*
X1262008Y436895D01*
X1261937Y436860D01*
X1261849Y436772D01*
X1261779Y436595D01*
X1261602Y436278D01*
X1261426Y435890D01*
X1261285Y435643D01*
X1261215Y435573D01*
X1261021Y435202D01*
X1260968Y435185D01*
X1260950Y435132D01*
X1260880Y435097D01*
X1260791Y434903D01*
X1260756Y434762D01*
X1260580Y434515D01*
X1260298Y433986D01*
X1260192Y433880D01*
X1260157Y433739D01*
X1260086Y433563D01*
X1259980Y433386D01*
X1259910Y433316D01*
X1259874Y433245D01*
X1259698Y432857D01*
X1259557Y432611D01*
X1259416Y432293D01*
X1259310Y432117D01*
X1259169Y431976D01*
X1259011Y431535D01*
X1258817Y431341D01*
X1258746Y431094D01*
X1258676Y430918D01*
X1258464Y430601D01*
X1257970Y429578D01*
X1257847Y429243D01*
X1257653Y428838D01*
X1257565Y428608D01*
X1257477Y428414D01*
X1257406Y428238D01*
X1257371Y428097D01*
X1257089Y427498D01*
X1257054Y427357D01*
X1256771Y426757D01*
X1256719Y426563D01*
X1256683Y426422D01*
X1256489Y425946D01*
X1256348Y425488D01*
X1256295Y425259D01*
X1256260Y425117D01*
X1256102Y424747D01*
X1256066Y424500D01*
X1256031Y424359D01*
X1255978Y424095D01*
X1255819Y423795D01*
X1255749Y423548D01*
X1255714Y423302D01*
X1255661Y423037D01*
X1255590Y422861D01*
X1255537Y422808D01*
X1255432Y422561D01*
X1255396Y422314D01*
X1255361Y421926D01*
X1255220Y421609D01*
X1255167Y421380D01*
X1255132Y421239D01*
X1255079Y421045D01*
X1255008Y420622D01*
X1254973Y420481D01*
X1254938Y420057D01*
X1254779Y419864D01*
X1254726Y419670D01*
X1254691Y418788D01*
X1254656Y418647D01*
X1254480Y418259D01*
X1254374Y417836D01*
X1254339Y417483D01*
X1254303Y416954D01*
X1254162Y416743D01*
X1254127Y416496D01*
X1254092Y416143D01*
X1254056Y416038D01*
X1254021Y415791D01*
X1253986Y415121D01*
X1253915Y414944D01*
X1253880Y414698D01*
X1253845Y414063D01*
X1253774Y413887D01*
X1253739Y413746D01*
X1253704Y413393D01*
X1253739Y413111D01*
X1253704Y413005D01*
X1253739Y412758D01*
X1253704Y412653D01*
X1253669Y412124D01*
X1253633Y412018D01*
X1253598Y411701D01*
X1253633Y411595D01*
X1253598Y410255D01*
X1253563Y410149D01*
X1253527Y409232D01*
X1253457Y409056D01*
X1253422Y408809D01*
X1253386Y408633D01*
X1253422Y408527D01*
X1253457Y408210D01*
X1253492Y408104D01*
X1253527Y407857D01*
X1253563Y404895D01*
X1253633Y404719D01*
X1253669Y404472D01*
X1253704Y404366D01*
X1253669Y404119D01*
X1253616Y404066D01*
X1253457Y404049D01*
X1253281Y404084D01*
X1252875Y404102D01*
X1252805Y404066D01*
X1252593Y404137D01*
X1252505Y404225D01*
X1252540Y404472D01*
X1252575Y404578D01*
X1252540Y405036D01*
X1252575Y412300D01*
X1252646Y412476D01*
X1252681Y412723D01*
X1252663Y413622D01*
X1252699Y413763D01*
X1252787Y413957D01*
X1252822Y414204D01*
X1252858Y414557D01*
X1252822Y414804D01*
X1252858Y415156D01*
X1252893Y415262D01*
X1252928Y415403D01*
X1252963Y416143D01*
X1252999Y416249D01*
X1253034Y416496D01*
X1253069Y416954D01*
X1253175Y417201D01*
X1253210Y417448D01*
X1253263Y417995D01*
X1253281Y418048D01*
X1253245Y418153D01*
X1253298Y418453D01*
X1253492Y418894D01*
X1253545Y419123D01*
X1253580Y419687D01*
X1253616Y419828D01*
X1253739Y420057D01*
X1253827Y420428D01*
X1253915Y420622D01*
X1253951Y421186D01*
X1254092Y421397D01*
X1254145Y421591D01*
X1254180Y421768D01*
X1254250Y422191D01*
X1254286Y422367D01*
X1254321Y422508D01*
X1254515Y423125D01*
X1254568Y423390D01*
X1254603Y423531D01*
X1254656Y423725D01*
X1254709Y424024D01*
X1254762Y424148D01*
X1254832Y424218D01*
X1254867Y424289D01*
X1254903Y424395D01*
X1254973Y424959D01*
X1255220Y425311D01*
X1255255Y425452D01*
X1255291Y425805D01*
X1255396Y425981D01*
X1255467Y426052D01*
X1255502Y426123D01*
X1255573Y426299D01*
X1255626Y426634D01*
X1255696Y426810D01*
X1255819Y426969D01*
X1255855Y427039D01*
X1255890Y427145D01*
X1255943Y427480D01*
X1255978Y427656D01*
X1256154Y427938D01*
X1256243Y428097D01*
X1256278Y428238D01*
X1256331Y428573D01*
X1256384Y428697D01*
X1256454Y428767D01*
X1256489Y428838D01*
X1256560Y428908D01*
X1256666Y429331D01*
X1256824Y429525D01*
X1256877Y429578D01*
X1256948Y429825D01*
X1256983Y429966D01*
X1257124Y430213D01*
X1257265Y430424D01*
X1257318Y430654D01*
X1257389Y430830D01*
X1257582Y431200D01*
X1257724Y431553D01*
X1257759Y431729D01*
X1257900Y431941D01*
X1257970Y432188D01*
X1258076Y432364D01*
X1258164Y432452D01*
X1258235Y432487D01*
X1258288Y432540D01*
X1258341Y432840D01*
X1258429Y432963D01*
X1258605Y433139D01*
X1258693Y433369D01*
X1258923Y433810D01*
X1259028Y434092D01*
X1259310Y434515D01*
X1259381Y434797D01*
X1259539Y434991D01*
X1259592Y435044D01*
X1259663Y435220D01*
X1259698Y435361D01*
X1259857Y435555D01*
X1259945Y435643D01*
X1259980Y435784D01*
X1260121Y436031D01*
X1260298Y436207D01*
X1260403Y436489D01*
X1260545Y436630D01*
X1260580Y436701D01*
X1260650Y436772D01*
X1260738Y437001D01*
X1260791Y437124D01*
X1260844Y437212D01*
X1260897Y437230D01*
X1260932Y437300D01*
X1261003Y437371D01*
X1261109Y437547D01*
X1261179Y437618D01*
X1261215Y437688D01*
X1261461Y438147D01*
X1261514Y438200D01*
X1261585Y438235D01*
X1261673Y438323D01*
X1261708Y438394D01*
X1261867Y438587D01*
X1262026Y438852D01*
X1262114Y439081D01*
X1262290Y439293D01*
X1262413Y439487D01*
X1262572Y439680D01*
X1262625Y439733D01*
X1262695Y439910D01*
X1262801Y440086D01*
X1262889Y440174D01*
X1262960Y440210D01*
X1263013Y440262D01*
X1263101Y440491D01*
X1263154Y440545D01*
X1263171Y440597D01*
X1263242Y440633D01*
X1263612Y441003D01*
X1263648Y441073D01*
X1263824Y441391D01*
X1263930Y441497D01*
X1263965Y441567D01*
X1264212Y441884D01*
X1264388Y442061D01*
X1264423Y442131D01*
X1264529Y442237D01*
X1264564Y442308D01*
X1264793Y442431D01*
X1264935Y442466D01*
X1265393Y442431D01*
D02*
G37*
G36*
X1317651Y472474D02*
X1317739Y472350D01*
X1317897Y472298D01*
X1318144Y472262D01*
X1319696Y472227D01*
X1319802Y472192D01*
X1320859Y472156D01*
X1321177Y472015D01*
X1321424Y471980D01*
X1322411Y471945D01*
X1322517Y471910D01*
X1323116Y471874D01*
X1323293Y471804D01*
X1323539Y471769D01*
X1324068Y471733D01*
X1324245Y471663D01*
X1324597Y471628D01*
X1324985Y471592D01*
X1325091Y471557D01*
X1325444Y471522D01*
X1325867Y471487D01*
X1325972Y471451D01*
X1326307Y471398D01*
X1326713Y471275D01*
X1327118Y471222D01*
X1327401Y471187D01*
X1327418Y471204D01*
X1327524Y471169D01*
X1327806Y471134D01*
X1328123Y470993D01*
X1328740Y470905D01*
X1329023Y470869D01*
X1329164Y470834D01*
X1329340Y470764D01*
X1329481Y470728D01*
X1329675Y470676D01*
X1329816Y470640D01*
X1330151Y470587D01*
X1330504Y470517D01*
X1330645Y470481D01*
X1330821Y470446D01*
X1331209Y470376D01*
X1331403Y470288D01*
X1331632Y470235D01*
X1331808Y470199D01*
X1332196Y470129D01*
X1332372Y470058D01*
X1332566Y469970D01*
X1332707Y469935D01*
X1333042Y469882D01*
X1333219Y469847D01*
X1333518Y469723D01*
X1333695Y469653D01*
X1333836Y469618D01*
X1334135Y469565D01*
X1334312Y469529D01*
X1334735Y469424D01*
X1335017Y469318D01*
X1335176Y469265D01*
X1335740Y469124D01*
X1335969Y469036D01*
X1336163Y468948D01*
X1336445Y468877D01*
X1336674Y468824D01*
X1336851Y468754D01*
X1337291Y468560D01*
X1337520Y468507D01*
X1337732Y468472D01*
X1338120Y468295D01*
X1338349Y468207D01*
X1338578Y468154D01*
X1338755Y468119D01*
X1339037Y468013D01*
X1339090Y467960D01*
X1339337Y467854D01*
X1339689Y467714D01*
X1339936Y467608D01*
X1340183Y467537D01*
X1340324Y467502D01*
X1340553Y467414D01*
X1340729Y467343D01*
X1341170Y467149D01*
X1341399Y467061D01*
X1341629Y466938D01*
X1341981Y466832D01*
X1342210Y466744D01*
X1342651Y466515D01*
X1342880Y466426D01*
X1343057Y466356D01*
X1343427Y466197D01*
X1343674Y466127D01*
X1344344Y465809D01*
X1344573Y465721D01*
X1344661Y465633D01*
X1345049Y465457D01*
X1345437Y465245D01*
X1345684Y465139D01*
X1345825Y465104D01*
X1346212Y464893D01*
X1346459Y464787D01*
X1346600Y464752D01*
X1347023Y464469D01*
X1347411Y464258D01*
X1347729Y464117D01*
X1347905Y464046D01*
X1348293Y463800D01*
X1348522Y463711D01*
X1348716Y463588D01*
X1348928Y463447D01*
X1349157Y463359D01*
X1349351Y463235D01*
X1349880Y462953D01*
X1349950Y462883D01*
X1350021Y462847D01*
X1350550Y462565D01*
X1350761Y462424D01*
X1351008Y462283D01*
X1351079Y462213D01*
X1351149Y462177D01*
X1351184Y462142D01*
X1351220D01*
X1351608Y461931D01*
X1351854Y461754D01*
X1352101Y461613D01*
X1352383Y461437D01*
X1352630Y461296D01*
X1352701Y461225D01*
X1352771Y461190D01*
X1353159Y460979D01*
X1353406Y460802D01*
X1353476Y460767D01*
X1353811Y460538D01*
X1354234Y460256D01*
X1354323Y460168D01*
X1354393Y460132D01*
X1354640Y459991D01*
X1354746Y459885D01*
X1354816Y459850D01*
X1354887Y459780D01*
X1355204Y459603D01*
X1355398Y459445D01*
X1355451Y459392D01*
X1355698Y459251D01*
X1355839Y459110D01*
X1356086Y458969D01*
X1356192Y458863D01*
X1356262Y458828D01*
X1356509Y458651D01*
X1356579Y458616D01*
X1356791Y458404D01*
X1356862Y458369D01*
X1357108Y458228D01*
X1357214Y458122D01*
X1357285Y458087D01*
X1357355Y458017D01*
X1357426Y457981D01*
X1357602Y457805D01*
X1357672Y457770D01*
X1357919Y457629D01*
X1358166Y457382D01*
X1358237Y457347D01*
X1358484Y457100D01*
X1358801Y456923D01*
X1358907Y456818D01*
X1358960Y456800D01*
X1358977Y456747D01*
X1359048Y456712D01*
X1359118Y456641D01*
X1359189Y456606D01*
X1359541Y456254D01*
X1359612Y456218D01*
X1359682Y456148D01*
X1359753Y456112D01*
X1359823Y456042D01*
X1360070Y455901D01*
X1360211Y455760D01*
X1360282Y455725D01*
X1360458Y455548D01*
X1360529Y455513D01*
X1361093Y454949D01*
X1361163Y454913D01*
X1361445Y454632D01*
X1361516Y454596D01*
X1361869Y454244D01*
X1361939Y454208D01*
X1362080Y454067D01*
X1362151Y454032D01*
X1362398Y453891D01*
X1362627Y453662D01*
X1362662Y453591D01*
X1362856Y453327D01*
X1362926Y453292D01*
X1363244Y452974D01*
X1363314Y452939D01*
X1363667Y452586D01*
X1363737Y452551D01*
X1363861Y452428D01*
X1363879Y452375D01*
X1363949Y452340D01*
X1364267Y452022D01*
X1364337Y451987D01*
X1364654Y451670D01*
X1364725Y451634D01*
X1364778Y451581D01*
X1364813Y451511D01*
X1364919Y451405D01*
X1364954Y451334D01*
X1365025Y451264D01*
X1365060Y451194D01*
X1365360Y450894D01*
X1365412Y450876D01*
X1365448Y450806D01*
X1365501Y450753D01*
X1365553Y450735D01*
X1365571Y450682D01*
X1365642Y450647D01*
X1366012Y450277D01*
X1366047Y450206D01*
X1366206Y449977D01*
X1366276Y449942D01*
X1366682Y449536D01*
X1366717Y449466D01*
X1366876Y449272D01*
X1367317Y448831D01*
X1367352Y448760D01*
X1367458Y448655D01*
X1367493Y448584D01*
X1367599Y448478D01*
X1367634Y448408D01*
X1367687Y448355D01*
X1367740Y448337D01*
X1367757Y448284D01*
X1367828Y448249D01*
X1367951Y448126D01*
X1367986Y448055D01*
X1368057Y447985D01*
X1368163Y447808D01*
X1368233Y447738D01*
X1368269Y447667D01*
X1368410Y447526D01*
X1368515Y447350D01*
X1368762Y447103D01*
X1368798Y447033D01*
X1368868Y446962D01*
X1368903Y446892D01*
X1369044Y446750D01*
X1369080Y446680D01*
X1369185Y446574D01*
X1369221Y446504D01*
X1369326Y446398D01*
X1369362Y446327D01*
X1369644Y446045D01*
X1369679Y445975D01*
X1369750Y445904D01*
X1369785Y445834D01*
X1370032Y445516D01*
X1370719Y444582D01*
X1370860Y444370D01*
X1370948Y444247D01*
X1371019Y444176D01*
X1371054Y444106D01*
X1371125Y444035D01*
X1371160Y443965D01*
X1371513Y443471D01*
X1371618Y443295D01*
X1371795Y443119D01*
X1371830Y443048D01*
X1372077Y442660D01*
X1372112Y442590D01*
X1372341Y442255D01*
X1372465Y442131D01*
X1372500Y442061D01*
X1372676Y441814D01*
X1372712Y441743D01*
X1372888Y441426D01*
X1373205Y440968D01*
X1373241Y440897D01*
X1373593Y440333D01*
X1373628Y440262D01*
X1373805Y440015D01*
X1374016Y439628D01*
X1374193Y439381D01*
X1374228Y439310D01*
X1374404Y439028D01*
X1374757Y438358D01*
X1374898Y438147D01*
X1374933Y438076D01*
X1375180Y437688D01*
X1375215Y437547D01*
X1375392Y437230D01*
X1375674Y436701D01*
X1375850Y436419D01*
X1375991Y436101D01*
X1376449Y435220D01*
X1376590Y435008D01*
X1376643Y434814D01*
X1376714Y434638D01*
X1377119Y433880D01*
X1377225Y433633D01*
X1377313Y433404D01*
X1377543Y432893D01*
X1377684Y432540D01*
X1377719Y432469D01*
X1377860Y432258D01*
X1377930Y432082D01*
X1377966Y431941D01*
X1378018Y431747D01*
X1378283Y431165D01*
X1378371Y430936D01*
X1378565Y430530D01*
X1378618Y430336D01*
X1378724Y430054D01*
X1378777Y430001D01*
X1378847Y429825D01*
X1378953Y429472D01*
X1379023Y429296D01*
X1379112Y429067D01*
X1379182Y428890D01*
X1379341Y428379D01*
X1379552Y427850D01*
X1379623Y427603D01*
X1379711Y427198D01*
X1379782Y427022D01*
X1379834Y426969D01*
X1379940Y426722D01*
X1379993Y426387D01*
X1380028Y426246D01*
X1380099Y426070D01*
X1380258Y425699D01*
X1380293Y425452D01*
X1380399Y425100D01*
X1380487Y424871D01*
X1380522Y424694D01*
X1380557Y424553D01*
X1380593Y424377D01*
X1380645Y424183D01*
X1380681Y424042D01*
X1380751Y423795D01*
X1380804Y423566D01*
X1380928Y423161D01*
X1381033Y422737D01*
X1381086Y422508D01*
X1381122Y422297D01*
X1381157Y422120D01*
X1381263Y421838D01*
X1381298Y421697D01*
X1381333Y421380D01*
X1381439Y420851D01*
X1381474Y420710D01*
X1381545Y420533D01*
X1381597Y420340D01*
X1381703Y419599D01*
X1381739Y419282D01*
X1381880Y418964D01*
X1381915Y418506D01*
X1381950Y418400D01*
X1381985Y418259D01*
X1382021Y417624D01*
X1382091Y417448D01*
X1382126Y417307D01*
X1382162Y416813D01*
X1382232Y416637D01*
X1382267Y416284D01*
X1382303Y415615D01*
X1382373Y415438D01*
X1382408Y415191D01*
X1382444Y414310D01*
X1382479Y414204D01*
X1382514Y414063D01*
X1382550Y413605D01*
X1382585Y413040D01*
X1382638Y412776D01*
X1382726Y412476D01*
X1382744Y407487D01*
X1382726Y407328D01*
X1382761Y407222D01*
X1382744Y406499D01*
X1382761Y405988D01*
X1382726Y405882D01*
X1382744Y405724D01*
X1382708Y405442D01*
X1382655Y405248D01*
X1382620Y405107D01*
X1382603Y404172D01*
X1382620Y403731D01*
X1382567Y403679D01*
X1382461Y403643D01*
X1382215Y403820D01*
X1381985Y404225D01*
X1381933Y404278D01*
X1381545Y404490D01*
X1381439Y404595D01*
X1381368Y404631D01*
X1381298Y404701D01*
X1381227Y404736D01*
X1380980Y404983D01*
X1380910Y405018D01*
X1380663Y405159D01*
X1380522Y405300D01*
X1380452Y405336D01*
X1380240Y405477D01*
X1380169Y405512D01*
X1379923Y405688D01*
X1379782Y405724D01*
X1379535Y405900D01*
X1379323Y406041D01*
X1379182Y406076D01*
X1378935Y406253D01*
X1378865Y406323D01*
X1378689Y406394D01*
X1378353Y406517D01*
X1378089Y406676D01*
X1377648Y406834D01*
X1377454Y406958D01*
X1377243Y407099D01*
X1376784Y407310D01*
X1376344Y407469D01*
X1376220Y407557D01*
X1376132Y407645D01*
X1376097Y407892D01*
X1376114Y408333D01*
X1376079Y409003D01*
X1376044Y409179D01*
X1376009Y412212D01*
X1375973Y412353D01*
X1375850Y412653D01*
X1375815Y412794D01*
X1375850Y413252D01*
X1375815Y413816D01*
X1375779Y413957D01*
X1375744Y414204D01*
X1375709Y414557D01*
X1375744Y414698D01*
X1375709Y415121D01*
X1375638Y415297D01*
X1375568Y415720D01*
X1375533Y416249D01*
X1375497Y416355D01*
X1375462Y416496D01*
X1375427Y417060D01*
X1375392Y417166D01*
X1375321Y417448D01*
X1375286Y417871D01*
X1375250Y417977D01*
X1375198Y418312D01*
X1375162Y418488D01*
X1375127Y418629D01*
X1375074Y418823D01*
X1375039Y418964D01*
X1374986Y419511D01*
X1374915Y419864D01*
X1374880Y420005D01*
X1374810Y420181D01*
X1374757Y420340D01*
X1374722Y420481D01*
X1374686Y420727D01*
X1374651Y420868D01*
X1374616Y421151D01*
X1374475Y421468D01*
X1374404Y421750D01*
X1374351Y422050D01*
X1374316Y422191D01*
X1374175Y422579D01*
X1374140Y422720D01*
X1374069Y423072D01*
X1373999Y423354D01*
X1373946Y423548D01*
X1373840Y423971D01*
X1373734Y424324D01*
X1373664Y424571D01*
X1373540Y424906D01*
X1373487Y424959D01*
X1373417Y425135D01*
X1373346Y425382D01*
X1373293Y425646D01*
X1373117Y425928D01*
X1373029Y426123D01*
X1372958Y426546D01*
X1372817Y426687D01*
X1372782Y426757D01*
X1372712Y426934D01*
X1372676Y427180D01*
X1372623Y427374D01*
X1372430Y427780D01*
X1372341Y428009D01*
X1372218Y428309D01*
X1372165Y428503D01*
X1372006Y428873D01*
X1371953Y429067D01*
X1371883Y429243D01*
X1371724Y429508D01*
X1371671Y429807D01*
X1371636Y429948D01*
X1371548Y430072D01*
X1371407Y430213D01*
X1371301Y430565D01*
X1371125Y430883D01*
X1371019Y431130D01*
X1370896Y431465D01*
X1370702Y431835D01*
X1370578Y432170D01*
X1370525Y432223D01*
X1370490Y432293D01*
X1370349Y432434D01*
X1370279Y432716D01*
X1370243Y432963D01*
X1370155Y433051D01*
X1370085Y433087D01*
X1370032Y433139D01*
X1369961Y433316D01*
X1369926Y433457D01*
X1369891Y433527D01*
X1369732Y433721D01*
X1369679Y433774D01*
X1369626Y433968D01*
X1369573Y434092D01*
X1369415Y434286D01*
X1369362Y434338D01*
X1369291Y434621D01*
X1369115Y434938D01*
X1368974Y435149D01*
X1368886Y435379D01*
X1368586Y435890D01*
X1368339Y436137D01*
X1368269Y436384D01*
X1368128Y436630D01*
X1368022Y436736D01*
X1367810Y437124D01*
X1367740Y437195D01*
X1367704Y437265D01*
X1367599Y437512D01*
X1367493Y437688D01*
X1367281Y437900D01*
X1367211Y438076D01*
X1367034Y438394D01*
X1366893Y438605D01*
X1366858Y438676D01*
X1366611Y438922D01*
X1366576Y438993D01*
X1366400Y439240D01*
X1366364Y439310D01*
X1366188Y439628D01*
X1366100Y439751D01*
X1366030Y439786D01*
X1365871Y440051D01*
X1365836Y440121D01*
X1365695Y440262D01*
X1365483Y440650D01*
X1365307Y440827D01*
X1365130Y441144D01*
X1365078Y441197D01*
X1365007Y441232D01*
X1364954Y441285D01*
X1364919Y441356D01*
X1364742Y441602D01*
X1364637Y441708D01*
X1364496Y441955D01*
X1364249Y442202D01*
X1364161Y442431D01*
X1363896Y442695D01*
X1363861Y442766D01*
X1363667Y442960D01*
X1363596Y442995D01*
X1363438Y443295D01*
X1363262Y443471D01*
X1363226Y443542D01*
X1362979Y443859D01*
X1362874Y443965D01*
X1362838Y444035D01*
X1362785Y444088D01*
X1362715Y444123D01*
X1362627Y444212D01*
X1362592Y444282D01*
X1362362Y444582D01*
X1362292Y444617D01*
X1362168Y444741D01*
X1362133Y444811D01*
X1361886Y445058D01*
X1361851Y445128D01*
X1361692Y445322D01*
X1361622Y445358D01*
X1361463Y445516D01*
X1361428Y445587D01*
X1361357Y445657D01*
X1361322Y445728D01*
X1361252Y445798D01*
X1361216Y445869D01*
X1361058Y446028D01*
X1360987Y446063D01*
X1360705Y446345D01*
X1360634Y446380D01*
X1360511Y446504D01*
X1360423Y446733D01*
X1360335Y446856D01*
X1360176Y447015D01*
X1360106Y447050D01*
X1360035Y447121D01*
X1359964Y447156D01*
X1359876Y447244D01*
X1359841Y447315D01*
X1359788Y447368D01*
X1359718Y447403D01*
X1359524Y447597D01*
X1359489Y447667D01*
X1359065Y448090D01*
X1359030Y448161D01*
X1358766Y448425D01*
X1358695Y448461D01*
X1358625Y448531D01*
X1358554Y448567D01*
X1358466Y448690D01*
X1358378Y448778D01*
X1358307Y448813D01*
X1358025Y449095D01*
X1357955Y449131D01*
X1357796Y449289D01*
X1357778Y449342D01*
X1357708Y449378D01*
X1357637Y449448D01*
X1357567Y449483D01*
X1357249Y449801D01*
X1357179Y449836D01*
X1357091Y449924D01*
X1357056Y449995D01*
X1356809Y450171D01*
X1356773Y450241D01*
X1356615Y450400D01*
X1356544Y450435D01*
X1356350Y450629D01*
X1356315Y450700D01*
X1356192Y450788D01*
X1355998Y450947D01*
X1355804Y451141D01*
X1355627Y451246D01*
X1354887Y451987D01*
X1354816Y452022D01*
X1354499Y452198D01*
X1354287Y452410D01*
X1354217Y452445D01*
X1354146Y452516D01*
X1354076Y452551D01*
X1354005Y452657D01*
X1353935Y452692D01*
X1353829Y452798D01*
X1353512Y452974D01*
X1353159Y453327D01*
X1353089Y453362D01*
X1352842Y453538D01*
X1352771Y453574D01*
X1352577Y453732D01*
X1352524Y453785D01*
X1352454Y453820D01*
X1352348Y453926D01*
X1352278Y453961D01*
X1352172Y454067D01*
X1352101Y454103D01*
X1351660Y454437D01*
X1351308Y454649D01*
X1351184Y454772D01*
X1350797Y454984D01*
X1350656Y455125D01*
X1350585Y455160D01*
X1350268Y455407D01*
X1350091Y455513D01*
X1349774Y455689D01*
X1349668Y455795D01*
X1349598Y455830D01*
X1349280Y456007D01*
X1349210Y456077D01*
X1349139Y456112D01*
X1348857Y456289D01*
X1348787Y456324D01*
X1348716Y456395D01*
X1348646Y456430D01*
X1348187Y456677D01*
X1348081Y456782D01*
X1347623Y457029D01*
X1347376Y457206D01*
X1347129Y457347D01*
X1347059Y457417D01*
X1346988Y457452D01*
X1346389Y457770D01*
X1346318Y457840D01*
X1345930Y458052D01*
X1345719Y458193D01*
X1345578Y458228D01*
X1345331Y458369D01*
X1345260Y458440D01*
X1345190Y458475D01*
X1344661Y458757D01*
X1343850Y459180D01*
X1343674Y459251D01*
X1343445Y459339D01*
X1343392Y459392D01*
X1342792Y459709D01*
X1342722Y459780D01*
X1342475Y459885D01*
X1342298Y459956D01*
X1342105Y460009D01*
X1341823Y460185D01*
X1341593Y460273D01*
X1341452Y460309D01*
X1341170Y460485D01*
X1340994Y460555D01*
X1340765Y460644D01*
X1340712Y460696D01*
X1340324Y460873D01*
X1340095Y460961D01*
X1339901Y461049D01*
X1339671Y461137D01*
X1339495Y461208D01*
X1339107Y461349D01*
X1338596Y461613D01*
X1338455Y461648D01*
X1338138Y461790D01*
X1337609Y462001D01*
X1337274Y462124D01*
X1337097Y462195D01*
X1336868Y462283D01*
X1336639Y462336D01*
X1336357Y462442D01*
X1335916Y462636D01*
X1335722Y462689D01*
X1335370Y462830D01*
X1335140Y462918D01*
X1334858Y462953D01*
X1334470Y463130D01*
X1334153Y463165D01*
X1333906Y463270D01*
X1333659Y463306D01*
X1333324Y463359D01*
X1333148Y463429D01*
X1333025Y463517D01*
X1332778Y463623D01*
X1332460Y463658D01*
X1332267Y463817D01*
X1332108Y463905D01*
X1331861Y463941D01*
X1331561Y463993D01*
X1331279Y464064D01*
X1331103Y464134D01*
X1330697Y464258D01*
X1330415Y464328D01*
X1329922Y464399D01*
X1329781Y464434D01*
X1329551Y464522D01*
X1329375Y464593D01*
X1329234Y464628D01*
X1329058Y464663D01*
X1328476Y464752D01*
X1328370Y464787D01*
X1328123Y464893D01*
X1327982Y464928D01*
X1327735Y464963D01*
X1327436Y465016D01*
X1327154Y465087D01*
X1326977Y465122D01*
X1326766Y465157D01*
X1326589Y465192D01*
X1326396Y465245D01*
X1326060Y465298D01*
X1325919Y465333D01*
X1325708Y465369D01*
X1325249Y465439D01*
X1324862Y465474D01*
X1324685Y465510D01*
X1324509Y465580D01*
X1324368Y465615D01*
X1323892Y465668D01*
X1323451Y465721D01*
X1323028Y465756D01*
X1322852Y465827D01*
X1322693Y465880D01*
X1322552Y465915D01*
X1322305Y465950D01*
X1321671Y465986D01*
X1321565Y466021D01*
X1320754Y466056D01*
X1320577Y466127D01*
X1320436Y466162D01*
X1320084Y466197D01*
X1319731Y466162D01*
X1319431Y466215D01*
X1319290Y466250D01*
X1319114Y466285D01*
X1317774Y466321D01*
X1317633Y466356D01*
X1317421Y466391D01*
X1314177Y466426D01*
X1314001Y466462D01*
X1313790Y466497D01*
X1313031Y466515D01*
X1312926Y466479D01*
X1312502Y466409D01*
X1309258Y466374D01*
X1309153Y466338D01*
X1309012Y466303D01*
X1307566Y466268D01*
X1307390Y466197D01*
X1306931Y466162D01*
X1306508Y466197D01*
X1306402Y466162D01*
X1306014Y466056D01*
X1305873Y466021D01*
X1305027Y465986D01*
X1304921Y465950D01*
X1304216Y465915D01*
X1303899Y465774D01*
X1303652Y465739D01*
X1303123Y465704D01*
X1303017Y465668D01*
X1302523Y465633D01*
X1302418Y465598D01*
X1302065Y465492D01*
X1301818Y465457D01*
X1301430Y465421D01*
X1301324Y465386D01*
X1300919Y465333D01*
X1300637Y465263D01*
X1300214Y465192D01*
X1299861Y465122D01*
X1299438Y465016D01*
X1299262Y464981D01*
X1298944Y464945D01*
X1298803Y464910D01*
X1298521Y464804D01*
X1298327Y464752D01*
X1298186Y464716D01*
X1297798Y464681D01*
X1297693Y464646D01*
X1297463Y464593D01*
X1297269Y464505D01*
X1297023Y464434D01*
X1296423Y464328D01*
X1296053Y464240D01*
X1295771Y464134D01*
X1295612Y464081D01*
X1295365Y464011D01*
X1295224Y463976D01*
X1294819Y463923D01*
X1294537Y463817D01*
X1294166Y463658D01*
X1293831Y463605D01*
X1293426Y463412D01*
X1293179Y463376D01*
X1292897Y463306D01*
X1292456Y463147D01*
X1292280Y463077D01*
X1291980Y462953D01*
X1291733Y462918D01*
X1291398Y462794D01*
X1291205Y462706D01*
X1290922Y462636D01*
X1290693Y462548D01*
X1290640Y462495D01*
X1290393Y462389D01*
X1290252Y462354D01*
X1290023Y462301D01*
X1289724Y462177D01*
X1289547Y462107D01*
X1289300Y462001D01*
X1288948Y461895D01*
X1288454Y461684D01*
X1288225Y461596D01*
X1288049Y461525D01*
X1287784Y461366D01*
X1287537Y461261D01*
X1287343Y461208D01*
X1286955Y461031D01*
X1286761Y460979D01*
X1286585Y460908D01*
X1286356Y460820D01*
X1286303Y460767D01*
X1286233Y460732D01*
X1285845Y460555D01*
X1285598Y460414D01*
X1285280Y460273D01*
X1285051Y460185D01*
X1284787Y459991D01*
X1284593Y459938D01*
X1284417Y459868D01*
X1284205Y459727D01*
X1284029Y459656D01*
X1283835Y459533D01*
X1283658Y459356D01*
X1283482Y459286D01*
X1283253Y459233D01*
X1283077Y459163D01*
X1282918Y459004D01*
X1282565Y458863D01*
X1282389Y458686D01*
X1282213Y458616D01*
X1281931Y458581D01*
X1281613Y458334D01*
X1281296Y458193D01*
X1281120Y458087D01*
X1280873Y457911D01*
X1280556Y457734D01*
X1280414Y457593D01*
X1280185Y457541D01*
X1280009Y457505D01*
X1279815Y457311D01*
X1279744Y457276D01*
X1279498Y457135D01*
X1279321Y456959D01*
X1279145Y456888D01*
X1278951Y456835D01*
X1278687Y456571D01*
X1278440Y456500D01*
X1278263Y456395D01*
X1278158Y456289D01*
X1278087Y456254D01*
X1277840Y456112D01*
X1277664Y455936D01*
X1277488Y455866D01*
X1277259Y455777D01*
X1277188Y455707D01*
X1277153Y455636D01*
X1277065Y455548D01*
X1276835Y455460D01*
X1276553Y455284D01*
X1276500Y455231D01*
X1276254Y455090D01*
X1276042Y454878D01*
X1275725Y454702D01*
X1275584Y454561D01*
X1275407Y454490D01*
X1275231Y454385D01*
X1275055Y454208D01*
X1274984Y454173D01*
X1274790Y454014D01*
X1274702Y453926D01*
X1274455Y453785D01*
X1274208Y453538D01*
X1274032Y453468D01*
X1273856Y453362D01*
X1273679Y453186D01*
X1273609Y453150D01*
X1273450Y452992D01*
X1273415Y452921D01*
X1273327Y452833D01*
X1272939Y452621D01*
X1272833Y452516D01*
X1272763Y452481D01*
X1272569Y452286D01*
X1272533Y452216D01*
X1272339Y452128D01*
X1272163Y452057D01*
X1271881Y451775D01*
X1271811Y451740D01*
X1271687Y451617D01*
X1271652Y451546D01*
X1271564Y451458D01*
X1271493Y451423D01*
X1271299Y451264D01*
X1271176Y451141D01*
X1271105Y451105D01*
X1271035Y451035D01*
X1270982Y451017D01*
X1270947Y450947D01*
X1270717Y450788D01*
X1270541Y450682D01*
X1270224Y450365D01*
X1270153Y450330D01*
X1270065Y450241D01*
X1270030Y450171D01*
X1269977Y450118D01*
X1269906Y450083D01*
X1269624Y449801D01*
X1269554Y449765D01*
X1269201Y449413D01*
X1269131Y449378D01*
X1268972Y449219D01*
X1268937Y449148D01*
X1268884Y449095D01*
X1268813Y449060D01*
X1268708Y448954D01*
X1268655Y448937D01*
X1268619Y448866D01*
X1268531Y448778D01*
X1268461Y448743D01*
X1268390Y448672D01*
X1268337Y448655D01*
X1268302Y448584D01*
X1268143Y448425D01*
X1268073Y448390D01*
X1267879Y448232D01*
X1267844Y448161D01*
X1267632Y447949D01*
X1267597Y447879D01*
X1267350Y447632D01*
X1267315Y447561D01*
X1267244Y447491D01*
X1267227Y447438D01*
X1267156Y447403D01*
X1267085Y447332D01*
X1267015Y447297D01*
X1266768Y447050D01*
X1266698Y447015D01*
X1266627Y446944D01*
X1266557Y446909D01*
X1266274Y446486D01*
X1266186Y446363D01*
X1266133Y446310D01*
X1266063Y446274D01*
X1265816Y446028D01*
X1265746Y445992D01*
X1265622Y445869D01*
X1265481Y445622D01*
X1265181Y445322D01*
X1265111Y445287D01*
X1264917Y445093D01*
X1264882Y445023D01*
X1264723Y444829D01*
X1264494Y444599D01*
X1264458Y444529D01*
X1264317Y444388D01*
X1264141Y444071D01*
X1263894Y443894D01*
X1263859Y443824D01*
X1263700Y443630D01*
X1263577Y443506D01*
X1263542Y443436D01*
X1263383Y443242D01*
X1263171Y443030D01*
X1262925Y442960D01*
X1262819Y442995D01*
X1255661Y442960D01*
X1255502Y442836D01*
X1255467Y442695D01*
X1255590Y442537D01*
X1255731Y442501D01*
X1255978Y442466D01*
X1262678Y442431D01*
X1262731Y442378D01*
X1262695Y442308D01*
X1262537Y442114D01*
X1262484Y442061D01*
X1262466Y442008D01*
X1262396Y441973D01*
X1262202Y441779D01*
X1262061Y441532D01*
X1261973Y441444D01*
X1261902Y441408D01*
X1261708Y441109D01*
X1261461Y440756D01*
X1261356Y440580D01*
X1261250Y440474D01*
X1261215Y440403D01*
X1261021Y440033D01*
X1260968Y440015D01*
X1260950Y439963D01*
X1260897Y439945D01*
X1260862Y439874D01*
X1260721Y439628D01*
X1260633Y439539D01*
X1260562Y439504D01*
X1260474Y439310D01*
X1260333Y439063D01*
X1260121Y438852D01*
X1259980Y438605D01*
X1259839Y438464D01*
X1259769Y438288D01*
X1259734Y438147D01*
X1259575Y437953D01*
X1259522Y437900D01*
X1259310Y437512D01*
X1259134Y437336D01*
X1259099Y437195D01*
X1258940Y437001D01*
X1258852Y436877D01*
X1258640Y436489D01*
X1258499Y436278D01*
X1258446Y436084D01*
X1258323Y435890D01*
X1258147Y435714D01*
X1258076Y435467D01*
X1257970Y435290D01*
X1257794Y435044D01*
X1257759Y434903D01*
X1257653Y434726D01*
X1257547Y434621D01*
X1257477Y434444D01*
X1257389Y434215D01*
X1257300Y434092D01*
X1257247Y434039D01*
X1257195Y434021D01*
X1257159Y433951D01*
X1257018Y433598D01*
X1256877Y433351D01*
X1256666Y432893D01*
X1256613Y432699D01*
X1256454Y432399D01*
X1256384Y432223D01*
X1256348Y432152D01*
X1256190Y431958D01*
X1256137Y431905D01*
X1256084Y431570D01*
X1256013Y431394D01*
X1255819Y431200D01*
X1255749Y430953D01*
X1255573Y430636D01*
X1255502Y430565D01*
X1255432Y430283D01*
X1255361Y430107D01*
X1255114Y429578D01*
X1255061Y429349D01*
X1254956Y429067D01*
X1254797Y428802D01*
X1254744Y428608D01*
X1254709Y428397D01*
X1254673Y428256D01*
X1254621Y428203D01*
X1254585Y428132D01*
X1254444Y427991D01*
X1254374Y427709D01*
X1254321Y427515D01*
X1254197Y427321D01*
X1254092Y427075D01*
X1254056Y426757D01*
X1253880Y426475D01*
X1253845Y426264D01*
X1253704Y425911D01*
X1253669Y425770D01*
X1253616Y425541D01*
X1253580Y425364D01*
X1253404Y424906D01*
X1253298Y424483D01*
X1253228Y424306D01*
X1253175Y424254D01*
X1253104Y424077D01*
X1253069Y423830D01*
X1253034Y423689D01*
X1252999Y423372D01*
X1252752Y422843D01*
X1252716Y422491D01*
X1252663Y422261D01*
X1252593Y422085D01*
X1252470Y421785D01*
X1252434Y421644D01*
X1252381Y421309D01*
X1252346Y421168D01*
X1252276Y420710D01*
X1252205Y420533D01*
X1252117Y420304D01*
X1252082Y420057D01*
X1252046Y419916D01*
X1252011Y419670D01*
X1251976Y419529D01*
X1251941Y418964D01*
X1251870Y418788D01*
X1251782Y418559D01*
X1251747Y418418D01*
X1251712Y418065D01*
X1251659Y417589D01*
X1251623Y417237D01*
X1251482Y416919D01*
X1251447Y416778D01*
X1251412Y416284D01*
X1251376Y416179D01*
X1251341Y416038D01*
X1251306Y415191D01*
X1251235Y415121D01*
X1251165Y414944D01*
X1251182Y414222D01*
X1251147Y414081D01*
X1251059Y413781D01*
X1251024Y413640D01*
X1250989Y412406D01*
X1250953Y412300D01*
X1250918Y412159D01*
X1250936Y409250D01*
X1250777Y408950D01*
X1250742Y408809D01*
X1250777Y408527D01*
X1250883Y408280D01*
X1250918Y408139D01*
X1250953Y405036D01*
X1251024Y404860D01*
X1251059Y404719D01*
X1251024Y404472D01*
X1251059Y404366D01*
X1251024Y404119D01*
X1250971Y404066D01*
X1250795Y403996D01*
X1250548Y403961D01*
X1250230Y403925D01*
X1249948Y403749D01*
X1249596Y403714D01*
X1249384Y403679D01*
X1248855Y403432D01*
X1248608Y403361D01*
X1248273Y403238D01*
X1248221Y403185D01*
X1247974Y403079D01*
X1247745Y402991D01*
X1247586Y402832D01*
X1247515Y402797D01*
X1247269Y402691D01*
X1247022Y402550D01*
X1246951Y402480D01*
X1246881Y402444D01*
X1246634Y402303D01*
X1246458Y402127D01*
X1246140Y401951D01*
X1245964Y401774D01*
X1245717Y401633D01*
X1245594Y401545D01*
X1245558Y401475D01*
X1245470Y401386D01*
X1245400Y401351D01*
X1245206Y401193D01*
X1244977Y400963D01*
X1244730Y400858D01*
X1244659Y400893D01*
X1244606Y400946D01*
X1244624Y401739D01*
X1244571Y402074D01*
X1244430Y402391D01*
X1244395Y403767D01*
X1244359Y403872D01*
X1244324Y404119D01*
X1244289Y404260D01*
X1244254Y405212D01*
X1244289Y405318D01*
X1244254Y405530D01*
X1244113Y405741D01*
X1244077Y405882D01*
X1244113Y412653D01*
X1244254Y412864D01*
X1244289Y413005D01*
X1244324Y414098D01*
X1244359Y414204D01*
X1244395Y414451D01*
X1244430Y414592D01*
X1244465Y415474D01*
X1244606Y415791D01*
X1244641Y416249D01*
X1244677Y416813D01*
X1244712Y416919D01*
X1244747Y417483D01*
X1244818Y417660D01*
X1244888Y417942D01*
X1244924Y418435D01*
X1244994Y418612D01*
X1245029Y419105D01*
X1245065Y419211D01*
X1245135Y419493D01*
X1245188Y419899D01*
X1245294Y420428D01*
X1245382Y420727D01*
X1245417Y420974D01*
X1245452Y421115D01*
X1245558Y421785D01*
X1245664Y422032D01*
X1245699Y422173D01*
X1245752Y422508D01*
X1245788Y422720D01*
X1245823Y422896D01*
X1245964Y423249D01*
X1246017Y423443D01*
X1246052Y423584D01*
X1246140Y423989D01*
X1246175Y424130D01*
X1246264Y424324D01*
X1246334Y424571D01*
X1246369Y424712D01*
X1246422Y425012D01*
X1246458Y425153D01*
X1246793Y426228D01*
X1246863Y426475D01*
X1246916Y426704D01*
X1246986Y426881D01*
X1247110Y427180D01*
X1247145Y427321D01*
X1247198Y427551D01*
X1247233Y427692D01*
X1247427Y428168D01*
X1247480Y428362D01*
X1247515Y428503D01*
X1247586Y428679D01*
X1247639Y428732D01*
X1247709Y428908D01*
X1247780Y429155D01*
X1247833Y429349D01*
X1247921Y429543D01*
X1248027Y429790D01*
X1248062Y429931D01*
X1248150Y430160D01*
X1248221Y430336D01*
X1248309Y430495D01*
X1248379Y430671D01*
X1248573Y431218D01*
X1248732Y431517D01*
X1248802Y431764D01*
X1248838Y431905D01*
X1248926Y432135D01*
X1248979Y432188D01*
X1249014Y432258D01*
X1249402Y433069D01*
X1249525Y433404D01*
X1249684Y433668D01*
X1249772Y433898D01*
X1249843Y434074D01*
X1250054Y434427D01*
X1250142Y434656D01*
X1250195Y434850D01*
X1250266Y435026D01*
X1250319Y435079D01*
X1250354Y435149D01*
X1250636Y435678D01*
X1250812Y435925D01*
X1250848Y436137D01*
X1250989Y436384D01*
X1251059Y436454D01*
X1251094Y436525D01*
X1251306Y436912D01*
X1251553Y437441D01*
X1251588Y437512D01*
X1251729Y437759D01*
X1251941Y438147D01*
X1252011Y438217D01*
X1252046Y438288D01*
X1252117Y438358D01*
X1252188Y438535D01*
X1252329Y438781D01*
X1252470Y438993D01*
X1252558Y439222D01*
X1252611Y439275D01*
X1252646Y439346D01*
X1252716Y439416D01*
X1252752Y439487D01*
X1252822Y439557D01*
X1253034Y439945D01*
X1253210Y440227D01*
X1253386Y440545D01*
X1253527Y440756D01*
X1253704Y441073D01*
X1253774Y441144D01*
X1253810Y441214D01*
X1253880Y441285D01*
X1254021Y441532D01*
X1254092Y441602D01*
X1254127Y441673D01*
X1254303Y441990D01*
X1254374Y442061D01*
X1254409Y442131D01*
X1254515Y442237D01*
X1254550Y442308D01*
X1254779Y442643D01*
X1254832Y442695D01*
X1255044Y443083D01*
X1255220Y443260D01*
X1255361Y443506D01*
X1255432Y443577D01*
X1255467Y443647D01*
X1255537Y443718D01*
X1255643Y443894D01*
X1255802Y444088D01*
X1255855Y444141D01*
X1255996Y444388D01*
X1256066Y444459D01*
X1256102Y444529D01*
X1256172Y444599D01*
X1256207Y444670D01*
X1256454Y444987D01*
X1256595Y445199D01*
X1256630Y445270D01*
X1256789Y445463D01*
X1256842Y445516D01*
X1256877Y445587D01*
X1256948Y445657D01*
X1256983Y445728D01*
X1257124Y445869D01*
X1257159Y445939D01*
X1257230Y446010D01*
X1257265Y446081D01*
X1257424Y446274D01*
X1257582Y446433D01*
X1257618Y446504D01*
X1257776Y446698D01*
X1257900Y446821D01*
X1258041Y447068D01*
X1258358Y447385D01*
X1258393Y447456D01*
X1258570Y447632D01*
X1258605Y447703D01*
X1258676Y447773D01*
X1258711Y447844D01*
X1258923Y448055D01*
X1258958Y448126D01*
X1259116Y448320D01*
X1259310Y448514D01*
X1259346Y448584D01*
X1259504Y448778D01*
X1259557Y448831D01*
X1259592Y448901D01*
X1259857Y449166D01*
X1259927Y449201D01*
X1260051Y449325D01*
X1260086Y449395D01*
X1260262Y449571D01*
X1260298Y449642D01*
X1260368Y449712D01*
X1260403Y449783D01*
X1260492Y449871D01*
X1260562Y449906D01*
X1260686Y450030D01*
X1260721Y450100D01*
X1260827Y450206D01*
X1260862Y450277D01*
X1260968Y450382D01*
X1261003Y450453D01*
X1261197Y450647D01*
X1261267Y450682D01*
X1261620Y451035D01*
X1261691Y451070D01*
X1261779Y451194D01*
X1261920Y451334D01*
X1261955Y451405D01*
X1262114Y451599D01*
X1262466Y451952D01*
X1262537Y451987D01*
X1262625Y452075D01*
X1262660Y452146D01*
X1262784Y452269D01*
X1262854Y452304D01*
X1263048Y452463D01*
X1263083Y452533D01*
X1263207Y452621D01*
X1263365Y452745D01*
X1263401Y452816D01*
X1263454Y452868D01*
X1263506Y452886D01*
X1263524Y452939D01*
X1263595Y452974D01*
X1263912Y453292D01*
X1263982Y453327D01*
X1264035Y453380D01*
X1264071Y453450D01*
X1264141Y453521D01*
X1264176Y453591D01*
X1264353Y453768D01*
X1264388Y453838D01*
X1264476Y453926D01*
X1264864Y454138D01*
X1265146Y454420D01*
X1265199Y454437D01*
X1265217Y454490D01*
X1265287Y454526D01*
X1265534Y454772D01*
X1265604Y454808D01*
X1265693Y454931D01*
X1265781Y455019D01*
X1265851Y455055D01*
X1266133Y455337D01*
X1266204Y455372D01*
X1266521Y455689D01*
X1266592Y455725D01*
X1266839Y455971D01*
X1267156Y456148D01*
X1267227Y456218D01*
X1267297Y456254D01*
X1267615Y456571D01*
X1267685Y456606D01*
X1267826Y456747D01*
X1267896Y456782D01*
X1267949Y456835D01*
X1267967Y456888D01*
X1268038Y456923D01*
X1268143Y457029D01*
X1268390Y457170D01*
X1268708Y457417D01*
X1268954Y457664D01*
X1269342Y457876D01*
X1269519Y458052D01*
X1269589Y458087D01*
X1269695Y458193D01*
X1269765Y458228D01*
X1269836Y458299D01*
X1269906Y458334D01*
X1270153Y458510D01*
X1270294Y458651D01*
X1270365Y458686D01*
X1270612Y458863D01*
X1270682Y458898D01*
X1270753Y458969D01*
X1270823Y459004D01*
X1271317Y459356D01*
X1271387Y459392D01*
X1271564Y459568D01*
X1271634Y459603D01*
X1271705Y459674D01*
X1272093Y459885D01*
X1272163Y459956D01*
X1272234Y459991D01*
X1272569Y460220D01*
X1272622Y460273D01*
X1272692Y460309D01*
X1272763Y460379D01*
X1273009Y460520D01*
X1273080Y460591D01*
X1273150Y460626D01*
X1273221Y460696D01*
X1273468Y460838D01*
X1273715Y461014D01*
X1273944Y461102D01*
X1274138Y461225D01*
X1274244Y461331D01*
X1274702Y461578D01*
X1274808Y461684D01*
X1275125Y461860D01*
X1275372Y462036D01*
X1275725Y462177D01*
X1275830Y462283D01*
X1275901Y462318D01*
X1275971Y462389D01*
X1276359Y462601D01*
X1276536Y462706D01*
X1276853Y462883D01*
X1276924Y462953D01*
X1276994Y462989D01*
X1277170Y463094D01*
X1277400Y463182D01*
X1277664Y463341D01*
X1278122Y463588D01*
X1278193Y463658D01*
X1278263Y463694D01*
X1278440Y463764D01*
X1278828Y463976D01*
X1279286Y464187D01*
X1279956Y464540D01*
X1280203Y464716D01*
X1280379Y464787D01*
X1280608Y464875D01*
X1280820Y465016D01*
X1281208Y465157D01*
X1281384Y465228D01*
X1281437Y465280D01*
X1282072Y465563D01*
X1282601Y465809D01*
X1283412Y466197D01*
X1283553Y466232D01*
X1284152Y466515D01*
X1284346Y466567D01*
X1284540Y466691D01*
X1284857Y466832D01*
X1285051Y466885D01*
X1285280Y466973D01*
X1285668Y467149D01*
X1285898Y467238D01*
X1286409Y467467D01*
X1286620Y467502D01*
X1286797Y467572D01*
X1287026Y467661D01*
X1287202Y467731D01*
X1287396Y467819D01*
X1287625Y467907D01*
X1288031Y468101D01*
X1288260Y468154D01*
X1288401Y468190D01*
X1288578Y468225D01*
X1288983Y468419D01*
X1289177Y468472D01*
X1289318Y468507D01*
X1289512Y468560D01*
X1289653Y468595D01*
X1289882Y468683D01*
X1290252Y468842D01*
X1290535Y468912D01*
X1290728Y468965D01*
X1290905Y469036D01*
X1291099Y469124D01*
X1291381Y469194D01*
X1291610Y469247D01*
X1291892Y469353D01*
X1292033Y469388D01*
X1292192Y469441D01*
X1292615Y469547D01*
X1292950Y469600D01*
X1293126Y469635D01*
X1293514Y469812D01*
X1293673Y469865D01*
X1293920Y469900D01*
X1294255Y469953D01*
X1294625Y470111D01*
X1294872Y470182D01*
X1295207Y470235D01*
X1295383Y470270D01*
X1295577Y470358D01*
X1295824Y470429D01*
X1296176Y470464D01*
X1296282Y470499D01*
X1296423Y470534D01*
X1296846Y470605D01*
X1297128Y470640D01*
X1297305Y470711D01*
X1297446Y470746D01*
X1297622Y470816D01*
X1297816Y470869D01*
X1298028Y470905D01*
X1298504Y470958D01*
X1298786Y470993D01*
X1299103Y471134D01*
X1299244Y471169D01*
X1299650Y471222D01*
X1300038Y471257D01*
X1300249Y471293D01*
X1300531Y471398D01*
X1300672Y471434D01*
X1301395Y471522D01*
X1301871Y471575D01*
X1302065Y471628D01*
X1302594Y471663D01*
X1302700Y471698D01*
X1302841Y471733D01*
X1303193Y471769D01*
X1303581Y471804D01*
X1303758Y471874D01*
X1304674Y471945D01*
X1304780Y471980D01*
X1305697Y472015D01*
X1305944Y472121D01*
X1306226Y472192D01*
X1307460Y472227D01*
X1307566Y472262D01*
X1309012Y472298D01*
X1309188Y472403D01*
X1309241Y472456D01*
X1309276Y472668D01*
X1317615Y472685D01*
X1317651Y472474D01*
D02*
G37*
G36*
X1372905Y407310D02*
X1373329Y407240D01*
X1373434Y407275D01*
X1374034Y407240D01*
X1374140Y407205D01*
X1374281Y407169D01*
X1374528Y407099D01*
X1375092Y406958D01*
X1375339Y406922D01*
X1375533Y406870D01*
X1375832Y406711D01*
X1376079Y406640D01*
X1376414Y406517D01*
X1376873Y406341D01*
X1377278Y406182D01*
X1377507Y406094D01*
X1377877Y405935D01*
X1378195Y405759D01*
X1378512Y405618D01*
X1378741Y405530D01*
X1378794Y405477D01*
X1378865Y405442D01*
X1379112Y405265D01*
X1379358Y405124D01*
X1379570Y404983D01*
X1379746Y404877D01*
X1379887Y404736D01*
X1380346Y404490D01*
X1380804Y404031D01*
X1380875Y403996D01*
X1381122Y403855D01*
X1381192Y403784D01*
X1381263Y403749D01*
X1381474Y403537D01*
X1381545Y403502D01*
X1382056Y402991D01*
X1382091Y402920D01*
X1382250Y402726D01*
X1382479Y402497D01*
X1382550Y402321D01*
X1382514Y401686D01*
X1382408Y401439D01*
X1382391Y401281D01*
X1382408Y400699D01*
X1382373Y400593D01*
X1382303Y400099D01*
X1382338Y399817D01*
X1382126Y399359D01*
X1382091Y398724D01*
X1382056Y398618D01*
X1382021Y398266D01*
X1381968Y398001D01*
X1381827Y397790D01*
X1381774Y397596D01*
X1381739Y397349D01*
X1381703Y397208D01*
X1381668Y396961D01*
X1381633Y396609D01*
X1381492Y396291D01*
X1381439Y395921D01*
X1381404Y395780D01*
X1381368Y395462D01*
X1381333Y395286D01*
X1381263Y395110D01*
X1381227Y394969D01*
X1381192Y394793D01*
X1381157Y394581D01*
X1381104Y394387D01*
X1381069Y394246D01*
X1381016Y394017D01*
X1380963Y393823D01*
X1380892Y393541D01*
X1380822Y393294D01*
X1380716Y392941D01*
X1380645Y392659D01*
X1380593Y392395D01*
X1380557Y392254D01*
X1380487Y392077D01*
X1380399Y391778D01*
X1380363Y391637D01*
X1380275Y391266D01*
X1380222Y391143D01*
X1380081Y390826D01*
X1380046Y390685D01*
X1379993Y390455D01*
X1379958Y390314D01*
X1379887Y390138D01*
X1379799Y389944D01*
X1379764Y389803D01*
X1379693Y389556D01*
X1379641Y389327D01*
X1379500Y388974D01*
X1379464Y388833D01*
X1379288Y388375D01*
X1379217Y388093D01*
X1379041Y387705D01*
X1378988Y387511D01*
X1378918Y387229D01*
X1378636Y386629D01*
X1378547Y386400D01*
X1378318Y385889D01*
X1378142Y385501D01*
X1378071Y385219D01*
X1377983Y384990D01*
X1377684Y384408D01*
X1377560Y384073D01*
X1377331Y383562D01*
X1377243Y383332D01*
X1377066Y383050D01*
X1376978Y382856D01*
X1376925Y382663D01*
X1376449Y381763D01*
X1376167Y381235D01*
X1375956Y380776D01*
X1375885Y380600D01*
X1375638Y380212D01*
X1375550Y379983D01*
X1375497Y379859D01*
X1375321Y379577D01*
X1375233Y379348D01*
X1375180Y379295D01*
X1375145Y379225D01*
X1375074Y379154D01*
X1375039Y379084D01*
X1374898Y378872D01*
X1374863Y378801D01*
X1374686Y378519D01*
X1374369Y377920D01*
X1374122Y377462D01*
X1374052Y377391D01*
X1374016Y377320D01*
X1373875Y377109D01*
X1373734Y376862D01*
X1373664Y376791D01*
X1373487Y376474D01*
X1373311Y376227D01*
X1373135Y375910D01*
X1372958Y375663D01*
X1372923Y375593D01*
X1372782Y375346D01*
X1372623Y375152D01*
X1372482Y374940D01*
X1372394Y374817D01*
X1372324Y374746D01*
X1372112Y374358D01*
X1372006Y374253D01*
X1371971Y374182D01*
X1371901Y374112D01*
X1371759Y373865D01*
X1371689Y373794D01*
X1371654Y373724D01*
X1371319Y373283D01*
X1371072Y372895D01*
X1370913Y372736D01*
X1370878Y372666D01*
X1370525Y372172D01*
X1370490Y372102D01*
X1370384Y371996D01*
X1370349Y371925D01*
X1370243Y371820D01*
X1370208Y371749D01*
X1370137Y371679D01*
X1370102Y371608D01*
X1369961Y371467D01*
X1369926Y371396D01*
X1369591Y370956D01*
X1369503Y370832D01*
X1369291Y370621D01*
X1369256Y370550D01*
X1369185Y370480D01*
X1369150Y370409D01*
X1369009Y370268D01*
X1368974Y370198D01*
X1368903Y370127D01*
X1368868Y370056D01*
X1368709Y369863D01*
X1368551Y369704D01*
X1368515Y369633D01*
X1368357Y369439D01*
X1368233Y369316D01*
X1368198Y369245D01*
X1367951Y368928D01*
X1367599Y368576D01*
X1367563Y368505D01*
X1367458Y368399D01*
X1367422Y368329D01*
X1367105Y368011D01*
X1367070Y367941D01*
X1366858Y367729D01*
X1366823Y367659D01*
X1366752Y367588D01*
X1366717Y367518D01*
X1366664Y367465D01*
X1366594Y367430D01*
X1366506Y367306D01*
X1366118Y366918D01*
X1366082Y366848D01*
X1365836Y366601D01*
X1365800Y366530D01*
X1365677Y366407D01*
X1365606Y366372D01*
X1365130Y365896D01*
X1365095Y365825D01*
X1365025Y365755D01*
X1364989Y365684D01*
X1364372Y365067D01*
X1364302Y365032D01*
X1363984Y364714D01*
X1363914Y364679D01*
X1363561Y364327D01*
X1363491Y364291D01*
X1363438Y364238D01*
X1363403Y364168D01*
X1363350Y364115D01*
X1363279Y364080D01*
X1362539Y363339D01*
X1362468Y363304D01*
X1362292Y363128D01*
X1362221Y363092D01*
X1361974Y362845D01*
X1361904Y362810D01*
X1361516Y362422D01*
X1361445Y362387D01*
X1361093Y362034D01*
X1361022Y361999D01*
X1360634Y361611D01*
X1360564Y361576D01*
X1360282Y361294D01*
X1360211Y361259D01*
X1360035Y361082D01*
X1359964Y361047D01*
X1359718Y360871D01*
X1359647Y360836D01*
X1359577Y360765D01*
X1359506Y360730D01*
X1359118Y360342D01*
X1359048Y360307D01*
X1358942Y360201D01*
X1358871Y360166D01*
X1358801Y360095D01*
X1358730Y360060D01*
X1358395Y359831D01*
X1358166Y359602D01*
X1358096Y359566D01*
X1357919Y359390D01*
X1357602Y359214D01*
X1357426Y359037D01*
X1357355Y359002D01*
X1357249Y358896D01*
X1357179Y358861D01*
X1356932Y358685D01*
X1356862Y358649D01*
X1356668Y358491D01*
X1356509Y358332D01*
X1356262Y358191D01*
X1356192Y358120D01*
X1356121Y358085D01*
X1356051Y358015D01*
X1355980Y357979D01*
X1355486Y357627D01*
X1355310Y357521D01*
X1354464Y356922D01*
X1354287Y356816D01*
X1353935Y356569D01*
X1353864Y356534D01*
X1353406Y356216D01*
X1353335Y356181D01*
X1353265Y356111D01*
X1353194Y356075D01*
X1352983Y355934D01*
X1352665Y355758D01*
X1352560Y355652D01*
X1352031Y355370D01*
X1351960Y355300D01*
X1351643Y355123D01*
X1351572Y355053D01*
X1351502Y355018D01*
X1351114Y354806D01*
X1350761Y354559D01*
X1350303Y354312D01*
X1349915Y354101D01*
X1349668Y353924D01*
X1349439Y353836D01*
X1349245Y353748D01*
X1348998Y353713D01*
X1348892Y353748D01*
X1348646Y353819D01*
X1348416Y353871D01*
X1348240Y353907D01*
X1347817Y353942D01*
X1347676Y353977D01*
X1347623Y354030D01*
X1347552Y354065D01*
X1347447Y354171D01*
X1347376Y354207D01*
X1347059Y354524D01*
X1346988Y354559D01*
X1346706Y354841D01*
X1346636Y354876D01*
X1346530Y354982D01*
X1346477Y355000D01*
X1346442Y355070D01*
X1346230Y355282D01*
X1346107Y355511D01*
X1346036Y355546D01*
X1345684Y355899D01*
X1345613Y355934D01*
X1345454Y356093D01*
X1345419Y356163D01*
X1345296Y356252D01*
X1345225Y356322D01*
X1345172Y356340D01*
X1345137Y356410D01*
X1345049Y356498D01*
X1344978Y356534D01*
X1344696Y356816D01*
X1344626Y356851D01*
X1344079Y357398D01*
X1344044Y357468D01*
X1343903Y357609D01*
X1343868Y357680D01*
X1343709Y357874D01*
X1343515Y358032D01*
X1343321Y358226D01*
X1343251Y358261D01*
X1342880Y358632D01*
X1342845Y358702D01*
X1342669Y358984D01*
X1342634Y359055D01*
X1342598Y359161D01*
X1342634Y359478D01*
X1342704Y359549D01*
X1342810Y359795D01*
X1342845Y360042D01*
X1342898Y360236D01*
X1342951Y360289D01*
X1342986Y360360D01*
X1343092Y360465D01*
X1343162Y360642D01*
X1343251Y360871D01*
X1343445Y361065D01*
X1343515Y361347D01*
X1343550Y361629D01*
X1343727Y362017D01*
X1343762Y362158D01*
X1343797Y362405D01*
X1343868Y362687D01*
X1344009Y363004D01*
X1344291Y363886D01*
X1344344Y364080D01*
X1344538Y364485D01*
X1344643Y364873D01*
X1344679Y365014D01*
X1344731Y365279D01*
X1344820Y365472D01*
X1344908Y365702D01*
X1345084Y365984D01*
X1345137Y366178D01*
X1345172Y366530D01*
X1345208Y366742D01*
X1345278Y366918D01*
X1345243Y368999D01*
X1345208Y369104D01*
X1345172Y369351D01*
X1345137Y369492D01*
X1345102Y369704D01*
X1344926Y370092D01*
X1344890Y370233D01*
X1344855Y370586D01*
X1344784Y370762D01*
X1344714Y370832D01*
X1344679Y370903D01*
X1344608Y370973D01*
X1344555Y371203D01*
X1344520Y371344D01*
X1344397Y371538D01*
X1344291Y371714D01*
X1344256Y372066D01*
X1344185Y372313D01*
X1344150Y372454D01*
X1344115Y372807D01*
X1343868Y373336D01*
X1343762Y373829D01*
X1343586Y374076D01*
X1343515Y374253D01*
X1343374Y374500D01*
X1343268Y374605D01*
X1343198Y374782D01*
X1343109Y375011D01*
X1343021Y375134D01*
X1342916Y375240D01*
X1342739Y375557D01*
X1342581Y375751D01*
X1342440Y376104D01*
X1342298Y376315D01*
X1342246Y376368D01*
X1342034Y376756D01*
X1341893Y376897D01*
X1341823Y377074D01*
X1341770Y377338D01*
X1341717Y377462D01*
X1341646Y377532D01*
X1341611Y377603D01*
X1341470Y377849D01*
X1341399Y377920D01*
X1341364Y377990D01*
X1340747Y378607D01*
X1340677Y378643D01*
X1340077Y378925D01*
X1339936Y378960D01*
X1339478Y378925D01*
X1339372Y378890D01*
X1339125Y378854D01*
X1338138Y378890D01*
X1337961Y378960D01*
X1337820Y378995D01*
X1337538Y379101D01*
X1337327Y379242D01*
X1337133Y379295D01*
X1336904Y379383D01*
X1336692Y379524D01*
X1336516Y379595D01*
X1336181Y379718D01*
X1336057Y379806D01*
X1335987Y379877D01*
X1335916Y379912D01*
X1335669Y380018D01*
X1335352Y380194D01*
X1335176Y380265D01*
X1334841Y380388D01*
X1334717Y380476D01*
X1334506Y380617D01*
X1334365Y380653D01*
X1334118Y380829D01*
X1334047Y380864D01*
X1333801Y380970D01*
X1333624Y381040D01*
X1333095Y381287D01*
X1332813Y381393D01*
X1332637Y381569D01*
X1332390Y381675D01*
X1332002Y381887D01*
X1331826Y381957D01*
X1331597Y382046D01*
X1331420Y382116D01*
X1331156Y382275D01*
X1330962Y382328D01*
X1330821Y382363D01*
X1330697Y382416D01*
X1330451Y382592D01*
X1330274Y382663D01*
X1330080Y382715D01*
X1329869Y382856D01*
X1329816Y382909D01*
X1329640Y382980D01*
X1329252Y383121D01*
X1328723Y383368D01*
X1328476Y383438D01*
X1328247Y383491D01*
X1328070Y383562D01*
X1327876Y383650D01*
X1327436Y383809D01*
X1327242Y383861D01*
X1327101Y383897D01*
X1326748Y384002D01*
X1325955Y384020D01*
X1325532Y383985D01*
X1325391Y383950D01*
X1325267Y383861D01*
X1325161Y383756D01*
X1324915Y383615D01*
X1324862Y383562D01*
X1324685Y383244D01*
X1324579Y383068D01*
X1324509Y382821D01*
X1324474Y382398D01*
X1324297Y382010D01*
X1324333Y381834D01*
X1324509Y381446D01*
X1324544Y381058D01*
X1324703Y380864D01*
X1324826Y380741D01*
X1324862Y380670D01*
X1324950Y380582D01*
X1325020Y380547D01*
X1325144Y380423D01*
X1325179Y380353D01*
X1325338Y380194D01*
X1325391Y380177D01*
X1325426Y380106D01*
X1325567Y379789D01*
X1325602Y379648D01*
X1325637Y379436D01*
X1325796Y379242D01*
X1326043Y379136D01*
X1326607Y379101D01*
X1326854Y378925D01*
X1327083Y378766D01*
X1327118Y378696D01*
X1327189Y378519D01*
X1327224Y378378D01*
X1327154Y378202D01*
X1327118Y378026D01*
X1327224Y377849D01*
X1327312Y377761D01*
X1327453Y377726D01*
X1327947Y377691D01*
X1328017Y377620D01*
X1328070Y377603D01*
X1328141Y377426D01*
X1328194Y377021D01*
X1328335Y376880D01*
X1328670Y376756D01*
X1328970Y376668D01*
X1329146Y376562D01*
X1329234Y376474D01*
X1329340Y376298D01*
X1329428Y376210D01*
X1329675Y376069D01*
X1329781Y375963D01*
X1330221Y375734D01*
X1330292Y375557D01*
X1330327Y375311D01*
X1330415Y375187D01*
X1330733Y375046D01*
X1330909Y374976D01*
X1331226Y374799D01*
X1331491Y374535D01*
X1331526Y374464D01*
X1331632Y374358D01*
X1331667Y374288D01*
X1332073Y373882D01*
X1332143Y373847D01*
X1332214Y373777D01*
X1332284Y373741D01*
X1332355Y373671D01*
X1332531Y373600D01*
X1332690Y373689D01*
X1332725Y373935D01*
X1332690Y374147D01*
X1332619Y374217D01*
X1332584Y374288D01*
X1332284Y374588D01*
X1332214Y374623D01*
X1331896Y374940D01*
X1331826Y374976D01*
X1331773Y375028D01*
X1331738Y375099D01*
X1331614Y375222D01*
X1331544Y375258D01*
X1331473Y375328D01*
X1331403Y375363D01*
X1331315Y375452D01*
X1331297Y375504D01*
X1331226Y375540D01*
X1330874Y375892D01*
X1330803Y375928D01*
X1330486Y376245D01*
X1330415Y376280D01*
X1329851Y376844D01*
X1329781Y376880D01*
X1329463Y377197D01*
X1329393Y377232D01*
X1329040Y377585D01*
X1328864Y377691D01*
X1328758Y377797D01*
X1328687Y377832D01*
X1328353Y378061D01*
X1328088Y378325D01*
X1328017Y378361D01*
X1327489Y378890D01*
X1327418Y378925D01*
X1327259Y379084D01*
X1327224Y379154D01*
X1327101Y379277D01*
X1326924Y379383D01*
X1326836Y379471D01*
X1326801Y379542D01*
X1326748Y379595D01*
X1326678Y379630D01*
X1326572Y379736D01*
X1326501Y379771D01*
X1326290Y379983D01*
X1326219Y380018D01*
X1326131Y380106D01*
X1326096Y380177D01*
X1326043Y380229D01*
X1325972Y380265D01*
X1325655Y380441D01*
X1325567Y380529D01*
X1325532Y380600D01*
X1325479Y380653D01*
X1325408Y380688D01*
X1325285Y380811D01*
X1325214Y381058D01*
X1325249Y381235D01*
X1325338Y381323D01*
X1325585Y381393D01*
X1325726Y381428D01*
X1325902Y381534D01*
X1326043Y381569D01*
X1326325Y381534D01*
X1326572Y381358D01*
X1327065Y381182D01*
X1327224Y381023D01*
X1327259Y380952D01*
X1327401Y380811D01*
X1327436Y380741D01*
X1327506Y380670D01*
X1327718Y380282D01*
X1327859Y380071D01*
X1327947Y379842D01*
X1328123Y379560D01*
X1328264Y379348D01*
X1328441Y379277D01*
X1328635Y379330D01*
X1328793Y379348D01*
X1328881Y379260D01*
X1328917Y379119D01*
X1329005Y378890D01*
X1329093Y378766D01*
X1329357Y378607D01*
X1329886Y378572D01*
X1330010Y378449D01*
X1330045Y378202D01*
X1330010Y378096D01*
X1330045Y377990D01*
X1330080Y377920D01*
X1330239Y377761D01*
X1330415Y377691D01*
X1330680Y377708D01*
X1330821Y377673D01*
X1330927Y377567D01*
X1330962Y377497D01*
X1331050Y377338D01*
X1331121Y377303D01*
X1331297Y377232D01*
X1331438Y377197D01*
X1331861Y377162D01*
X1331949Y377074D01*
X1331985Y376932D01*
X1332020Y376580D01*
X1332161Y376333D01*
X1332231Y376263D01*
X1332267Y376192D01*
X1332425Y375998D01*
X1332566Y376033D01*
X1332672Y376139D01*
X1332848Y376210D01*
X1333060Y376174D01*
X1333219Y376051D01*
X1333254Y375980D01*
X1333377Y375857D01*
X1333448Y375822D01*
X1333906Y375504D01*
X1333977Y375469D01*
X1334171Y375311D01*
X1334312Y375099D01*
X1334418Y374923D01*
X1334506Y374835D01*
X1334576Y374799D01*
X1334664Y374711D01*
X1334700Y374641D01*
X1334876Y374358D01*
X1334841Y374076D01*
X1334682Y373918D01*
X1334435Y373847D01*
X1334082Y373812D01*
X1333695Y373636D01*
X1333501Y373583D01*
X1333201Y373494D01*
X1333060Y373459D01*
X1332778Y373424D01*
X1332566Y373283D01*
X1332037Y373248D01*
X1331932Y373212D01*
X1331790Y373177D01*
X1331226Y373142D01*
X1331121Y373107D01*
X1330979Y373071D01*
X1330380Y373036D01*
X1330133Y372930D01*
X1329992Y372895D01*
X1329040Y372860D01*
X1328934Y372825D01*
X1328582Y372789D01*
X1328088Y372825D01*
X1327700Y372648D01*
X1326360Y372613D01*
X1326254Y372578D01*
X1326113Y372542D01*
X1324738Y372507D01*
X1324562Y372401D01*
X1324491Y372331D01*
X1324421Y372296D01*
X1324262Y372137D01*
X1324192Y371961D01*
X1324227Y371502D01*
X1324403Y371185D01*
X1324474Y371114D01*
X1324509Y371044D01*
X1324738Y370709D01*
X1324826Y370621D01*
X1324862Y370550D01*
X1324950Y370462D01*
X1325496Y370268D01*
X1325726Y370180D01*
X1325972Y370109D01*
X1326113Y370074D01*
X1326607Y370039D01*
X1326713Y370004D01*
X1326942Y369916D01*
X1327136Y369863D01*
X1327630Y369792D01*
X1327771Y369757D01*
X1328300Y369721D01*
X1328405Y369686D01*
X1328546Y369651D01*
X1328864Y369616D01*
X1329111Y369510D01*
X1329604Y369475D01*
X1329798Y369351D01*
X1329763Y369175D01*
X1329569Y369087D01*
X1328617Y369052D01*
X1328441Y368981D01*
X1328194Y368946D01*
X1326801Y368963D01*
X1326660Y368928D01*
X1326466Y368840D01*
X1326325Y368805D01*
X1323152Y368769D01*
X1322975Y368699D01*
X1321001Y368664D01*
X1320683Y368523D01*
X1319872Y368487D01*
X1319766Y368452D01*
X1319237Y368346D01*
X1319202D01*
X1319096Y368311D01*
X1318849Y368241D01*
X1318426Y368135D01*
X1318091Y368082D01*
X1317950Y368047D01*
X1317827Y367994D01*
X1317439Y367817D01*
X1317139Y367765D01*
X1316752Y367623D01*
X1316240Y367465D01*
X1316046Y367412D01*
X1315905Y367377D01*
X1315711Y367289D01*
X1315535Y367218D01*
X1315288Y367147D01*
X1314900Y367042D01*
X1314759Y367006D01*
X1314565Y366954D01*
X1314301Y366795D01*
X1313966Y366742D01*
X1313825Y366707D01*
X1313631Y366583D01*
X1313384Y366478D01*
X1313014Y366389D01*
X1312820Y366336D01*
X1312679Y366301D01*
X1312485Y366248D01*
X1312291Y366160D01*
X1312044Y366090D01*
X1311903Y366054D01*
X1311709Y366002D01*
X1311533Y365931D01*
X1311304Y365807D01*
X1311022Y365737D01*
X1310775Y365702D01*
X1310545Y365614D01*
X1310105Y365420D01*
X1309752Y365384D01*
X1309435Y365243D01*
X1309188Y365208D01*
X1308994Y365155D01*
X1308765Y365067D01*
X1308518Y365032D01*
X1307936Y364908D01*
X1307742Y364820D01*
X1307566Y364750D01*
X1307425Y364714D01*
X1306966Y364679D01*
X1306579Y364503D01*
X1306296Y364432D01*
X1305909Y364397D01*
X1305803Y364362D01*
X1305662Y364327D01*
X1305415Y364291D01*
X1305186Y364203D01*
X1304992Y364150D01*
X1304710Y364080D01*
X1304286Y364044D01*
X1304181Y364009D01*
X1303899Y363939D01*
X1303705Y363886D01*
X1303405Y363798D01*
X1302664Y363692D01*
X1302382Y363621D01*
X1302135Y363586D01*
X1301942Y363533D01*
X1301748Y363445D01*
X1301501Y363410D01*
X1301166Y363357D01*
X1300972Y363304D01*
X1300584Y363269D01*
X1300337Y363163D01*
X1299914Y363128D01*
X1299808Y363092D01*
X1299667Y363057D01*
X1299315Y363022D01*
X1299085Y362969D01*
X1298627Y362934D01*
X1298451Y362863D01*
X1298398Y362810D01*
X1298045Y362775D01*
X1297622Y362740D01*
X1297516Y362705D01*
X1297164Y362669D01*
X1296793Y362581D01*
X1296599Y362528D01*
X1296212Y362493D01*
X1296035Y362422D01*
X1295788Y362387D01*
X1295224Y362352D01*
X1295119Y362317D01*
X1294872Y362281D01*
X1294378Y362246D01*
X1294131Y362140D01*
X1293990Y362105D01*
X1292862Y362070D01*
X1292756Y362034D01*
X1292298Y362070D01*
X1292192Y362105D01*
X1289653Y362070D01*
X1289547Y362034D01*
X1289089Y361999D01*
X1288683Y362017D01*
X1288401Y361982D01*
X1288049Y361911D01*
X1287379Y361876D01*
X1287079Y361788D01*
X1286938Y361752D01*
X1286162Y361717D01*
X1286056Y361682D01*
X1285598Y361647D01*
X1285228Y361558D01*
X1285034Y361470D01*
X1284787Y361400D01*
X1284646Y361365D01*
X1284399Y361329D01*
X1284258Y361294D01*
X1284029Y361206D01*
X1283764Y361047D01*
X1283570Y360994D01*
X1283288Y360924D01*
X1283112Y360853D01*
X1282812Y360695D01*
X1282477Y360571D01*
X1282266Y360430D01*
X1282036Y360342D01*
X1281860Y360271D01*
X1281790Y360236D01*
X1281402Y360060D01*
X1281208Y360007D01*
X1280820Y359866D01*
X1280767Y359813D01*
X1280520Y359707D01*
X1280238Y359637D01*
X1279991Y359566D01*
X1279762Y359478D01*
X1279321Y359284D01*
X1279180Y359249D01*
X1279110Y359178D01*
X1279039Y359143D01*
X1278863Y359037D01*
X1278422Y358879D01*
X1278299Y358790D01*
X1278087Y358649D01*
X1277858Y358561D01*
X1277805Y358508D01*
X1277735Y358473D01*
X1277170Y358050D01*
X1276853Y357803D01*
X1276641Y357592D01*
X1276589Y357574D01*
X1276553Y357503D01*
X1276483Y357433D01*
X1276448Y357362D01*
X1276289Y357168D01*
X1276201Y357080D01*
X1276130Y356904D01*
X1276042Y356675D01*
X1275883Y356305D01*
X1275848Y356058D01*
X1275866Y354841D01*
X1275548Y354876D01*
X1275213Y355106D01*
X1275125Y355194D01*
X1274737Y355405D01*
X1274632Y355511D01*
X1274455Y355582D01*
X1274208Y355723D01*
X1274067Y355864D01*
X1273679Y356075D01*
X1273221Y356393D01*
X1273150Y356428D01*
X1272939Y356569D01*
X1272692Y356710D01*
X1272586Y356816D01*
X1272516Y356851D01*
X1272234Y357027D01*
X1272163Y357063D01*
X1272022Y357204D01*
X1271952Y357239D01*
X1271617Y357468D01*
X1271564Y357521D01*
X1271493Y357556D01*
X1271246Y357733D01*
X1271176Y357768D01*
X1271105Y357838D01*
X1271035Y357874D01*
X1270594Y358209D01*
X1270206Y358456D01*
X1270048Y358614D01*
X1269977Y358649D01*
X1269413Y359072D01*
X1269272Y359214D01*
X1269201Y359249D01*
X1268954Y359390D01*
X1268761Y359549D01*
X1268637Y359672D01*
X1268567Y359707D01*
X1268355Y359919D01*
X1268284Y359954D01*
X1267720Y360377D01*
X1267509Y360589D01*
X1267438Y360624D01*
X1267191Y360871D01*
X1267121Y360906D01*
X1266874Y361082D01*
X1266803Y361118D01*
X1266698Y361223D01*
X1266627Y361259D01*
X1266521Y361365D01*
X1266451Y361400D01*
X1266098Y361752D01*
X1266028Y361788D01*
X1265975Y361841D01*
X1265939Y361911D01*
X1265816Y361999D01*
X1265534Y362281D01*
X1265463Y362317D01*
X1265111Y362669D01*
X1265040Y362705D01*
X1264688Y363057D01*
X1264617Y363092D01*
X1264370Y363339D01*
X1264300Y363374D01*
X1264229Y363445D01*
X1264159Y363480D01*
X1264035Y363604D01*
X1264000Y363674D01*
X1263771Y363903D01*
X1263700Y363939D01*
X1263242Y364397D01*
X1263171Y364432D01*
X1262819Y364785D01*
X1262748Y364820D01*
X1262431Y365137D01*
X1262361Y365173D01*
X1262308Y365226D01*
X1262272Y365296D01*
X1262219Y365349D01*
X1262149Y365384D01*
X1261920Y365614D01*
X1261884Y365684D01*
X1261814Y365755D01*
X1261779Y365825D01*
X1261673Y365931D01*
X1261638Y366002D01*
X1261549Y366090D01*
X1261479Y366125D01*
X1261126Y366478D01*
X1261056Y366513D01*
X1261003Y366566D01*
X1260968Y366636D01*
X1260827Y366777D01*
X1260791Y366848D01*
X1260615Y367024D01*
X1260580Y367095D01*
X1260386Y367289D01*
X1260333Y367306D01*
X1260298Y367377D01*
X1260121Y367553D01*
X1260086Y367623D01*
X1259910Y367800D01*
X1259874Y367870D01*
X1259487Y368258D01*
X1259451Y368329D01*
X1259275Y368505D01*
X1259240Y368576D01*
X1259169Y368646D01*
X1259134Y368717D01*
X1259081Y368769D01*
X1259011Y368805D01*
X1258923Y368893D01*
X1258887Y368963D01*
X1258728Y369157D01*
X1258676Y369210D01*
X1258640Y369281D01*
X1258535Y369387D01*
X1258499Y369457D01*
X1258323Y369633D01*
X1258288Y369704D01*
X1258076Y369916D01*
X1258041Y369986D01*
X1257935Y370092D01*
X1257900Y370162D01*
X1257653Y370480D01*
X1257547Y370586D01*
X1257512Y370656D01*
X1257353Y370850D01*
X1257195Y371009D01*
X1257089Y371185D01*
X1256930Y371379D01*
X1256789Y371590D01*
X1256736Y371643D01*
X1256701Y371714D01*
X1256525Y371890D01*
X1256489Y371961D01*
X1256419Y372031D01*
X1256384Y372102D01*
X1256243Y372243D01*
X1256207Y372313D01*
X1255978Y372648D01*
X1255467Y373371D01*
X1255432Y373442D01*
X1255255Y373618D01*
X1255220Y373689D01*
X1254991Y374024D01*
X1254938Y374076D01*
X1254903Y374147D01*
X1254726Y374394D01*
X1254691Y374464D01*
X1254621Y374535D01*
X1254585Y374605D01*
X1254444Y374852D01*
X1254286Y375046D01*
X1254145Y375258D01*
X1253968Y375540D01*
X1253827Y375751D01*
X1253704Y375945D01*
X1253527Y376192D01*
X1253351Y376509D01*
X1253210Y376651D01*
X1252893Y377250D01*
X1252716Y377567D01*
X1252611Y377673D01*
X1252575Y377744D01*
X1252293Y378273D01*
X1252188Y378449D01*
X1251941Y378907D01*
X1251800Y379154D01*
X1251641Y379348D01*
X1251500Y379560D01*
X1251429Y379736D01*
X1251059Y380423D01*
X1250848Y380882D01*
X1250759Y381111D01*
X1250706Y381235D01*
X1250530Y381481D01*
X1250424Y381728D01*
X1250283Y381975D01*
X1250178Y382151D01*
X1250019Y382592D01*
X1249860Y382856D01*
X1249472Y383667D01*
X1249349Y384002D01*
X1249278Y384179D01*
X1249049Y384690D01*
X1248802Y385219D01*
X1248644Y385660D01*
X1248591Y385713D01*
X1248485Y385960D01*
X1248415Y386136D01*
X1248291Y386471D01*
X1248150Y386823D01*
X1248044Y387105D01*
X1247903Y387493D01*
X1247709Y387934D01*
X1247656Y388163D01*
X1247568Y388393D01*
X1247427Y388710D01*
X1247357Y388992D01*
X1247286Y389168D01*
X1247145Y389486D01*
X1247092Y389715D01*
X1247057Y389891D01*
X1246951Y390173D01*
X1246881Y390350D01*
X1246793Y390579D01*
X1246704Y390984D01*
X1246634Y391161D01*
X1246510Y391566D01*
X1246475Y391707D01*
X1246405Y391954D01*
X1246334Y392236D01*
X1246281Y392465D01*
X1246246Y392606D01*
X1246087Y393118D01*
X1246017Y393400D01*
X1245964Y393629D01*
X1245929Y393770D01*
X1245788Y394158D01*
X1245752Y394299D01*
X1245682Y394651D01*
X1245647Y394934D01*
X1245611Y395075D01*
X1245558Y395198D01*
X1245488Y395374D01*
X1245452Y395515D01*
X1245417Y395868D01*
X1245382Y395974D01*
X1245329Y396379D01*
X1245259Y396556D01*
X1245170Y396855D01*
X1245135Y397208D01*
X1245100Y397314D01*
X1245065Y397455D01*
X1245029Y397878D01*
X1244994Y397984D01*
X1244959Y398125D01*
X1244906Y398530D01*
X1244871Y398671D01*
X1244800Y399024D01*
X1244783Y399359D01*
X1244818Y399465D01*
X1244888Y399641D01*
X1245029Y399888D01*
X1245259Y400223D01*
X1245400Y400434D01*
X1245664Y400699D01*
X1245699Y400769D01*
X1245858Y400928D01*
X1245929Y400963D01*
X1246175Y401210D01*
X1246246Y401245D01*
X1246493Y401492D01*
X1246810Y401669D01*
X1246916Y401774D01*
X1247163Y401880D01*
X1247410Y402021D01*
X1247480Y402092D01*
X1247551Y402127D01*
X1247797Y402233D01*
X1248132Y402356D01*
X1248256Y402444D01*
X1248573Y402585D01*
X1248802Y402673D01*
X1248979Y402744D01*
X1249208Y402832D01*
X1249437Y402885D01*
X1249631Y402938D01*
X1249966Y402991D01*
X1250142Y403061D01*
X1250336Y403114D01*
X1250936Y403149D01*
X1251041Y403185D01*
X1251182Y403220D01*
X1253016Y403185D01*
X1253334Y403044D01*
X1253686Y403008D01*
X1253933Y402938D01*
X1254162Y402885D01*
X1254374Y402850D01*
X1254550Y402814D01*
X1254726Y402744D01*
X1254779Y402691D01*
X1254956Y402621D01*
X1255185Y402532D01*
X1255361Y402462D01*
X1255573Y402321D01*
X1255855Y402215D01*
X1256137Y402039D01*
X1256613Y401774D01*
X1256965Y401527D01*
X1257036Y401492D01*
X1257177Y401351D01*
X1257247Y401316D01*
X1257353Y401210D01*
X1257424Y401175D01*
X1257988Y400752D01*
X1258111Y400628D01*
X1258147Y400558D01*
X1258217Y400487D01*
X1258252Y400417D01*
X1258623Y400047D01*
X1258693Y400011D01*
X1259134Y399571D01*
X1259169Y399500D01*
X1259328Y399306D01*
X1259416Y399183D01*
X1259487Y399112D01*
X1259522Y399042D01*
X1259839Y398724D01*
X1259892Y398530D01*
X1259945Y398407D01*
X1259998Y398319D01*
X1260069Y398283D01*
X1260174Y398248D01*
X1260262Y398231D01*
X1260368Y398301D01*
X1260315Y398495D01*
X1260227Y398724D01*
X1260086Y398971D01*
X1260016Y399042D01*
X1259945Y399218D01*
X1259857Y399447D01*
X1259734Y399571D01*
X1259698Y399641D01*
X1259487Y400029D01*
X1259416Y400099D01*
X1259381Y400170D01*
X1259310Y400240D01*
X1259169Y400487D01*
X1259011Y400681D01*
X1258958Y400734D01*
X1258923Y400805D01*
X1258781Y400946D01*
X1258746Y401016D01*
X1258446Y401316D01*
X1258393Y401334D01*
X1258358Y401404D01*
X1258323Y401510D01*
X1258358Y401721D01*
X1258482Y401845D01*
X1258552Y401880D01*
X1258623Y401951D01*
X1258870Y402092D01*
X1258940Y402162D01*
X1259822Y402585D01*
X1260051Y402673D01*
X1260315Y402832D01*
X1260774Y403008D01*
X1261091Y403149D01*
X1261338Y403220D01*
X1261620Y403291D01*
X1261955Y403414D01*
X1262361Y403537D01*
X1262784Y403608D01*
X1263189Y403696D01*
X1263418Y403784D01*
X1263771Y403820D01*
X1263912Y403855D01*
X1264282Y403908D01*
X1264917Y403943D01*
X1265058Y403978D01*
X1265234Y404013D01*
X1265375Y404049D01*
X1266521Y404066D01*
X1266627Y404031D01*
X1266874Y404066D01*
X1267156Y404102D01*
X1267262Y404137D01*
X1267403Y404172D01*
X1267597Y404190D01*
X1267985Y404119D01*
X1268179Y404066D01*
X1269977Y404031D01*
X1270083Y403996D01*
X1270224Y403961D01*
X1270576Y403925D01*
X1271176Y403890D01*
X1271282Y403855D01*
X1271828Y403802D01*
X1271969Y403767D01*
X1272163Y403679D01*
X1272410Y403643D01*
X1272551Y403608D01*
X1272992Y403555D01*
X1273133Y403520D01*
X1273309Y403484D01*
X1273715Y403361D01*
X1273856Y403326D01*
X1274085Y403273D01*
X1274808Y403044D01*
X1274949Y403008D01*
X1275178Y402920D01*
X1275601Y402814D01*
X1275989Y402638D01*
X1276130Y402603D01*
X1276324Y402550D01*
X1276659Y402427D01*
X1276712Y402374D01*
X1277065Y402233D01*
X1277664Y401951D01*
X1277840Y401880D01*
X1278792Y401386D01*
X1279004Y401245D01*
X1279145Y401210D01*
X1279215Y401140D01*
X1279286Y401104D01*
X1279568Y400928D01*
X1279885Y400752D01*
X1279956Y400681D01*
X1280027Y400646D01*
X1280309Y400470D01*
X1280379Y400434D01*
X1280450Y400364D01*
X1280520Y400329D01*
X1280626Y400223D01*
X1280943Y400047D01*
X1281261Y399800D01*
X1281472Y399588D01*
X1281543Y399553D01*
X1281613Y399482D01*
X1281684Y399447D01*
X1281825Y399306D01*
X1281895Y399271D01*
X1282036Y399130D01*
X1282107Y399095D01*
X1282213Y398989D01*
X1282283Y398953D01*
X1282354Y398883D01*
X1282424Y398848D01*
X1282900Y398372D01*
X1282936Y398301D01*
X1283147Y398089D01*
X1283182Y398019D01*
X1283376Y397825D01*
X1283447Y397790D01*
X1283570Y397666D01*
X1283606Y397596D01*
X1283711Y397490D01*
X1283747Y397420D01*
X1283852Y397314D01*
X1283888Y397243D01*
X1284135Y396996D01*
X1284170Y396926D01*
X1284505Y396485D01*
X1284681Y396203D01*
X1284822Y395991D01*
X1285034Y395639D01*
X1285122Y395515D01*
X1285228Y395339D01*
X1285439Y394951D01*
X1285721Y394422D01*
X1285792Y394352D01*
X1285968Y393964D01*
X1286180Y393506D01*
X1286250Y393329D01*
X1286338Y393100D01*
X1286444Y392818D01*
X1286532Y392589D01*
X1286603Y392342D01*
X1286779Y391778D01*
X1286744Y391566D01*
X1286673Y391390D01*
X1286585Y391161D01*
X1286479Y390878D01*
X1286356Y390649D01*
X1286374Y390561D01*
X1286497Y390579D01*
X1286532Y390649D01*
X1286656Y390773D01*
X1286973Y390949D01*
X1287149Y391125D01*
X1287220Y391161D01*
X1287819Y391760D01*
X1287890Y391795D01*
X1288137Y392042D01*
X1288454Y392218D01*
X1288525Y392289D01*
X1288595Y392324D01*
X1288807Y392465D01*
X1289124Y392642D01*
X1289406Y392818D01*
X1289724Y392994D01*
X1289970Y393100D01*
X1290499Y393312D01*
X1290852Y393417D01*
X1291275Y393523D01*
X1291451Y393594D01*
X1291592Y393629D01*
X1291821Y393682D01*
X1291963Y393717D01*
X1292157Y393770D01*
X1292403Y393805D01*
X1292968Y393840D01*
X1293073Y393876D01*
X1293320Y393911D01*
X1295824Y393876D01*
X1295930Y393840D01*
X1296176Y393805D01*
X1296917Y393770D01*
X1297005Y393717D01*
X1297076Y393541D01*
X1297040Y393400D01*
X1296952Y393276D01*
X1296882Y393241D01*
X1296793Y393047D01*
X1296688Y392871D01*
X1296511Y392765D01*
X1296441Y392589D01*
X1296476Y392448D01*
X1296670Y392430D01*
X1296758Y392518D01*
X1296846Y392747D01*
X1296952Y392853D01*
X1297023Y392888D01*
X1297076Y392941D01*
X1297217Y393188D01*
X1297269Y393241D01*
X1297340Y393276D01*
X1297428Y393364D01*
X1297499Y393541D01*
X1297534Y393611D01*
X1297622Y393699D01*
X1297693Y393735D01*
X1297763Y393805D01*
X1297816Y393823D01*
X1297851Y393893D01*
X1297922Y393964D01*
X1297939Y394017D01*
X1298010Y394052D01*
X1298204Y394211D01*
X1298363Y394369D01*
X1298698Y394493D01*
X1298821Y394581D01*
X1298962Y394722D01*
X1299209Y394828D01*
X1299456Y394969D01*
X1299773Y395110D01*
X1299914Y395145D01*
X1300249Y395269D01*
X1300302Y395322D01*
X1300478Y395392D01*
X1300619Y395427D01*
X1300866Y395462D01*
X1301219Y395498D01*
X1301430Y395533D01*
X1301748Y395674D01*
X1303828Y395639D01*
X1304075Y395533D01*
X1304322Y395498D01*
X1304727Y395410D01*
X1304939Y395374D01*
X1305344Y395180D01*
X1305591Y395110D01*
X1306543Y394616D01*
X1307002Y394369D01*
X1307196Y394211D01*
X1307249Y394158D01*
X1307566Y393982D01*
X1307619Y393929D01*
X1307654Y393858D01*
X1307707Y393805D01*
X1307883Y393699D01*
X1307936Y393647D01*
X1307971Y393576D01*
X1308095Y393453D01*
X1308271Y393417D01*
X1308324Y393470D01*
X1308289Y393682D01*
X1308165Y393805D01*
X1308095Y393840D01*
X1307971Y393964D01*
X1307936Y394034D01*
X1307848Y394123D01*
X1307777Y394158D01*
X1307689Y394246D01*
X1307654Y394387D01*
X1307689Y394916D01*
X1307813Y395039D01*
X1307883Y395075D01*
X1307971Y395269D01*
X1308007Y395410D01*
X1308130Y395568D01*
X1308201Y395604D01*
X1308289Y395692D01*
X1308359Y395868D01*
X1308465Y396044D01*
X1308641Y396221D01*
X1308677Y396291D01*
X1308765Y396415D01*
X1308835Y396450D01*
X1309029Y396609D01*
X1309064Y396679D01*
X1309153Y396767D01*
X1309223Y396802D01*
X1309382Y396926D01*
X1309417Y396996D01*
X1309541Y397120D01*
X1309787Y397261D01*
X1309964Y397437D01*
X1310281Y397613D01*
X1310387Y397719D01*
X1310457Y397755D01*
X1310634Y397825D01*
X1310827Y397878D01*
X1311110Y398054D01*
X1311568Y398231D01*
X1311850Y398407D01*
X1312079Y398495D01*
X1312449Y398583D01*
X1312626Y398654D01*
X1312820Y398742D01*
X1312961Y398777D01*
X1313543Y398865D01*
X1313948Y398989D01*
X1314371Y399024D01*
X1314548Y399095D01*
X1314900Y399130D01*
X1317615Y399095D01*
X1317721Y399059D01*
X1317968Y398989D01*
X1318497Y398953D01*
X1318603Y398918D01*
X1318832Y398865D01*
X1319185Y398795D01*
X1319396Y398759D01*
X1319678Y398689D01*
X1320295Y398495D01*
X1320524Y398407D01*
X1320965Y398213D01*
X1321194Y398160D01*
X1321459Y398037D01*
X1322129Y397684D01*
X1322340Y397543D01*
X1322534Y397490D01*
X1322711Y397420D01*
X1322869Y397261D01*
X1322940Y397226D01*
X1323187Y397085D01*
X1323539Y396838D01*
X1323786Y396697D01*
X1323857Y396626D01*
X1323927Y396591D01*
X1324245Y396344D01*
X1324456Y396133D01*
X1324527Y396097D01*
X1324738Y395886D01*
X1324809Y395850D01*
X1324879Y395780D01*
X1324950Y395745D01*
X1325091Y395604D01*
X1325161Y395568D01*
X1325338Y395392D01*
X1325408Y395357D01*
X1325761Y395004D01*
X1325831Y394969D01*
X1325919Y394845D01*
X1326166Y394599D01*
X1326202Y394528D01*
X1326272Y394352D01*
X1326113Y394158D01*
X1325919Y393999D01*
X1325867Y393946D01*
X1325796Y393911D01*
X1325549Y393735D01*
X1325408Y393594D01*
X1325073Y393470D01*
X1324950Y393382D01*
X1324897Y393329D01*
X1324862Y393259D01*
X1324809Y393206D01*
X1324562Y393065D01*
X1324474Y392977D01*
X1324386Y392818D01*
X1324209Y392747D01*
X1324139Y392712D01*
X1324086Y392589D01*
X1324139Y392536D01*
X1324386Y392571D01*
X1324438Y392624D01*
X1324474Y392695D01*
X1324668Y392783D01*
X1324809Y392818D01*
X1325056Y393065D01*
X1325285Y393118D01*
X1325461Y393188D01*
X1325655Y393382D01*
X1325902Y393453D01*
X1326149Y393488D01*
X1326466Y393629D01*
X1326642Y393699D01*
X1326977Y393823D01*
X1327330Y393964D01*
X1327524Y394017D01*
X1327806Y394087D01*
X1328141Y394140D01*
X1328317Y394175D01*
X1328511Y394228D01*
X1328758Y394299D01*
X1329005Y394334D01*
X1329146Y394369D01*
X1329410Y394422D01*
X1332919Y394440D01*
X1333025Y394405D01*
X1333271Y394369D01*
X1333413Y394334D01*
X1333906Y394299D01*
X1334224Y394158D01*
X1334470Y394123D01*
X1334929Y394087D01*
X1335035Y394052D01*
X1335176Y394017D01*
X1335405Y393929D01*
X1335810Y393805D01*
X1335951Y393770D01*
X1336145Y393717D01*
X1336322Y393647D01*
X1336727Y393523D01*
X1336974Y393453D01*
X1337115Y393417D01*
X1337344Y393329D01*
X1337785Y393135D01*
X1337926Y393100D01*
X1338261Y393047D01*
X1338455Y392924D01*
X1338526Y392853D01*
X1338702Y392783D01*
X1338931Y392730D01*
X1339107Y392659D01*
X1339160Y392606D01*
X1339231Y392571D01*
X1339301Y392500D01*
X1339583Y392430D01*
X1339760Y392465D01*
X1339812Y392589D01*
X1339654Y392783D01*
X1339372Y392853D01*
X1339213Y392941D01*
X1339178Y393012D01*
X1339090Y393100D01*
X1338913Y393171D01*
X1338684Y393259D01*
X1338561Y393347D01*
X1338455Y393453D01*
X1338120Y393576D01*
X1337926Y393699D01*
X1337715Y393840D01*
X1337573Y393876D01*
X1337503Y393946D01*
X1337450Y393964D01*
X1337415Y394105D01*
X1337468Y394898D01*
X1337503Y395039D01*
X1337573Y395216D01*
X1337662Y395410D01*
X1337820Y395850D01*
X1337908Y396044D01*
X1338014Y396291D01*
X1338190Y396609D01*
X1338261Y396679D01*
X1338296Y396749D01*
X1338543Y397208D01*
X1338702Y397402D01*
X1338790Y397490D01*
X1338825Y397561D01*
X1339001Y397737D01*
X1339037Y397807D01*
X1339107Y397878D01*
X1339143Y397948D01*
X1339248Y398054D01*
X1339284Y398125D01*
X1339389Y398231D01*
X1339425Y398301D01*
X1339495Y398372D01*
X1339530Y398442D01*
X1339619Y398530D01*
X1339689Y398565D01*
X1340007Y398883D01*
X1340077Y398918D01*
X1340200Y399042D01*
X1340218Y399095D01*
X1340289Y399130D01*
X1340641Y399482D01*
X1340712Y399518D01*
X1340818Y399623D01*
X1340888Y399659D01*
X1340923Y399729D01*
X1340994Y399764D01*
X1341064Y399835D01*
X1341135Y399870D01*
X1341470Y400099D01*
X1341593Y400223D01*
X1341840Y400364D01*
X1341911Y400434D01*
X1341981Y400470D01*
X1342440Y400787D01*
X1342616Y400858D01*
X1342933Y401034D01*
X1343145Y401175D01*
X1343321Y401245D01*
X1343550Y401334D01*
X1343815Y401492D01*
X1344150Y401616D01*
X1344520Y401810D01*
X1344767Y401880D01*
X1344908Y401915D01*
X1345243Y402039D01*
X1345542Y402162D01*
X1345789Y402233D01*
X1346036Y402268D01*
X1346265Y402321D01*
X1346442Y402391D01*
X1346671Y402480D01*
X1347094Y402550D01*
X1347429Y402603D01*
X1348187Y402656D01*
X1348293Y402691D01*
X1348646Y402797D01*
X1351184Y402762D01*
X1351361Y402691D01*
X1351784Y402621D01*
X1352419Y402585D01*
X1352524Y402550D01*
X1352948Y402515D01*
X1353124Y402444D01*
X1353318Y402391D01*
X1353600Y402321D01*
X1353776Y402286D01*
X1354622Y402074D01*
X1354816Y401951D01*
X1354834Y401757D01*
X1354763Y401686D01*
X1354728Y401616D01*
X1354605Y401492D01*
X1354534Y401457D01*
X1354340Y401263D01*
X1354305Y401193D01*
X1354234Y401122D01*
X1354199Y401051D01*
X1354058Y400910D01*
X1354023Y400840D01*
X1353952Y400769D01*
X1353776Y400452D01*
X1353635Y400240D01*
X1353582Y400011D01*
X1353547Y399835D01*
X1353494Y399711D01*
X1353353Y399500D01*
X1353282Y399253D01*
X1353318Y398936D01*
X1353371Y398883D01*
X1353512Y398918D01*
X1353635Y399042D01*
X1353670Y399112D01*
X1353811Y399359D01*
X1353988Y399606D01*
X1354023Y399676D01*
X1354182Y399870D01*
X1354270Y399994D01*
X1354340Y400064D01*
X1354376Y400135D01*
X1354622Y400452D01*
X1354693Y400522D01*
X1354728Y400593D01*
X1354904Y400769D01*
X1354940Y400840D01*
X1355592Y401492D01*
X1355663Y401527D01*
X1355909Y401774D01*
X1355980Y401810D01*
X1356086Y401915D01*
X1356333Y402056D01*
X1356438Y402162D01*
X1356509Y402197D01*
X1356844Y402427D01*
X1357108Y402585D01*
X1357426Y402762D01*
X1357743Y402903D01*
X1357972Y402991D01*
X1358625Y403291D01*
X1359153Y403502D01*
X1359348Y403555D01*
X1359771Y403661D01*
X1360388Y403855D01*
X1360881Y403925D01*
X1361357Y403978D01*
X1361498Y404013D01*
X1361710Y404049D01*
X1362010Y404066D01*
X1362115Y404031D01*
X1362257Y404066D01*
X1362609Y404102D01*
X1362715Y404137D01*
X1362856Y404172D01*
X1364884Y404190D01*
X1365007Y404102D01*
X1365025Y403872D01*
X1364795Y403643D01*
X1364742Y403626D01*
X1364707Y403555D01*
X1364460Y403308D01*
X1364425Y403238D01*
X1364196Y402903D01*
X1363931Y402391D01*
X1363790Y402180D01*
X1363737Y401986D01*
X1363702Y401845D01*
X1363632Y401669D01*
X1363473Y401404D01*
X1363438Y401263D01*
X1363403Y401016D01*
X1363438Y399253D01*
X1363649Y398795D01*
X1363685Y398654D01*
X1363843Y398460D01*
X1363949Y398424D01*
X1364020Y398460D01*
X1364108Y398548D01*
X1364143Y398795D01*
X1364090Y398989D01*
X1364037Y399042D01*
X1364002Y399112D01*
X1363931Y399288D01*
X1363967Y400240D01*
X1364037Y400417D01*
X1364073Y400558D01*
X1364108Y401087D01*
X1364214Y401334D01*
X1364284Y401580D01*
X1364408Y401915D01*
X1364460Y401968D01*
X1364531Y402145D01*
X1364584Y402338D01*
X1364637Y402462D01*
X1364813Y402709D01*
X1364884Y402885D01*
X1365025Y403132D01*
X1365130Y403238D01*
X1365201Y403414D01*
X1365307Y403590D01*
X1365553Y403837D01*
X1365589Y403908D01*
X1365747Y404066D01*
X1365800Y404084D01*
X1365836Y404155D01*
X1365906Y404225D01*
X1365941Y404296D01*
X1366012Y404366D01*
X1366047Y404437D01*
X1366347Y404736D01*
X1366417Y404772D01*
X1366735Y405089D01*
X1366805Y405124D01*
X1367264Y405583D01*
X1367334Y405618D01*
X1367581Y405794D01*
X1367793Y405935D01*
X1368251Y406182D01*
X1368322Y406253D01*
X1368551Y406341D01*
X1368727Y406411D01*
X1368992Y406570D01*
X1369221Y406658D01*
X1369397Y406729D01*
X1369697Y406887D01*
X1369838Y406922D01*
X1370243Y407011D01*
X1370437Y407064D01*
X1370719Y407134D01*
X1370948Y407187D01*
X1371090Y407222D01*
X1371301Y407257D01*
X1372042Y407293D01*
X1372394Y407363D01*
X1372729Y407381D01*
X1372905Y407310D01*
D02*
G37*
G36*
X1314935Y437776D02*
X1315129Y437618D01*
X1315165Y437547D01*
X1315271Y437300D01*
X1315306Y437089D01*
X1315271Y436983D01*
X1315306Y433598D01*
X1315341Y433492D01*
X1315376Y433245D01*
X1315412Y431835D01*
X1315517Y431588D01*
X1315553Y431341D01*
X1315588Y430389D01*
X1315658Y430213D01*
X1315694Y429296D01*
X1315729Y429190D01*
X1315799Y428908D01*
X1315835Y428379D01*
X1315905Y428203D01*
X1315940Y428062D01*
X1315976Y427357D01*
X1316046Y427180D01*
X1316082Y426934D01*
X1316134Y426528D01*
X1316170Y426352D01*
X1316240Y425928D01*
X1316275Y425788D01*
X1316364Y425488D01*
X1316399Y425241D01*
X1316434Y424959D01*
X1316469Y424853D01*
X1316505Y424500D01*
X1316593Y424271D01*
X1316646Y424113D01*
X1316681Y423971D01*
X1316716Y423584D01*
X1316752Y423478D01*
X1316928Y422914D01*
X1316963Y422773D01*
X1316998Y422526D01*
X1317034Y422385D01*
X1317086Y422155D01*
X1317122Y422015D01*
X1317210Y421715D01*
X1317280Y421468D01*
X1317527Y420481D01*
X1317598Y420234D01*
X1317774Y419670D01*
X1317809Y419529D01*
X1318038Y418876D01*
X1318109Y418594D01*
X1318215Y418312D01*
X1318303Y418118D01*
X1318409Y417695D01*
X1318532Y417360D01*
X1318603Y417184D01*
X1318691Y416954D01*
X1318726Y416813D01*
X1318885Y416373D01*
X1318955Y416196D01*
X1319149Y415756D01*
X1319185Y415615D01*
X1319255Y415438D01*
X1319396Y415121D01*
X1319431Y414980D01*
X1319520Y414751D01*
X1319749Y414239D01*
X1320031Y413640D01*
X1320119Y413411D01*
X1320295Y413023D01*
X1320366Y412846D01*
X1320577Y412423D01*
X1320665Y412229D01*
X1320736Y412053D01*
X1320824Y411824D01*
X1321036Y411471D01*
X1321124Y411277D01*
X1321212Y411048D01*
X1321265Y410925D01*
X1321582Y410325D01*
X1321723Y410114D01*
X1321829Y409867D01*
X1322323Y408950D01*
X1322499Y408668D01*
X1322640Y408421D01*
X1322746Y408315D01*
X1323028Y407786D01*
X1323240Y407399D01*
X1323557Y406940D01*
X1323768Y406552D01*
X1323910Y406305D01*
X1323980Y406235D01*
X1324015Y406164D01*
X1324156Y405953D01*
X1324192Y405882D01*
X1324350Y405688D01*
X1324438Y405600D01*
X1324474Y405530D01*
X1324703Y405195D01*
X1324756Y405142D01*
X1325003Y404683D01*
X1325144Y404542D01*
X1325179Y404472D01*
X1325532Y403978D01*
X1325567Y403908D01*
X1325726Y403714D01*
X1325778Y403661D01*
X1325814Y403590D01*
X1326149Y403149D01*
X1326237Y403061D01*
X1326272Y402991D01*
X1326413Y402850D01*
X1326448Y402779D01*
X1326783Y402338D01*
X1326836Y402286D01*
X1326871Y402215D01*
X1327030Y402021D01*
X1327118Y401933D01*
X1327154Y401862D01*
X1327224Y401792D01*
X1327259Y401721D01*
X1327506Y401475D01*
X1327542Y401404D01*
X1327700Y401210D01*
X1327929Y400981D01*
X1327965Y400910D01*
X1328035Y400840D01*
X1328070Y400769D01*
X1328247Y400593D01*
X1328282Y400522D01*
X1328635Y400170D01*
X1328670Y400099D01*
X1328811Y399958D01*
X1328846Y399888D01*
X1329181Y399553D01*
X1329252Y399518D01*
X1329305Y399465D01*
X1329340Y399394D01*
X1329516Y399218D01*
X1329551Y399147D01*
X1329622Y399077D01*
X1329657Y399006D01*
X1329781Y398883D01*
X1329851Y398848D01*
X1329939Y398759D01*
X1329975Y398689D01*
X1330063Y398601D01*
X1330133Y398565D01*
X1330451Y398248D01*
X1330521Y398213D01*
X1330874Y397860D01*
X1330944Y397825D01*
X1331262Y397508D01*
X1331332Y397472D01*
X1331720Y397085D01*
X1331790Y397049D01*
X1332319Y396520D01*
X1332390Y396485D01*
X1332743Y396133D01*
X1332813Y396097D01*
X1333060Y395850D01*
X1333130Y395815D01*
X1333377Y395639D01*
X1333448Y395604D01*
X1333695Y395427D01*
X1334030Y395092D01*
X1334047Y395004D01*
X1333941Y394969D01*
X1333659Y395004D01*
X1333483Y395075D01*
X1333236Y395145D01*
X1332954Y395216D01*
X1332513Y395269D01*
X1329745Y395286D01*
X1329640Y395251D01*
X1329393Y395216D01*
X1329252Y395180D01*
X1328899Y395145D01*
X1328793Y395110D01*
X1328370Y395004D01*
X1328141Y394951D01*
X1327965Y394916D01*
X1327683Y394845D01*
X1327489Y394793D01*
X1327348Y394757D01*
X1327030Y394793D01*
X1326871Y394951D01*
X1326836Y395022D01*
X1326589Y395269D01*
X1326554Y395339D01*
X1326396Y395498D01*
X1326325Y395533D01*
X1326043Y395815D01*
X1325972Y395850D01*
X1325285Y396362D01*
X1325091Y396556D01*
X1325020Y396591D01*
X1324632Y396838D01*
X1324562Y396873D01*
X1324245Y397120D01*
X1324174Y397190D01*
X1323857Y397367D01*
X1323680Y397543D01*
X1323293Y397755D01*
X1323222Y397825D01*
X1322623Y398142D01*
X1322376Y398283D01*
X1321988Y398495D01*
X1321741Y398601D01*
X1321512Y398689D01*
X1321247Y398848D01*
X1321071Y398918D01*
X1320313Y399183D01*
X1320119Y399271D01*
X1319978Y399306D01*
X1319590Y399341D01*
X1319308Y399518D01*
X1319079Y399571D01*
X1318656Y399641D01*
X1318479Y399676D01*
X1318338Y399711D01*
X1317950Y399747D01*
X1317545Y399870D01*
X1316981Y399906D01*
X1316840Y399870D01*
X1316593D01*
X1316487Y399906D01*
X1315905Y399888D01*
X1315888Y399906D01*
X1315782Y399870D01*
X1315323Y399906D01*
X1314953Y399817D01*
X1314742Y399782D01*
X1314565Y399747D01*
X1314160Y399623D01*
X1313595Y399588D01*
X1313490Y399553D01*
X1313261Y399465D01*
X1313067Y399376D01*
X1312820Y399306D01*
X1312679Y399271D01*
X1312449Y399183D01*
X1312062Y399042D01*
X1311832Y398953D01*
X1311639Y398900D01*
X1311445Y398777D01*
X1311233Y398636D01*
X1311039Y398583D01*
X1310845Y398460D01*
X1310739Y398354D01*
X1310387Y398213D01*
X1310193Y398054D01*
X1310105Y397966D01*
X1309717Y397755D01*
X1309576Y397613D01*
X1309505Y397578D01*
X1309311Y397420D01*
X1309153Y397261D01*
X1309082Y397226D01*
X1308959Y397137D01*
X1308923Y397067D01*
X1308800Y396944D01*
X1308730Y396908D01*
X1308500Y396679D01*
X1308465Y396609D01*
X1308342Y396520D01*
X1308201Y396309D01*
X1307936Y396044D01*
X1307866Y395868D01*
X1307830Y395798D01*
X1307672Y395604D01*
X1307583Y395410D01*
X1307531Y395216D01*
X1307442Y395092D01*
X1307354Y395004D01*
X1307107Y394969D01*
X1307037Y395004D01*
X1306843Y395163D01*
X1306579Y395322D01*
X1306508Y395357D01*
X1306296Y395498D01*
X1306014Y395568D01*
X1305785Y395621D01*
X1305344Y395850D01*
X1305098Y395921D01*
X1304957Y395956D01*
X1304621Y396009D01*
X1304322Y396097D01*
X1304040Y396168D01*
X1303793Y396203D01*
X1303652Y396238D01*
X1303105Y396256D01*
X1301836Y396221D01*
X1301519Y396185D01*
X1301131Y396115D01*
X1300937Y396062D01*
X1300690Y395991D01*
X1300302Y395886D01*
X1300161Y395850D01*
X1299932Y395762D01*
X1299491Y395568D01*
X1299262Y395480D01*
X1299138Y395392D01*
X1299068Y395322D01*
X1298997Y395286D01*
X1298539Y395039D01*
X1298398Y394898D01*
X1298327Y394863D01*
X1298204Y394775D01*
X1298169Y394704D01*
X1297975Y394510D01*
X1297904Y394475D01*
X1297781Y394352D01*
X1297746Y394281D01*
X1297587Y394228D01*
X1297269Y394264D01*
X1296882Y394440D01*
X1296741Y394475D01*
X1296247Y394546D01*
X1293338Y394528D01*
X1293197Y394563D01*
X1293126Y394634D01*
X1293161Y394740D01*
X1293214Y394793D01*
X1293285Y394828D01*
X1293726Y395163D01*
X1293920Y395357D01*
X1293990Y395392D01*
X1294096Y395498D01*
X1294166Y395533D01*
X1294731Y395956D01*
X1294942Y396168D01*
X1295013Y396203D01*
X1295330Y396520D01*
X1295401Y396556D01*
X1295965Y397120D01*
X1296035Y397155D01*
X1296229Y397349D01*
X1296264Y397420D01*
X1296405Y397561D01*
X1296441Y397631D01*
X1296547Y397737D01*
X1296564Y397790D01*
X1296635Y397825D01*
X1297023Y398213D01*
X1297093Y398248D01*
X1297217Y398372D01*
X1297252Y398442D01*
X1297375Y398530D01*
X1297463Y398618D01*
X1297499Y398689D01*
X1297569Y398759D01*
X1297604Y398830D01*
X1297781Y399006D01*
X1297816Y399077D01*
X1297939Y399200D01*
X1298010Y399235D01*
X1298133Y399359D01*
X1298169Y399429D01*
X1298415Y399747D01*
X1298768Y400099D01*
X1298803Y400170D01*
X1298962Y400364D01*
X1299262Y400664D01*
X1299297Y400734D01*
X1299403Y400840D01*
X1299438Y400910D01*
X1299544Y401016D01*
X1299579Y401087D01*
X1299720Y401228D01*
X1299755Y401298D01*
X1299826Y401369D01*
X1299932Y401545D01*
X1300143Y401757D01*
X1300179Y401827D01*
X1300425Y402145D01*
X1300602Y402391D01*
X1300637Y402462D01*
X1300708Y402532D01*
X1300743Y402603D01*
X1300813Y402673D01*
X1300849Y402744D01*
X1301007Y402938D01*
X1301395Y403432D01*
X1301448Y403484D01*
X1301483Y403555D01*
X1301554Y403626D01*
X1301589Y403696D01*
X1301765Y403943D01*
X1301801Y404013D01*
X1301942Y404260D01*
X1302612Y405212D01*
X1302647Y405283D01*
X1302823Y405530D01*
X1303035Y405918D01*
X1303176Y406059D01*
X1303211Y406129D01*
X1303352Y406376D01*
X1303493Y406587D01*
X1303740Y407046D01*
X1303881Y407257D01*
X1303916Y407328D01*
X1304057Y407575D01*
X1304234Y407857D01*
X1304445Y408245D01*
X1304586Y408492D01*
X1304833Y408950D01*
X1304974Y409267D01*
X1305009Y409338D01*
X1305186Y409585D01*
X1305221Y409726D01*
X1305432Y410114D01*
X1305609Y410396D01*
X1305697Y410625D01*
X1305750Y410678D01*
X1305997Y411207D01*
X1306085Y411436D01*
X1306138Y411489D01*
X1306561Y412406D01*
X1306631Y412582D01*
X1306737Y412829D01*
X1306984Y413358D01*
X1307196Y413851D01*
X1307266Y414028D01*
X1307425Y414468D01*
X1307478Y414521D01*
X1307583Y414768D01*
X1307654Y415015D01*
X1307742Y415244D01*
X1307795Y415368D01*
X1307936Y415685D01*
X1308007Y415967D01*
X1308253Y416496D01*
X1308342Y416902D01*
X1308447Y417184D01*
X1308535Y417413D01*
X1308835Y418277D01*
X1308906Y418453D01*
X1308959Y418647D01*
X1308994Y418788D01*
X1309047Y419017D01*
X1309135Y419246D01*
X1309241Y419493D01*
X1309329Y419864D01*
X1309364Y420040D01*
X1309399Y420181D01*
X1309488Y420410D01*
X1309558Y420692D01*
X1309611Y420886D01*
X1309646Y421027D01*
X1309682Y421203D01*
X1309717Y421344D01*
X1309770Y421539D01*
X1309911Y421997D01*
X1309946Y422138D01*
X1309999Y422367D01*
X1310069Y422649D01*
X1310105Y422826D01*
X1310140Y422966D01*
X1310175Y423143D01*
X1310210Y423284D01*
X1310263Y423478D01*
X1310334Y423760D01*
X1310369Y424007D01*
X1310440Y424430D01*
X1310493Y424835D01*
X1310651Y425206D01*
X1310686Y425629D01*
X1310722Y425735D01*
X1310775Y426211D01*
X1310845Y426387D01*
X1310898Y426581D01*
X1310933Y426828D01*
X1310969Y427251D01*
X1311004Y427357D01*
X1311039Y427498D01*
X1311074Y428027D01*
X1311145Y428203D01*
X1311180Y428344D01*
X1311251Y429049D01*
X1311286Y429155D01*
X1311321Y429402D01*
X1311356Y430213D01*
X1311427Y430389D01*
X1311462Y430636D01*
X1311497Y431553D01*
X1311568Y431729D01*
X1311603Y431976D01*
X1311639Y433351D01*
X1311709Y433527D01*
X1311744Y433774D01*
X1311780Y437512D01*
X1311938Y437706D01*
X1312009Y437776D01*
X1312256Y437812D01*
X1314935Y437776D01*
D02*
G37*
G36*
X1339777Y377462D02*
X1339795Y377444D01*
X1339936Y377409D01*
X1340024Y377320D01*
X1340095Y377074D01*
X1340059Y376862D01*
X1339971Y376774D01*
X1339689Y376703D01*
X1339495Y376756D01*
X1339196Y376915D01*
X1338966Y377144D01*
X1338931Y377356D01*
X1339019Y377444D01*
X1339160Y377479D01*
X1339407Y377514D01*
X1339777Y377462D01*
D02*
G37*
G36*
X1339636Y371467D02*
X1339671Y371326D01*
X1339636Y371185D01*
X1339530Y371079D01*
X1339495Y370938D01*
X1339460Y370515D01*
X1339231Y370180D01*
X1339054Y370004D01*
X1338984Y369968D01*
X1338913Y369898D01*
X1338772Y369863D01*
X1338667Y369827D01*
X1338420Y369792D01*
X1338279Y369757D01*
X1337926Y369721D01*
X1337785Y369686D01*
X1337538Y369721D01*
X1337415Y369845D01*
X1337450Y369951D01*
X1337538Y370039D01*
X1337838Y370092D01*
X1338120Y370127D01*
X1338261Y370162D01*
X1338349Y370215D01*
X1338384D01*
X1338631Y370392D01*
X1338878Y370533D01*
X1339001Y370656D01*
X1339037Y370727D01*
X1339266Y371062D01*
X1339319Y371114D01*
X1339354Y371255D01*
X1339460Y371432D01*
X1339513Y371485D01*
X1339636Y371467D01*
D02*
G37*
G36*
X1327594Y356534D02*
X1327841Y356357D01*
X1327912Y356287D01*
X1327982Y356252D01*
X1328176Y356093D01*
X1328441Y355829D01*
X1328511Y355793D01*
X1328564Y355740D01*
X1328599Y355670D01*
X1328687Y355582D01*
X1328758Y355546D01*
X1329075Y355229D01*
X1329146Y355194D01*
X1329587Y354753D01*
X1329728Y354506D01*
X1329939Y354295D01*
X1329975Y354224D01*
X1330380Y353642D01*
X1330451Y353607D01*
X1330539Y353519D01*
X1330574Y353448D01*
X1330645Y353378D01*
X1330680Y353307D01*
X1330891Y353096D01*
X1330856Y352955D01*
X1330803Y352902D01*
X1330609Y352884D01*
X1329075Y352902D01*
X1329040D01*
X1324421Y352937D01*
X1323892Y353184D01*
X1323486Y353272D01*
X1323275Y353378D01*
X1323063Y353519D01*
X1322993Y353554D01*
X1322957Y353625D01*
X1322816Y353871D01*
X1322658Y354065D01*
X1322605Y354118D01*
X1322534Y354295D01*
X1322323Y354683D01*
X1322252Y354859D01*
X1322146Y355211D01*
X1322111Y355353D01*
X1322076Y355599D01*
X1322146Y355776D01*
X1322235Y355899D01*
X1322305Y355934D01*
X1322834Y356181D01*
X1323293Y356216D01*
X1325020Y356181D01*
X1325267Y356075D01*
X1325514Y356111D01*
X1325831Y356252D01*
X1326431Y356534D01*
X1326783Y356569D01*
X1327594Y356534D01*
D02*
G37*
G36*
X1314230Y355864D02*
X1314407Y355793D01*
X1314601Y355740D01*
X1314900Y355652D01*
X1315341Y355494D01*
X1315623Y355317D01*
X1315676Y355264D01*
X1315746Y355229D01*
X1315940Y355070D01*
X1316170Y354841D01*
X1316240Y354806D01*
X1316557Y354488D01*
X1316628Y354453D01*
X1316681Y354400D01*
X1316822Y354154D01*
X1316963Y354012D01*
X1316998Y353942D01*
X1317139Y353695D01*
X1317298Y353501D01*
X1317386Y353413D01*
X1317421Y353343D01*
X1317563Y353201D01*
X1317598Y353060D01*
X1317580Y352972D01*
X1317510Y352937D01*
X1317404Y352902D01*
X1317104Y352884D01*
X1309770Y352919D01*
X1309558Y353096D01*
X1309435Y353184D01*
X1309153Y353466D01*
X1309082Y353501D01*
X1308835Y353642D01*
X1308782Y353695D01*
X1308765Y353819D01*
X1308835Y353995D01*
X1308888Y354048D01*
X1308923Y354118D01*
X1309364Y354559D01*
X1309435Y354594D01*
X1309787Y354947D01*
X1309858Y354982D01*
X1309928Y355053D01*
X1309946Y355070D01*
X1309999Y355123D01*
X1310457Y355370D01*
X1310669Y355511D01*
X1310863Y355564D01*
X1311145Y355634D01*
X1311321Y355670D01*
X1311515Y355723D01*
X1311762Y355793D01*
X1312185Y355864D01*
X1312432Y355899D01*
X1314230Y355864D01*
D02*
G37*
G36*
X1280027Y354982D02*
X1280203Y354912D01*
X1280450Y354876D01*
X1282407Y354894D01*
X1282548Y354859D01*
X1282847Y354771D01*
X1283729Y354735D01*
X1283976Y354630D01*
X1284328Y354594D01*
X1284893Y354559D01*
X1284998Y354524D01*
X1285351Y354488D01*
X1285616Y354436D01*
X1285809Y354383D01*
X1286233Y354277D01*
X1286479Y354242D01*
X1287925Y354207D01*
X1288031Y354171D01*
X1288383Y354136D01*
X1288525Y354171D01*
X1289018Y354136D01*
X1289194Y354065D01*
X1289424Y354012D01*
X1289565Y353977D01*
X1289759Y353924D01*
X1289900Y353889D01*
X1290288Y353854D01*
X1290464Y353783D01*
X1290605Y353748D01*
X1290975Y353660D01*
X1291169Y353572D01*
X1291910Y353466D01*
X1295859Y353501D01*
X1295965Y353536D01*
X1296317Y353572D01*
X1300161Y353607D01*
X1300408Y353713D01*
X1300654Y353748D01*
X1301395Y353713D01*
X1301589Y353554D01*
X1301712Y353466D01*
X1301801Y353272D01*
X1301765Y353025D01*
X1301712Y352972D01*
X1301536Y352902D01*
X1297234D01*
X1285192Y352884D01*
X1284716Y352902D01*
X1284610Y352867D01*
X1284346Y352814D01*
X1284240Y352743D01*
X1284276Y352637D01*
X1284505Y352549D01*
X1284857Y352514D01*
X1288983Y352479D01*
X1289089Y352443D01*
X1294061Y352408D01*
X1294166Y352373D01*
X1294413Y352338D01*
X1300972Y352302D01*
X1301078Y352267D01*
X1301307Y352214D01*
X1345772Y352179D01*
X1345895Y352091D01*
X1345913Y352038D01*
X1345789Y351914D01*
X1345260Y351632D01*
X1344943Y351491D01*
X1344344Y351209D01*
X1344167Y351139D01*
X1343938Y351050D01*
X1343885Y350998D01*
X1343709Y350927D01*
X1343462Y350857D01*
X1343233Y350768D01*
X1342968Y350610D01*
X1342739Y350522D01*
X1342457Y350416D01*
X1341875Y350151D01*
X1341646Y350063D01*
X1341470Y349993D01*
X1341276Y349905D01*
X1341047Y349816D01*
X1340870Y349746D01*
X1340500Y349587D01*
X1340059Y349428D01*
X1339777Y349323D01*
X1339636Y349287D01*
X1339407Y349199D01*
X1338860Y349005D01*
X1338808Y348952D01*
X1338631Y348882D01*
X1338349Y348811D01*
X1338067Y348706D01*
X1337750Y348565D01*
X1337609Y348529D01*
X1337415Y348476D01*
X1337274Y348441D01*
X1336886Y348300D01*
X1336392Y348124D01*
X1335969Y348018D01*
X1335793Y347948D01*
X1335599Y347859D01*
X1335458Y347824D01*
X1335052Y347736D01*
X1334876Y347665D01*
X1334576Y347542D01*
X1334435Y347507D01*
X1334188Y347472D01*
X1334047Y347436D01*
X1333818Y347383D01*
X1333324Y347207D01*
X1332901Y347101D01*
X1332690Y347066D01*
X1332408Y346995D01*
X1332020Y346854D01*
X1331879Y346819D01*
X1331702Y346784D01*
X1331491Y346749D01*
X1331156Y346696D01*
X1330838Y346555D01*
X1330345Y346484D01*
X1330204Y346449D01*
X1329975Y346396D01*
X1329128Y346184D01*
X1328952Y346149D01*
X1328740Y346114D01*
X1328599Y346079D01*
X1328423Y346043D01*
X1328141Y346008D01*
X1327965Y345973D01*
X1327824Y345938D01*
X1327401Y345867D01*
X1327207Y345814D01*
X1327065Y345779D01*
X1326625Y345726D01*
X1326448Y345691D01*
X1326166Y345656D01*
X1326025Y345620D01*
X1325796Y345532D01*
X1325655Y345497D01*
X1325091Y345462D01*
X1324985Y345426D01*
X1324527Y345391D01*
X1324280Y345356D01*
X1324104Y345285D01*
X1323963Y345250D01*
X1323539Y345215D01*
X1323363Y345144D01*
X1323134Y345091D01*
X1322464Y345056D01*
X1322041Y344950D01*
X1321741Y344933D01*
X1321635Y344968D01*
X1321318Y344933D01*
X1321071Y344827D01*
X1320930Y344792D01*
X1320154Y344827D01*
X1319802Y344792D01*
X1319696Y344756D01*
X1319237Y344721D01*
X1317897Y344686D01*
X1317739Y344598D01*
X1317651Y344404D01*
X1309417Y344421D01*
X1309364Y344545D01*
X1309294Y344580D01*
X1309047Y344686D01*
X1308800Y344721D01*
X1307107Y344756D01*
X1307002Y344792D01*
X1306543Y344827D01*
X1306191Y344792D01*
X1306050Y344827D01*
X1305768Y344862D01*
X1305591Y344933D01*
X1305239Y344968D01*
X1304780Y344933D01*
X1304639Y344968D01*
X1304463Y345038D01*
X1304322Y345074D01*
X1303722Y345109D01*
X1303546Y345179D01*
X1303405Y345215D01*
X1303158Y345250D01*
X1302700Y345285D01*
X1302523Y345356D01*
X1302382Y345391D01*
X1301818Y345426D01*
X1301712Y345462D01*
X1301254Y345497D01*
X1300954Y345550D01*
X1300725Y345638D01*
X1300584Y345673D01*
X1300214Y345726D01*
X1300002Y345761D01*
X1299650Y345797D01*
X1299509Y345832D01*
X1299350Y345885D01*
X1299209Y345920D01*
X1298891Y345955D01*
X1298786Y345990D01*
X1298645Y346026D01*
X1298133Y346114D01*
X1297781Y346184D01*
X1297393Y346255D01*
X1297252Y346290D01*
X1297076Y346361D01*
X1296723Y346431D01*
X1296511Y346466D01*
X1296335Y346502D01*
X1296123Y346537D01*
X1295824Y346625D01*
X1295330Y346766D01*
X1294977Y346801D01*
X1294642Y346925D01*
X1294413Y347013D01*
X1294166Y347048D01*
X1293884Y347119D01*
X1293655Y347172D01*
X1293514Y347207D01*
X1293338Y347277D01*
X1292932Y347401D01*
X1292791Y347436D01*
X1292544Y347472D01*
X1292403Y347507D01*
X1292174Y347560D01*
X1291945Y347683D01*
X1291698Y347754D01*
X1291557Y347789D01*
X1291328Y347842D01*
X1291046Y347948D01*
X1290817Y348036D01*
X1290446Y348124D01*
X1290270Y348194D01*
X1289865Y348353D01*
X1289618Y348424D01*
X1289477Y348459D01*
X1289230Y348529D01*
X1289036Y348582D01*
X1288525Y348811D01*
X1288260Y348864D01*
X1288049Y348970D01*
X1287678Y349129D01*
X1287449Y349182D01*
X1287273Y349252D01*
X1287044Y349340D01*
X1286709Y349464D01*
X1286109Y349675D01*
X1285668Y349869D01*
X1285139Y350116D01*
X1284946Y350169D01*
X1284663Y350275D01*
X1284258Y350469D01*
X1284082Y350539D01*
X1283852Y350627D01*
X1283588Y350786D01*
X1283412Y350857D01*
X1283024Y350998D01*
X1282706Y351139D01*
X1282530Y351209D01*
X1282301Y351297D01*
X1281525Y351685D01*
X1281084Y351914D01*
X1280485Y352197D01*
X1279603Y352655D01*
X1279357Y352831D01*
X1279180Y352902D01*
X1278951Y352990D01*
X1278404Y353290D01*
X1278334Y353325D01*
X1278017Y353572D01*
X1277964Y353625D01*
X1277893Y353907D01*
X1277928Y354048D01*
X1278017Y354277D01*
X1278193Y354559D01*
X1278281Y354683D01*
X1278369Y354771D01*
X1278616Y354876D01*
X1279357Y354912D01*
X1279533Y354982D01*
X1279780Y355018D01*
X1280027Y354982D01*
D02*
G37*
G36*
X1335775Y358085D02*
X1335898Y357962D01*
X1335934Y357891D01*
X1336110Y357574D01*
X1336286Y357327D01*
X1336463Y357010D01*
X1336586Y356922D01*
X1336709Y356798D01*
X1336851Y356551D01*
X1337186Y356216D01*
X1337256Y356181D01*
X1337573Y355864D01*
X1337644Y355829D01*
X1337732Y355740D01*
X1337767Y355670D01*
X1337856Y355582D01*
X1337926Y355546D01*
X1337944Y355529D01*
X1337961Y355511D01*
X1338243Y355229D01*
X1338314Y355194D01*
X1338596Y354912D01*
X1338843Y354771D01*
X1338913Y354700D01*
X1338984Y354665D01*
X1339054Y354594D01*
X1339372Y354418D01*
X1339513Y354277D01*
X1339583Y354242D01*
X1339830Y354101D01*
X1339971Y353960D01*
X1340042Y353924D01*
X1340500Y353677D01*
X1340677Y353572D01*
X1341346Y353254D01*
X1341576Y353166D01*
X1341699Y353078D01*
X1341717Y352990D01*
X1341664Y352937D01*
X1341382Y352867D01*
X1339971Y352902D01*
X1336339Y352937D01*
X1336128Y353078D01*
X1335951Y353149D01*
X1335705Y353290D01*
X1335423Y353572D01*
X1335352Y353607D01*
X1334735Y354224D01*
X1334700Y354295D01*
X1334382Y354965D01*
X1334347Y355106D01*
X1334329Y356075D01*
X1334365Y356287D01*
X1334453Y356516D01*
X1334594Y356728D01*
X1334629Y356798D01*
X1334876Y357257D01*
X1334946Y357327D01*
X1335087Y357574D01*
X1335246Y357768D01*
X1335334Y357856D01*
X1335370Y357926D01*
X1335440Y357997D01*
X1335475Y358068D01*
X1335634Y358120D01*
X1335775Y358085D01*
D02*
G37*
%LPC*%
G36*
X1323821Y392395D02*
X1323610Y392360D01*
X1323575D01*
X1323486Y392201D01*
X1323504Y392077D01*
X1323610Y392113D01*
X1323804Y392201D01*
X1323839Y392342D01*
X1323821Y392395D01*
D02*
G37*
G36*
X1321847Y390667D02*
X1321671Y390632D01*
X1321529Y390491D01*
X1321459Y390455D01*
X1321388Y390385D01*
X1321318Y390350D01*
X1321265Y390297D01*
X1321230Y390156D01*
X1321247Y390103D01*
X1321265Y390085D01*
X1321318Y390032D01*
X1321635Y390209D01*
X1321864Y390544D01*
X1321847Y390667D01*
D02*
G37*
G36*
X1321071Y389785D02*
X1320930Y389750D01*
X1320842Y389662D01*
X1320824Y389503D01*
X1320895Y389433D01*
X1321071Y389539D01*
X1321124Y389697D01*
X1321089Y389768D01*
X1321071Y389785D01*
D02*
G37*
G36*
X1320401Y388904D02*
X1320313Y388816D01*
X1320331Y388763D01*
X1320366D01*
X1320419Y388816D01*
X1320401Y388904D01*
D02*
G37*
G36*
X1320048Y388481D02*
X1320013D01*
X1319819Y388322D01*
X1319854Y388075D01*
X1320013Y388058D01*
X1320137Y388181D01*
X1320101Y388463D01*
X1320048Y388481D01*
D02*
G37*
G36*
X1319661Y387846D02*
X1319590Y387811D01*
X1319572Y387758D01*
X1319625Y387705D01*
X1319678Y387723D01*
Y387828D01*
X1319661Y387846D01*
D02*
G37*
%LPD*%
D24*
X1777730Y407670D02*
G03*
X1777730Y407670I-1000J0D01*
G01*
X1590040Y344170D02*
X1638640D01*
X1719240D02*
X1767840D01*
X1638640Y337170D02*
X1719240D01*
X1638640D02*
Y344170D01*
X1719240Y337170D02*
Y344170D01*
X1767840D02*
Y953770D01*
X1590040D02*
X1767840D01*
X1590040Y344170D02*
Y953770D01*
X1564894Y1054354D02*
X1576324Y1034034D01*
X1557274Y1042924D02*
X1564894Y1054354D01*
X1597914Y1032764D02*
X1608074Y1054354D01*
X1587754D02*
X1597914Y1032764D01*
X1576324Y1034034D02*
X1587754Y1054354D01*
X1608074D02*
X1616964Y1042924D01*
X1624584D01*
X1545844D02*
X1557274D01*
X1478280Y955040D02*
Y979170D01*
Y955040D02*
Y967740D01*
X1485900D01*
X1460500D02*
X1469390D01*
X1469402Y955222D02*
Y979352D01*
X1564894Y1022604D02*
X1576324Y1002284D01*
X1557274Y1011174D02*
X1564894Y1022604D01*
X1597914Y1001014D02*
X1608074Y1022604D01*
X1587754D02*
X1597914Y1001014D01*
X1576324Y1002284D02*
X1587754Y1022604D01*
X1608074D02*
X1616964Y1011174D01*
X1624584D01*
X1545844D02*
X1557274D01*
X1564894Y989584D02*
X1576324Y969264D01*
X1557274Y978154D02*
X1564894Y989584D01*
X1597914Y967994D02*
X1608074Y989584D01*
X1587754D02*
X1597914Y967994D01*
X1576324Y969264D02*
X1587754Y989584D01*
X1608074D02*
X1616964Y978154D01*
X1624584D01*
X1545844D02*
X1557274D01*
X1538986Y644144D02*
X1559306Y655574D01*
X1538986Y644144D02*
X1550416Y636524D01*
X1538986Y687324D02*
X1560576Y677164D01*
X1538986Y667004D02*
X1560576Y677164D01*
X1538986Y667004D02*
X1559306Y655574D01*
X1538986Y687324D02*
X1550416Y696214D01*
Y703834D01*
Y625094D02*
Y636524D01*
X1542034Y835406D02*
X1562354Y846836D01*
X1550924Y854456D02*
X1562354Y846836D01*
X1540764Y813816D02*
X1562354Y803656D01*
X1540764Y813816D02*
X1562354Y823976D01*
X1542034Y835406D02*
X1562354Y823976D01*
X1550924Y794766D02*
X1562354Y803656D01*
X1550924Y787146D02*
Y794766D01*
Y854456D02*
Y865886D01*
X1453896Y1029716D02*
X1465326Y1009396D01*
X1472946Y1020826D01*
X1422146Y1009396D02*
X1432306Y1030986D01*
X1442466Y1009396D01*
X1453896Y1029716D01*
X1413256Y1020826D02*
X1422146Y1009396D01*
X1405636Y1020826D02*
X1413256D01*
X1472946D02*
X1484376D01*
D25*
X1376720Y1021080D02*
G03*
X1376720Y1021080I-61000J0D01*
G01*
X1718310Y1008380D02*
G03*
X1718310Y1008380I-31750J0D01*
G01*
X1223600Y580320D02*
Y730320D01*
X1141100Y580320D02*
X1223600D01*
X1141100D02*
Y730320D01*
X1223600D01*
D26*
X1068070Y593090D02*
G03*
X1079500Y581660I11430J0D01*
G01*
X1106170D02*
G03*
X1118870Y594360I0J12700D01*
G01*
Y716280D02*
G03*
X1106170Y728980I-12700J0D01*
G01*
X1080770D02*
G03*
X1068070Y716280I0J-12700D01*
G01*
X1106170Y770890D02*
G03*
X1118870Y783590I0J12700D01*
G01*
Y867410D02*
G03*
X1106170Y880110I-12700J0D01*
G01*
X1080770D02*
G03*
X1068070Y867410I0J-12700D01*
G01*
Y783590D02*
G03*
X1080770Y770890I12700J0D01*
G01*
X1068070Y924560D02*
G03*
X1080770Y911860I12700J0D01*
G01*
Y1021080D02*
G03*
X1068070Y1008380I0J-12700D01*
G01*
X1118870D02*
G03*
X1106170Y1021080I-12700J0D01*
G01*
Y911860D02*
G03*
X1118870Y924560I0J12700D01*
G01*
X1701800Y1016000D02*
X1710690D01*
X1421130Y967740D02*
X1430020D01*
X1068070Y593090D02*
Y594178D01*
X1079500Y581660D02*
X1106170D01*
X1118870Y594360D02*
Y716280D01*
X1080770Y728980D02*
X1106170D01*
X1068070Y594178D02*
Y716280D01*
X1104900Y770890D02*
X1106170D01*
X1118870Y783590D02*
Y867410D01*
X1080770Y880110D02*
X1106170D01*
X1068070Y783590D02*
Y867410D01*
X1080770Y770890D02*
X1104900D01*
X1080770Y911860D02*
X1104900D01*
X1068070Y924560D02*
Y1008380D01*
X1080770Y1021080D02*
X1106170D01*
X1118870Y924560D02*
Y1008380D01*
X1104900Y911860D02*
X1106170D01*
X1276350Y561340D02*
Y916940D01*
X1530350Y561340D02*
Y916940D01*
X1276350Y561340D02*
X1530350D01*
X1276350Y916940D02*
X1530350D01*
D27*
X1182100Y572820D02*
G03*
X1182100Y572820I-1000J0D01*
G01*
X1687560Y971380D02*
G03*
X1687560Y971380I-1000J0D01*
G01*
X1139600Y773700D02*
Y877300D01*
X1209500D01*
X1206700Y883300D02*
X1209500Y877300D01*
X1206700Y883300D02*
X1219200D01*
X1216600Y877300D02*
X1219200Y883300D01*
X1216600Y877300D02*
X1222600D01*
Y773700D02*
Y877300D01*
X1168200Y773700D02*
X1222600D01*
X1168200D02*
X1170800Y767700D01*
X1158500D02*
X1170800D01*
X1158500D02*
X1161100Y773700D01*
X1139600D02*
X1161100D01*
X1139600Y914670D02*
Y1018270D01*
X1209500D01*
X1206700Y1024270D02*
X1209500Y1018270D01*
X1206700Y1024270D02*
X1219200D01*
X1216600Y1018270D02*
X1219200Y1024270D01*
X1216600Y1018270D02*
X1222600D01*
Y914670D02*
Y1018270D01*
X1168200Y914670D02*
X1222600D01*
X1168200D02*
X1170800Y908670D01*
X1158500D02*
X1170800D01*
X1158500D02*
X1161100Y914670D01*
X1139600D02*
X1161100D01*
D28*
X1165100Y788500D02*
G03*
X1165100Y788500I-1000J0D01*
G01*
Y929470D02*
G03*
X1165100Y929470I-1000J0D01*
G01*
D29*
X1179830Y538480D02*
G03*
X1154430Y513080I0J-25400D01*
G01*
X1474470Y279400D02*
G03*
X1499870Y304800I0J25400D01*
G01*
X1154430D02*
G03*
X1179830Y279400I25400J0D01*
G01*
X1499870Y513080D02*
G03*
X1474470Y538480I-25400J0D01*
G01*
X1154430Y304800D02*
Y513080D01*
X1179830Y279400D02*
X1474470D01*
X1179830Y538480D02*
X1474470D01*
X1499870Y304800D02*
Y513080D01*
X1085847Y708492D02*
X1083943Y710396D01*
X1080134D01*
X1078230Y708492D01*
Y700874D01*
X1080134Y698970D01*
X1083943D01*
X1085847Y700874D01*
Y704683D01*
X1082039D01*
X1089656Y698970D02*
Y710396D01*
X1097274Y698970D01*
Y710396D01*
X1101083D02*
Y698970D01*
X1106796D01*
X1108700Y700874D01*
Y708492D01*
X1106796Y710396D01*
X1101083D01*
X1078230Y648970D02*
Y660396D01*
X1083943D01*
X1085847Y658492D01*
Y654683D01*
X1083943Y652779D01*
X1078230D01*
X1082039D02*
X1085847Y648970D01*
X1089656Y660396D02*
X1097274Y648970D01*
Y660396D02*
X1089656Y648970D01*
X1108700D02*
X1101083D01*
X1108700Y656588D01*
Y658492D01*
X1106796Y660396D01*
X1102987D01*
X1101083Y658492D01*
X1057665Y336187D02*
X1068549D01*
X1070725Y336912D01*
X1072177Y338363D01*
X1072902Y340540D01*
Y341991D01*
X1072177Y344168D01*
X1070725Y345619D01*
X1068549Y346344D01*
X1057665D01*
Y336912D02*
X1068549D01*
X1070725Y337638D01*
X1072177Y339089D01*
X1072902Y340540D01*
X1057665Y334010D02*
Y339089D01*
Y344168D02*
Y348521D01*
X1059842Y359767D02*
X1057665Y360493D01*
X1062019D01*
X1059842Y359767D01*
X1058391Y358316D01*
X1057665Y356139D01*
Y353963D01*
X1058391Y351786D01*
X1059842Y350335D01*
X1061293D01*
X1062744Y351061D01*
X1063470Y351786D01*
X1064195Y353237D01*
X1065647Y357591D01*
X1066372Y359042D01*
X1067823Y360493D01*
X1061293Y350335D02*
X1062744Y351786D01*
X1063470Y353237D01*
X1064921Y357591D01*
X1065647Y359042D01*
X1066372Y359767D01*
X1067823Y360493D01*
X1070725D01*
X1072177Y359042D01*
X1072902Y356865D01*
Y354688D01*
X1072177Y352512D01*
X1070725Y351061D01*
X1068549Y350335D01*
X1072902D01*
X1070725Y351061D01*
X1057665Y364919D02*
X1072902D01*
X1057665Y365644D02*
X1072902D01*
X1057665Y362742D02*
Y367821D01*
X1072902Y362742D02*
Y373625D01*
X1068549D01*
X1072902Y372900D01*
X1057665Y377979D02*
X1072902D01*
X1057665Y378704D02*
X1072902D01*
X1057665Y375802D02*
Y380881D01*
X1072902Y375802D02*
Y380881D01*
X1059842Y407509D02*
X1062019Y408235D01*
X1057665D01*
X1059842Y407509D01*
X1058391Y406058D01*
X1057665Y403881D01*
Y402430D01*
X1058391Y400253D01*
X1059842Y398802D01*
X1061293Y398077D01*
X1063470Y397351D01*
X1067098D01*
X1069274Y398077D01*
X1070725Y398802D01*
X1072177Y400253D01*
X1072902Y402430D01*
Y403881D01*
X1072177Y406058D01*
X1070725Y407509D01*
X1069274Y408235D01*
X1057665Y402430D02*
X1058391Y400979D01*
X1059842Y399528D01*
X1061293Y398802D01*
X1063470Y398077D01*
X1067098D01*
X1069274Y398802D01*
X1070725Y399528D01*
X1072177Y400979D01*
X1072902Y402430D01*
X1062744Y414765D02*
X1063470Y412588D01*
X1064921Y411137D01*
X1067098Y410411D01*
X1068549D01*
X1070725Y411137D01*
X1072177Y412588D01*
X1072902Y414765D01*
Y416216D01*
X1072177Y418392D01*
X1070725Y419844D01*
X1068549Y420569D01*
X1067098D01*
X1064921Y419844D01*
X1063470Y418392D01*
X1062744Y416216D01*
Y414765D01*
X1063470Y413314D01*
X1064921Y411862D01*
X1067098Y411137D01*
X1068549D01*
X1070725Y411862D01*
X1072177Y413314D01*
X1072902Y414765D01*
Y416216D02*
X1072177Y417667D01*
X1070725Y419118D01*
X1068549Y419844D01*
X1067098D01*
X1064921Y419118D01*
X1063470Y417667D01*
X1062744Y416216D01*
Y424995D02*
X1072902D01*
X1062744Y425721D02*
X1072902D01*
X1064921D02*
X1063470Y427172D01*
X1062744Y429348D01*
Y430799D01*
X1063470Y432976D01*
X1064921Y433702D01*
X1072902D01*
X1062744Y430799D02*
X1063470Y432251D01*
X1064921Y432976D01*
X1072902D01*
X1062744Y422818D02*
Y425721D01*
X1072902Y422818D02*
Y427897D01*
Y430799D02*
Y435878D01*
Y442191D02*
X1072177Y441465D01*
X1070000Y440740D01*
X1057665D01*
Y440014D01*
X1070000D01*
X1072177Y440740D01*
X1072902Y442191D01*
Y443642D01*
X1072177Y445093D01*
X1070725Y445819D01*
X1062744Y437837D02*
Y443642D01*
Y450462D02*
X1072902D01*
X1062744Y451188D02*
X1072902D01*
X1067098D02*
X1064921Y451913D01*
X1063470Y453364D01*
X1062744Y454815D01*
Y456992D01*
X1063470Y457718D01*
X1064195D01*
X1064921Y456992D01*
X1064195Y456267D01*
X1063470Y456992D01*
X1062744Y448285D02*
Y451188D01*
X1072902Y448285D02*
Y453364D01*
X1062744Y464393D02*
X1063470Y462216D01*
X1064921Y460765D01*
X1067098Y460040D01*
X1068549D01*
X1070725Y460765D01*
X1072177Y462216D01*
X1072902Y464393D01*
Y465844D01*
X1072177Y468021D01*
X1070725Y469472D01*
X1068549Y470197D01*
X1067098D01*
X1064921Y469472D01*
X1063470Y468021D01*
X1062744Y465844D01*
Y464393D01*
X1063470Y462942D01*
X1064921Y461491D01*
X1067098Y460765D01*
X1068549D01*
X1070725Y461491D01*
X1072177Y462942D01*
X1072902Y464393D01*
Y465844D02*
X1072177Y467295D01*
X1070725Y468746D01*
X1068549Y469472D01*
X1067098D01*
X1064921Y468746D01*
X1063470Y467295D01*
X1062744Y465844D01*
X1057665Y474623D02*
X1072902D01*
X1057665Y475349D02*
X1072902D01*
X1057665Y472447D02*
Y475349D01*
X1072902Y472447D02*
Y477525D01*
X1064195Y487538D02*
X1062744Y488264D01*
X1065647D01*
X1064195Y487538D01*
X1063470Y486813D01*
X1062744Y485362D01*
Y482459D01*
X1063470Y481008D01*
X1064195Y480283D01*
X1065647D01*
X1066372Y481008D01*
X1067098Y482459D01*
X1068549Y486087D01*
X1069274Y487538D01*
X1070000Y488264D01*
X1064921Y480283D02*
X1065647Y481008D01*
X1066372Y482459D01*
X1067823Y486087D01*
X1068549Y487538D01*
X1069274Y488264D01*
X1071451D01*
X1072177Y487538D01*
X1072902Y486087D01*
Y483185D01*
X1072177Y481734D01*
X1071451Y481008D01*
X1070000Y480283D01*
X1072902D01*
X1071451Y481008D01*
X1054763Y504444D02*
X1077981D01*
X1054763Y505169D02*
X1077981D01*
X1054763Y504444D02*
Y509523D01*
X1077981Y504444D02*
Y509523D01*
X1062744Y513731D02*
X1072902Y518084D01*
X1062744Y514456D02*
X1071451Y518084D01*
X1062744Y522438D02*
X1072902Y518084D01*
X1062744Y512280D02*
Y516633D01*
Y519535D02*
Y523889D01*
X1059117Y533248D02*
X1072902D01*
X1068549Y537602D02*
Y525993D01*
X1057665Y533974D01*
X1072902D01*
Y531072D02*
Y536151D01*
X1054763Y544059D02*
X1077981D01*
X1054763Y544785D02*
X1077981D01*
X1054763Y539706D02*
Y544785D01*
X1077981Y539706D02*
Y544785D01*
X1087124Y340540D02*
X1102361Y335461D01*
X1087124Y340540D02*
X1102361Y345619D01*
X1089301Y340540D02*
X1102361Y344893D01*
X1098008Y336912D02*
Y343442D01*
X1102361Y334010D02*
Y338363D01*
Y342717D02*
Y347070D01*
X1087124Y351206D02*
X1087850Y350480D01*
X1088576Y351206D01*
X1087850Y351931D01*
X1087124Y351206D01*
X1092203D02*
X1102361D01*
X1092203Y351931D02*
X1102361D01*
X1092203Y349029D02*
Y351931D01*
X1102361Y349029D02*
Y354108D01*
X1087124Y365572D02*
X1102361D01*
X1087124Y366297D02*
X1102361D01*
X1094380Y365572D02*
X1092929Y364121D01*
X1092203Y362670D01*
Y361218D01*
X1092929Y359042D01*
X1094380Y357591D01*
X1096557Y356865D01*
X1098008D01*
X1100184Y357591D01*
X1101636Y359042D01*
X1102361Y361218D01*
Y362670D01*
X1101636Y364121D01*
X1100184Y365572D01*
X1092203Y361218D02*
X1092929Y359767D01*
X1094380Y358316D01*
X1096557Y357591D01*
X1098008D01*
X1100184Y358316D01*
X1101636Y359767D01*
X1102361Y361218D01*
X1087124Y363395D02*
Y366297D01*
X1102361Y365572D02*
Y368474D01*
X1096557Y371304D02*
Y380010D01*
X1095106D01*
X1093654Y379285D01*
X1092929Y378559D01*
X1092203Y377108D01*
Y374931D01*
X1092929Y372755D01*
X1094380Y371304D01*
X1096557Y370578D01*
X1098008D01*
X1100184Y371304D01*
X1101636Y372755D01*
X1102361Y374931D01*
Y376383D01*
X1101636Y378559D01*
X1100184Y380010D01*
X1096557Y379285D02*
X1094380D01*
X1092929Y378559D01*
X1092203Y374931D02*
X1092929Y373480D01*
X1094380Y372029D01*
X1096557Y371304D01*
X1098008D01*
X1100184Y372029D01*
X1101636Y373480D01*
X1102361Y374931D01*
X1092203Y384509D02*
X1102361D01*
X1092203Y385234D02*
X1102361D01*
X1094380D02*
X1092929Y386686D01*
X1092203Y388862D01*
Y390313D01*
X1092929Y392490D01*
X1094380Y393216D01*
X1102361D01*
X1092203Y390313D02*
X1092929Y391764D01*
X1094380Y392490D01*
X1102361D01*
X1092203Y382332D02*
Y385234D01*
X1102361Y382332D02*
Y387411D01*
Y390313D02*
Y395392D01*
X1089301Y420497D02*
X1087124Y421222D01*
X1091478D01*
X1089301Y420497D01*
X1087850Y419045D01*
X1087124Y416869D01*
Y414692D01*
X1087850Y412515D01*
X1089301Y411064D01*
X1090752D01*
X1092203Y411790D01*
X1092929Y412515D01*
X1093654Y413967D01*
X1095106Y418320D01*
X1095831Y419771D01*
X1097282Y421222D01*
X1090752Y411064D02*
X1092203Y412515D01*
X1092929Y413967D01*
X1094380Y418320D01*
X1095106Y419771D01*
X1095831Y420497D01*
X1097282Y421222D01*
X1100184D01*
X1101636Y419771D01*
X1102361Y417594D01*
Y415418D01*
X1101636Y413241D01*
X1100184Y411790D01*
X1098008Y411064D01*
X1102361D01*
X1100184Y411790D01*
X1087124Y425648D02*
X1102361D01*
X1087124Y426374D02*
X1102361D01*
X1094380D02*
X1092929Y427825D01*
X1092203Y430001D01*
Y431452D01*
X1092929Y433629D01*
X1094380Y434355D01*
X1102361D01*
X1092203Y431452D02*
X1092929Y432904D01*
X1094380Y433629D01*
X1102361D01*
X1087124Y423471D02*
Y426374D01*
X1102361Y423471D02*
Y428550D01*
Y431452D02*
Y436531D01*
X1096557Y439216D02*
Y447923D01*
X1095106D01*
X1093654Y447197D01*
X1092929Y446472D01*
X1092203Y445020D01*
Y442844D01*
X1092929Y440667D01*
X1094380Y439216D01*
X1096557Y438490D01*
X1098008D01*
X1100184Y439216D01*
X1101636Y440667D01*
X1102361Y442844D01*
Y444295D01*
X1101636Y446472D01*
X1100184Y447923D01*
X1096557Y447197D02*
X1094380D01*
X1092929Y446472D01*
X1092203Y442844D02*
X1092929Y441393D01*
X1094380Y439942D01*
X1096557Y439216D01*
X1098008D01*
X1100184Y439942D01*
X1101636Y441393D01*
X1102361Y442844D01*
X1092203Y452421D02*
X1107440D01*
X1092203Y453147D02*
X1107440D01*
X1094380D02*
X1092929Y454598D01*
X1092203Y456049D01*
Y457500D01*
X1092929Y459677D01*
X1094380Y461128D01*
X1096557Y461853D01*
X1098008D01*
X1100184Y461128D01*
X1101636Y459677D01*
X1102361Y457500D01*
Y456049D01*
X1101636Y454598D01*
X1100184Y453147D01*
X1092203Y457500D02*
X1092929Y458951D01*
X1094380Y460402D01*
X1096557Y461128D01*
X1098008D01*
X1100184Y460402D01*
X1101636Y458951D01*
X1102361Y457500D01*
X1092203Y450244D02*
Y453147D01*
X1107440Y450244D02*
Y455323D01*
X1087124Y466134D02*
X1102361D01*
X1087124Y466860D02*
X1102361D01*
X1087124Y463958D02*
Y466860D01*
X1102361Y463958D02*
Y469036D01*
X1096557Y472519D02*
Y481226D01*
X1095106D01*
X1093654Y480500D01*
X1092929Y479775D01*
X1092203Y478324D01*
Y476147D01*
X1092929Y473970D01*
X1094380Y472519D01*
X1096557Y471794D01*
X1098008D01*
X1100184Y472519D01*
X1101636Y473970D01*
X1102361Y476147D01*
Y477598D01*
X1101636Y479775D01*
X1100184Y481226D01*
X1096557Y480500D02*
X1094380D01*
X1092929Y479775D01*
X1092203Y476147D02*
X1092929Y474696D01*
X1094380Y473245D01*
X1096557Y472519D01*
X1098008D01*
X1100184Y473245D01*
X1101636Y474696D01*
X1102361Y476147D01*
X1092203Y485724D02*
X1102361D01*
X1092203Y486450D02*
X1102361D01*
X1096557D02*
X1094380Y487175D01*
X1092929Y488627D01*
X1092203Y490078D01*
Y492254D01*
X1092929Y492980D01*
X1093654D01*
X1094380Y492254D01*
X1093654Y491529D01*
X1092929Y492254D01*
X1092203Y483548D02*
Y486450D01*
X1102361Y483548D02*
Y488627D01*
X1078230Y610396D02*
X1085847D01*
X1082039D01*
Y598970D01*
X1089656Y610396D02*
X1097274Y598970D01*
Y610396D02*
X1089656Y598970D01*
X1108700D02*
X1101083D01*
X1108700Y606587D01*
Y608492D01*
X1106796Y610396D01*
X1102987D01*
X1101083Y608492D01*
X1085847Y803272D02*
X1083943Y805176D01*
X1080134D01*
X1078230Y803272D01*
Y801367D01*
X1080134Y799463D01*
X1083943D01*
X1085847Y797559D01*
Y795654D01*
X1083943Y793750D01*
X1080134D01*
X1078230Y795654D01*
X1089656Y805176D02*
Y793750D01*
X1095369D01*
X1097274Y795654D01*
Y803272D01*
X1095369Y805176D01*
X1089656D01*
X1101083Y793750D02*
Y801367D01*
X1104891Y805176D01*
X1108700Y801367D01*
Y793750D01*
Y799463D01*
X1101083D01*
X1085847Y854072D02*
X1083943Y855976D01*
X1080134D01*
X1078230Y854072D01*
Y852168D01*
X1080134Y850263D01*
X1083943D01*
X1085847Y848359D01*
Y846454D01*
X1083943Y844550D01*
X1080134D01*
X1078230Y846454D01*
X1097274Y854072D02*
X1095369Y855976D01*
X1091561D01*
X1089656Y854072D01*
Y846454D01*
X1091561Y844550D01*
X1095369D01*
X1097274Y846454D01*
X1101083Y855976D02*
Y844550D01*
X1108700D01*
D30*
X1516380Y306070D02*
G03*
X1516380Y306070I-1270J0D01*
G01*
D31*
X1086356Y995550D02*
X1084451Y997454D01*
X1080642D01*
X1078738Y995550D01*
Y987932D01*
X1080642Y986028D01*
X1084451D01*
X1086356Y987932D01*
Y991741D01*
X1082547D01*
X1090164Y986028D02*
Y997454D01*
X1097782Y986028D01*
Y997454D01*
X1101591D02*
Y986028D01*
X1107304D01*
X1109208Y987932D01*
Y995550D01*
X1107304Y997454D01*
X1101591D01*
X1078738Y944750D02*
X1080642Y946654D01*
X1084451D01*
X1086356Y944750D01*
Y942846D01*
X1084451Y940941D01*
X1082547D01*
X1084451D01*
X1086356Y939037D01*
Y937132D01*
X1084451Y935228D01*
X1080642D01*
X1078738Y937132D01*
X1090164Y946654D02*
Y939037D01*
X1093973Y935228D01*
X1097782Y939037D01*
Y946654D01*
X1101591Y944750D02*
X1103495Y946654D01*
X1107304D01*
X1109208Y944750D01*
Y942846D01*
X1107304Y940941D01*
X1105399D01*
X1107304D01*
X1109208Y939037D01*
Y937132D01*
X1107304Y935228D01*
X1103495D01*
X1101591Y937132D01*
D32*
X1570145Y949324D02*
Y941918D01*
X1571626Y940436D01*
X1574589D01*
X1576070Y941918D01*
Y949324D01*
X1579032Y940436D02*
X1581995D01*
X1580514D01*
Y949324D01*
X1579032Y947842D01*
X1247354Y1082674D02*
Y1075268D01*
X1248835Y1073786D01*
X1251798D01*
X1253279Y1075268D01*
Y1082674D01*
X1262166D02*
X1256241D01*
Y1078230D01*
X1259204Y1079711D01*
X1260685D01*
X1262166Y1078230D01*
Y1075268D01*
X1260685Y1073786D01*
X1257722D01*
X1256241Y1075268D01*
X1275842Y935479D02*
Y928073D01*
X1277323Y926592D01*
X1280286D01*
X1281767Y928073D01*
Y935479D01*
X1290654Y926592D02*
X1284729D01*
X1290654Y932517D01*
Y933998D01*
X1289173Y935479D01*
X1286210D01*
X1284729Y933998D01*
X1146599Y747394D02*
X1143636D01*
X1145118D01*
Y739988D01*
X1143636Y738506D01*
X1142155D01*
X1140674Y739988D01*
X1155486Y738506D02*
X1149561D01*
X1155486Y744431D01*
Y745912D01*
X1154005Y747394D01*
X1151042D01*
X1149561Y745912D01*
X1526754Y1056006D02*
Y1064894D01*
X1531198D01*
X1532679Y1063412D01*
Y1060450D01*
X1531198Y1058969D01*
X1526754D01*
X1529716D02*
X1532679Y1056006D01*
X1535641Y1063412D02*
X1537122Y1064894D01*
X1540085D01*
X1541566Y1063412D01*
Y1061931D01*
X1540085Y1060450D01*
X1538604D01*
X1540085D01*
X1541566Y1058969D01*
Y1057488D01*
X1540085Y1056006D01*
X1537122D01*
X1535641Y1057488D01*
X1656080Y1056891D02*
Y1049485D01*
X1657561Y1048004D01*
X1660524D01*
X1662005Y1049485D01*
Y1056891D01*
X1664967Y1055410D02*
X1666448Y1056891D01*
X1669411D01*
X1670892Y1055410D01*
Y1053929D01*
X1669411Y1052448D01*
X1667930D01*
X1669411D01*
X1670892Y1050966D01*
Y1049485D01*
X1669411Y1048004D01*
X1666448D01*
X1664967Y1049485D01*
X1146599Y894714D02*
X1143636D01*
X1145118D01*
Y887308D01*
X1143636Y885826D01*
X1142155D01*
X1140674Y887308D01*
X1149561Y893232D02*
X1151042Y894714D01*
X1154005D01*
X1155486Y893232D01*
Y891751D01*
X1154005Y890270D01*
X1152524D01*
X1154005D01*
X1155486Y888789D01*
Y887308D01*
X1154005Y885826D01*
X1151042D01*
X1149561Y887308D01*
X1474470Y994832D02*
X1472989Y996314D01*
X1470026D01*
X1468545Y994832D01*
Y988908D01*
X1470026Y987426D01*
X1472989D01*
X1474470Y988908D01*
X1477432Y987426D02*
X1480395D01*
X1478914D01*
Y996314D01*
X1477432Y994832D01*
X1526754Y1022986D02*
Y1031874D01*
X1531198D01*
X1532679Y1030392D01*
Y1027430D01*
X1531198Y1025949D01*
X1526754D01*
X1529716D02*
X1532679Y1022986D01*
X1541566D02*
X1535641D01*
X1541566Y1028911D01*
Y1030392D01*
X1540085Y1031874D01*
X1537122D01*
X1535641Y1030392D01*
X1528235Y991236D02*
Y1000124D01*
X1532679D01*
X1534160Y998642D01*
Y995680D01*
X1532679Y994199D01*
X1528235D01*
X1531198D02*
X1534160Y991236D01*
X1537122D02*
X1540085D01*
X1538604D01*
Y1000124D01*
X1537122Y998642D01*
X1155192Y555749D02*
Y548343D01*
X1156673Y546862D01*
X1159636D01*
X1161117Y548343D01*
Y555749D01*
X1168523Y546862D02*
Y555749D01*
X1164079Y551306D01*
X1170004D01*
X1145623Y1042413D02*
X1142660D01*
X1144142D01*
Y1035007D01*
X1142660Y1033526D01*
X1141179D01*
X1139698Y1035007D01*
X1148585Y1033526D02*
X1151547D01*
X1150066D01*
Y1042413D01*
X1148585Y1040932D01*
X1539240Y730758D02*
Y739645D01*
X1543684D01*
X1545165Y738164D01*
Y735202D01*
X1543684Y733720D01*
X1539240D01*
X1542202D02*
X1545165Y730758D01*
X1554052Y739645D02*
X1548127D01*
Y735202D01*
X1551089Y736683D01*
X1552571D01*
X1554052Y735202D01*
Y732239D01*
X1552571Y730758D01*
X1549608D01*
X1548127Y732239D01*
X1540764Y893318D02*
Y902205D01*
X1545208D01*
X1546689Y900724D01*
Y897762D01*
X1545208Y896280D01*
X1540764D01*
X1543726D02*
X1546689Y893318D01*
X1555576Y902205D02*
X1552614Y900724D01*
X1549651Y897762D01*
Y894799D01*
X1551132Y893318D01*
X1554095D01*
X1555576Y894799D01*
Y896280D01*
X1554095Y897762D01*
X1549651D01*
X1387856Y1039876D02*
Y1048763D01*
X1392300D01*
X1393781Y1047282D01*
Y1044320D01*
X1392300Y1042838D01*
X1387856D01*
X1390818D02*
X1393781Y1039876D01*
X1401187D02*
Y1048763D01*
X1396743Y1044320D01*
X1402668D01*
%TF.MD5,a5e309c6e3c1365bdbb97ddc8f749148*%
M02*
