%TF.GenerationSoftware,Altium Limited,Altium Designer,24.9.1 (31)*%
G04 Layer_Physical_Order=1*
G04 Layer_Color=255*
%FSLAX44Y44*%
%MOMM*%
%TF.SameCoordinates,85F17886-7C47-4E42-9478-76476F6C8A6A*%
%TF.FilePolarity,Positive*%
%TF.FileFunction,Copper,L1,Top,Signal*%
%TF.Part,Single*%
G01*
G75*
%TA.AperFunction,Conductor*%
%ADD10C,0.2540*%
%TA.AperFunction,ComponentPad*%
%ADD11C,1.3080*%
%ADD12C,1.2580*%
%ADD13C,1.2080*%
%ADD14C,1.2800*%
%ADD15C,1.4732*%
%ADD16R,1.9500X1.9500*%
%ADD17C,1.9500*%
%TA.AperFunction,ViaPad*%
%ADD18C,3.8100*%
%TA.AperFunction,ComponentPad*%
%ADD19C,1.5000*%
%ADD20R,1.1000X1.1000*%
%ADD21C,1.1000*%
%ADD22C,3.7480*%
%ADD23C,1.7240*%
G36*
X1747886Y1105983D02*
X1750139Y1105806D01*
X1754737Y1104702D01*
X1759106Y1102892D01*
X1763138Y1100422D01*
X1766734Y1097351D01*
X1769805Y1093755D01*
X1772275Y1089723D01*
X1774085Y1085354D01*
X1775189Y1080756D01*
X1775401Y1078056D01*
X1775401Y295910D01*
X1775413Y295848D01*
X1775203Y293178D01*
X1774099Y288580D01*
X1772290Y284211D01*
X1769819Y280179D01*
X1766748Y276583D01*
X1763152Y273512D01*
X1759120Y271041D01*
X1754752Y269232D01*
X1750154Y268128D01*
X1747910Y267951D01*
X1747522Y268029D01*
X1080315Y268305D01*
X1077775Y268306D01*
X1075282Y268418D01*
X1072081Y268670D01*
X1066527Y270004D01*
X1061250Y272189D01*
X1056379Y275174D01*
X1052036Y278883D01*
X1048327Y283227D01*
X1045342Y288097D01*
X1043156Y293374D01*
X1041823Y298928D01*
X1041398Y304320D01*
X1041459Y304622D01*
X1041459Y1072426D01*
X1041405Y1072698D01*
X1041797Y1077683D01*
X1043028Y1082810D01*
X1045046Y1087681D01*
X1047801Y1092177D01*
X1051225Y1096186D01*
X1055235Y1099611D01*
X1059730Y1102366D01*
X1064602Y1104383D01*
X1069729Y1105614D01*
X1072495Y1105832D01*
X1074985Y1105953D01*
X1077525Y1105953D01*
X1742885Y1106111D01*
X1744981Y1106111D01*
X1745425Y1106112D01*
X1747886Y1105983D01*
D02*
G37*
%LPC*%
G36*
X1076546Y1099820D02*
X1072294D01*
X1068122Y1098990D01*
X1064193Y1097363D01*
X1060657Y1095000D01*
X1057650Y1091993D01*
X1055287Y1088457D01*
X1053660Y1084528D01*
X1052830Y1080356D01*
Y1076104D01*
X1053660Y1071932D01*
X1055287Y1068003D01*
X1057650Y1064467D01*
X1060657Y1061460D01*
X1064193Y1059097D01*
X1068122Y1057470D01*
X1072294Y1056640D01*
X1076546D01*
X1080718Y1057470D01*
X1084647Y1059097D01*
X1088183Y1061460D01*
X1091190Y1064467D01*
X1093553Y1068003D01*
X1095180Y1071932D01*
X1096010Y1076104D01*
Y1080356D01*
X1095180Y1084528D01*
X1093553Y1088457D01*
X1091190Y1091993D01*
X1088183Y1095000D01*
X1084647Y1097363D01*
X1080718Y1098990D01*
X1076546Y1099820D01*
D02*
G37*
G36*
X1748682Y1099695D02*
X1744429D01*
X1740258Y1098865D01*
X1736329Y1097238D01*
X1732793Y1094875D01*
X1729786Y1091868D01*
X1727423Y1088332D01*
X1725796Y1084403D01*
X1724966Y1080231D01*
Y1075979D01*
X1725796Y1071807D01*
X1727423Y1067878D01*
X1729786Y1064342D01*
X1732793Y1061335D01*
X1736329Y1058972D01*
X1740258Y1057345D01*
X1744429Y1056515D01*
X1748682D01*
X1752854Y1057345D01*
X1756783Y1058972D01*
X1760319Y1061335D01*
X1763326Y1064342D01*
X1765689Y1067878D01*
X1767316Y1071807D01*
X1768146Y1075979D01*
Y1080231D01*
X1767316Y1084403D01*
X1765689Y1088332D01*
X1763326Y1091868D01*
X1760319Y1094875D01*
X1756783Y1097238D01*
X1752854Y1098865D01*
X1748682Y1099695D01*
D02*
G37*
G36*
X1395782Y1031120D02*
X1393138D01*
X1390585Y1030436D01*
X1388295Y1029114D01*
X1386426Y1027245D01*
X1385110Y1024965D01*
X1358960D01*
X1358034Y1026569D01*
X1356369Y1028234D01*
X1354331Y1029411D01*
X1352057Y1030020D01*
X1349703D01*
X1347429Y1029411D01*
X1345391Y1028234D01*
X1343726Y1026569D01*
X1342549Y1024531D01*
X1341940Y1022257D01*
Y1019903D01*
X1342549Y1017629D01*
X1343726Y1015591D01*
X1345391Y1013926D01*
X1347429Y1012749D01*
X1349703Y1012140D01*
X1352057D01*
X1354331Y1012749D01*
X1356369Y1013926D01*
X1358034Y1015591D01*
X1358960Y1017195D01*
X1385110D01*
X1386426Y1014915D01*
X1388295Y1013046D01*
X1390585Y1011724D01*
X1393138Y1011040D01*
X1395782D01*
X1398335Y1011724D01*
X1400625Y1013046D01*
X1402494Y1014915D01*
X1403816Y1017205D01*
X1404500Y1019758D01*
Y1022402D01*
X1403816Y1024955D01*
X1402494Y1027245D01*
X1400625Y1029114D01*
X1398335Y1030436D01*
X1395782Y1031120D01*
D02*
G37*
G36*
X1281737Y1030020D02*
X1279383D01*
X1277109Y1029411D01*
X1275071Y1028234D01*
X1273406Y1026569D01*
X1272229Y1024531D01*
X1271620Y1022257D01*
Y1019903D01*
X1272229Y1017629D01*
X1273406Y1015591D01*
X1275071Y1013926D01*
X1277109Y1012749D01*
X1279383Y1012140D01*
X1281737D01*
X1284011Y1012749D01*
X1286049Y1013926D01*
X1287714Y1015591D01*
X1288891Y1017629D01*
X1289500Y1019903D01*
Y1022257D01*
X1288891Y1024531D01*
X1287714Y1026569D01*
X1286049Y1028234D01*
X1284011Y1029411D01*
X1281737Y1030020D01*
D02*
G37*
G36*
X1497382Y1031120D02*
X1494738D01*
X1492185Y1030436D01*
X1489895Y1029114D01*
X1488026Y1027245D01*
X1486704Y1024955D01*
X1486020Y1022402D01*
Y1019758D01*
X1486704Y1017205D01*
X1488026Y1014915D01*
X1489895Y1013046D01*
X1492185Y1011724D01*
X1494738Y1011040D01*
X1497382D01*
X1499935Y1011724D01*
X1502225Y1013046D01*
X1504094Y1014915D01*
X1505416Y1017205D01*
X1506100Y1019758D01*
Y1022402D01*
X1505416Y1024955D01*
X1504094Y1027245D01*
X1502225Y1029114D01*
X1499935Y1030436D01*
X1497382Y1031120D01*
D02*
G37*
G36*
X1637082Y1052710D02*
X1634438D01*
X1631885Y1052026D01*
X1629595Y1050704D01*
X1627726Y1048835D01*
X1626404Y1046545D01*
X1625720Y1043992D01*
Y1041348D01*
X1626404Y1038795D01*
X1627726Y1036505D01*
X1629595Y1034636D01*
X1631885Y1033314D01*
X1634438Y1032630D01*
X1637082D01*
X1639635Y1033314D01*
X1641925Y1034636D01*
X1643794Y1036505D01*
X1645110Y1038785D01*
X1673775D01*
X1678834Y1033726D01*
X1678520Y1032552D01*
Y1030435D01*
X1679068Y1028391D01*
X1680126Y1026557D01*
X1681429Y1025255D01*
X1681623Y1024583D01*
Y1022911D01*
X1681429Y1022240D01*
X1680126Y1020937D01*
X1679068Y1019103D01*
X1678520Y1017058D01*
Y1014941D01*
X1679068Y1012897D01*
X1680126Y1011063D01*
X1681268Y1009921D01*
X1681469Y1008380D01*
X1681268Y1006839D01*
X1680126Y1005697D01*
X1679519Y1004645D01*
X1647529D01*
X1645119Y1007055D01*
X1645800Y1009598D01*
Y1012242D01*
X1645116Y1014795D01*
X1643794Y1017085D01*
X1641925Y1018954D01*
X1639635Y1020276D01*
X1637082Y1020960D01*
X1634438D01*
X1631885Y1020276D01*
X1629595Y1018954D01*
X1627726Y1017085D01*
X1626404Y1014795D01*
X1625720Y1012242D01*
Y1009598D01*
X1626404Y1007045D01*
X1627726Y1004755D01*
X1629595Y1002886D01*
X1631885Y1001564D01*
X1634438Y1000880D01*
X1637082D01*
X1639625Y1001561D01*
X1643173Y998013D01*
X1644433Y997171D01*
X1645920Y996875D01*
X1677846D01*
X1678514Y995844D01*
X1678520Y993306D01*
X1678520D01*
Y982720D01*
X1677585Y981785D01*
X1645110D01*
X1643794Y984065D01*
X1641925Y985934D01*
X1639635Y987256D01*
X1637082Y987940D01*
X1634438D01*
X1631885Y987256D01*
X1629595Y985934D01*
X1627726Y984065D01*
X1626404Y981775D01*
X1625720Y979222D01*
Y976578D01*
X1626404Y974025D01*
X1627726Y971735D01*
X1629595Y969866D01*
X1631885Y968544D01*
X1634438Y967860D01*
X1637082D01*
X1639635Y968544D01*
X1641925Y969866D01*
X1643794Y971735D01*
X1645110Y974015D01*
X1679194D01*
X1680681Y974311D01*
X1681941Y975153D01*
X1684014Y977226D01*
X1694600D01*
Y993306D01*
X1694068D01*
X1692994Y995823D01*
X1694052Y997657D01*
X1694600Y999702D01*
Y1001818D01*
X1694052Y1003863D01*
X1692994Y1005697D01*
X1691852Y1006839D01*
X1691651Y1008380D01*
X1691852Y1009921D01*
X1692994Y1011063D01*
X1694052Y1012897D01*
X1694600Y1014941D01*
Y1017058D01*
X1694052Y1019103D01*
X1692994Y1020937D01*
X1691691Y1022240D01*
X1691497Y1022911D01*
Y1024583D01*
X1691691Y1025255D01*
X1692994Y1026557D01*
X1694052Y1028391D01*
X1694600Y1030435D01*
Y1032552D01*
X1694052Y1034597D01*
X1692994Y1036431D01*
X1691497Y1037928D01*
X1689663Y1038986D01*
X1687619Y1039534D01*
X1685502D01*
X1684328Y1039220D01*
X1678131Y1045417D01*
X1676871Y1046259D01*
X1675384Y1046555D01*
X1645110D01*
X1643794Y1048835D01*
X1641925Y1050704D01*
X1639635Y1052026D01*
X1637082Y1052710D01*
D02*
G37*
G36*
X1182718Y1004160D02*
X1179482D01*
X1176356Y1003323D01*
X1173554Y1001704D01*
X1171266Y999416D01*
X1169648Y996614D01*
X1168810Y993488D01*
Y990252D01*
X1169648Y987126D01*
X1171266Y984324D01*
X1173554Y982036D01*
X1176356Y980417D01*
X1179482Y979580D01*
X1182718D01*
X1185844Y980417D01*
X1188646Y982036D01*
X1190934Y984324D01*
X1192552Y987126D01*
X1193390Y990252D01*
Y993488D01*
X1192552Y996614D01*
X1190934Y999416D01*
X1188646Y1001704D01*
X1185844Y1003323D01*
X1182718Y1004160D01*
D02*
G37*
G36*
X1499922Y977780D02*
X1499870D01*
Y969010D01*
X1508640D01*
Y969062D01*
X1507956Y971615D01*
X1506634Y973905D01*
X1504765Y975774D01*
X1502475Y977096D01*
X1499922Y977780D01*
D02*
G37*
G36*
X1497330D02*
X1497278D01*
X1494725Y977096D01*
X1492435Y975774D01*
X1490566Y973905D01*
X1489244Y971615D01*
X1488560Y969062D01*
Y969010D01*
X1497330D01*
Y977780D01*
D02*
G37*
G36*
X1535482Y987940D02*
X1532838D01*
X1530285Y987256D01*
X1527995Y985934D01*
X1526126Y984065D01*
X1524804Y981775D01*
X1524120Y979222D01*
Y976578D01*
X1524804Y974025D01*
X1526126Y971735D01*
X1527995Y969866D01*
X1530285Y968544D01*
X1532838Y967860D01*
X1535482D01*
X1538035Y968544D01*
X1540325Y969866D01*
X1542194Y971735D01*
X1543516Y974025D01*
X1544200Y976578D01*
Y979222D01*
X1543516Y981775D01*
X1542194Y984065D01*
X1540325Y985934D01*
X1538035Y987256D01*
X1535482Y987940D01*
D02*
G37*
G36*
X1508640Y966470D02*
X1499870D01*
Y957700D01*
X1499922D01*
X1502475Y958384D01*
X1504765Y959706D01*
X1506634Y961575D01*
X1507956Y963865D01*
X1508640Y966418D01*
Y966470D01*
D02*
G37*
G36*
X1497330D02*
X1488560D01*
Y966418D01*
X1489244Y963865D01*
X1490566Y961575D01*
X1492435Y959706D01*
X1494725Y958384D01*
X1497278Y957700D01*
X1497330D01*
Y966470D01*
D02*
G37*
G36*
X1449122Y977780D02*
X1446478D01*
X1443925Y977096D01*
X1441635Y975774D01*
X1439766Y973905D01*
X1438444Y971615D01*
X1437760Y969062D01*
Y966418D01*
X1438444Y963865D01*
X1439766Y961575D01*
X1441635Y959706D01*
X1443925Y958384D01*
X1446478Y957700D01*
X1449122D01*
X1451675Y958384D01*
X1453965Y959706D01*
X1455834Y961575D01*
X1457156Y963865D01*
X1457840Y966418D01*
Y969062D01*
X1457156Y971615D01*
X1455834Y973905D01*
X1453965Y975774D01*
X1451675Y977096D01*
X1449122Y977780D01*
D02*
G37*
G36*
X1535482Y1052710D02*
X1532838D01*
X1530285Y1052026D01*
X1527995Y1050704D01*
X1526126Y1048835D01*
X1524804Y1046545D01*
X1524120Y1043992D01*
Y1041348D01*
X1524804Y1038795D01*
X1526126Y1036505D01*
X1527995Y1034636D01*
X1530285Y1033314D01*
X1532838Y1032630D01*
X1535482D01*
X1538035Y1033314D01*
X1540325Y1034636D01*
X1542194Y1036505D01*
X1542421Y1036535D01*
X1620303Y958654D01*
X1620093Y956652D01*
X1617717Y955717D01*
X1559767Y1013667D01*
X1558507Y1014509D01*
X1557020Y1014805D01*
X1543510D01*
X1542194Y1017085D01*
X1540325Y1018954D01*
X1538035Y1020276D01*
X1535482Y1020960D01*
X1532838D01*
X1530285Y1020276D01*
X1527995Y1018954D01*
X1526126Y1017085D01*
X1524804Y1014795D01*
X1524120Y1012242D01*
Y1009598D01*
X1524804Y1007045D01*
X1526126Y1004755D01*
X1527995Y1002886D01*
X1530285Y1001564D01*
X1532838Y1000880D01*
X1535482D01*
X1538035Y1001564D01*
X1540325Y1002886D01*
X1542194Y1004755D01*
X1543510Y1007035D01*
X1555411D01*
X1615365Y947081D01*
Y908389D01*
X1605821Y898845D01*
X1603935Y899350D01*
X1601545D01*
X1599235Y898731D01*
X1597165Y897536D01*
X1595474Y895845D01*
X1594279Y893775D01*
X1593660Y891465D01*
Y889075D01*
X1594279Y886765D01*
X1595474Y884695D01*
X1597165Y883004D01*
X1599235Y881809D01*
X1601545Y881190D01*
X1603935D01*
X1606245Y881809D01*
X1608315Y883004D01*
X1610006Y884695D01*
X1611201Y886765D01*
X1611820Y889075D01*
Y891465D01*
X1611315Y893351D01*
X1618099Y900135D01*
X1620445Y899163D01*
Y888069D01*
X1605821Y873445D01*
X1603935Y873950D01*
X1601545D01*
X1599235Y873331D01*
X1597165Y872136D01*
X1595474Y870445D01*
X1594279Y868375D01*
X1593660Y866065D01*
Y863675D01*
X1594279Y861365D01*
X1595474Y859295D01*
X1597165Y857604D01*
X1599235Y856409D01*
X1601545Y855790D01*
X1603935D01*
X1606245Y856409D01*
X1608315Y857604D01*
X1610006Y859295D01*
X1611201Y861365D01*
X1611820Y863675D01*
Y866065D01*
X1611315Y867951D01*
X1627077Y883713D01*
X1627919Y884973D01*
X1628215Y886460D01*
Y960120D01*
X1627919Y961607D01*
X1627077Y962867D01*
X1546174Y1043770D01*
X1544914Y1044612D01*
X1543984Y1044797D01*
X1543516Y1046545D01*
X1542194Y1048835D01*
X1540325Y1050704D01*
X1538035Y1052026D01*
X1535482Y1052710D01*
D02*
G37*
G36*
X1182718Y953360D02*
X1182370D01*
Y942340D01*
X1193390D01*
Y942688D01*
X1192552Y945814D01*
X1190934Y948616D01*
X1188646Y950904D01*
X1185844Y952523D01*
X1182718Y953360D01*
D02*
G37*
G36*
X1179830D02*
X1179482D01*
X1176356Y952523D01*
X1173554Y950904D01*
X1171266Y948616D01*
X1169648Y945814D01*
X1168810Y942688D01*
Y942340D01*
X1179830D01*
Y953360D01*
D02*
G37*
G36*
X1756335Y950150D02*
X1753945D01*
X1751635Y949531D01*
X1749565Y948336D01*
X1747874Y946645D01*
X1746679Y944575D01*
X1746060Y942265D01*
Y939875D01*
X1746679Y937565D01*
X1747874Y935495D01*
X1749565Y933804D01*
X1751635Y932609D01*
X1753945Y931990D01*
X1756335D01*
X1758645Y932609D01*
X1760715Y933804D01*
X1762406Y935495D01*
X1763601Y937565D01*
X1764220Y939875D01*
Y942265D01*
X1763601Y944575D01*
X1762406Y946645D01*
X1760715Y948336D01*
X1758645Y949531D01*
X1756335Y950150D01*
D02*
G37*
G36*
X1603935D02*
X1601545D01*
X1599235Y949531D01*
X1597165Y948336D01*
X1595474Y946645D01*
X1594279Y944575D01*
X1593660Y942265D01*
Y939875D01*
X1594279Y937565D01*
X1595474Y935495D01*
X1597165Y933804D01*
X1599235Y932609D01*
X1601545Y931990D01*
X1603935D01*
X1606245Y932609D01*
X1608315Y933804D01*
X1610006Y935495D01*
X1611201Y937565D01*
X1611820Y939875D01*
Y942265D01*
X1611201Y944575D01*
X1610006Y946645D01*
X1608315Y948336D01*
X1606245Y949531D01*
X1603935Y950150D01*
D02*
G37*
G36*
X1193390Y939800D02*
X1182370D01*
Y928780D01*
X1182718D01*
X1185844Y929617D01*
X1188646Y931236D01*
X1190934Y933524D01*
X1192552Y936326D01*
X1193390Y939452D01*
Y939800D01*
D02*
G37*
G36*
X1179830D02*
X1168810D01*
Y939452D01*
X1169648Y936326D01*
X1171266Y933524D01*
X1173554Y931236D01*
X1176356Y929617D01*
X1179482Y928780D01*
X1179830D01*
Y939800D01*
D02*
G37*
G36*
X1756335Y924750D02*
X1753945D01*
X1751635Y924131D01*
X1749565Y922936D01*
X1747874Y921245D01*
X1746679Y919175D01*
X1746060Y916865D01*
Y914475D01*
X1746679Y912165D01*
X1747874Y910095D01*
X1749565Y908404D01*
X1751635Y907209D01*
X1753945Y906590D01*
X1756335D01*
X1758645Y907209D01*
X1760715Y908404D01*
X1762406Y910095D01*
X1763601Y912165D01*
X1764220Y914475D01*
Y916865D01*
X1763601Y919175D01*
X1762406Y921245D01*
X1760715Y922936D01*
X1758645Y924131D01*
X1756335Y924750D01*
D02*
G37*
G36*
X1603935D02*
X1601545D01*
X1599235Y924131D01*
X1597165Y922936D01*
X1595474Y921245D01*
X1594279Y919175D01*
X1593660Y916865D01*
Y914475D01*
X1594279Y912165D01*
X1595474Y910095D01*
X1597165Y908404D01*
X1599235Y907209D01*
X1601545Y906590D01*
X1603935D01*
X1606245Y907209D01*
X1608315Y908404D01*
X1610006Y910095D01*
X1611201Y912165D01*
X1611820Y914475D01*
Y916865D01*
X1611201Y919175D01*
X1610006Y921245D01*
X1608315Y922936D01*
X1606245Y924131D01*
X1603935Y924750D01*
D02*
G37*
G36*
X1480854Y914146D02*
X1478246D01*
X1475726Y913471D01*
X1473468Y912167D01*
X1471623Y910322D01*
X1470319Y908064D01*
X1469644Y905544D01*
Y902936D01*
X1470319Y900416D01*
X1471623Y898158D01*
X1473468Y896313D01*
X1475726Y895009D01*
X1478246Y894334D01*
X1480854D01*
X1483374Y895009D01*
X1485632Y896313D01*
X1487477Y898158D01*
X1488781Y900416D01*
X1489456Y902936D01*
Y905544D01*
X1488781Y908064D01*
X1487477Y910322D01*
X1485632Y912167D01*
X1483374Y913471D01*
X1480854Y914146D01*
D02*
G37*
G36*
X1328454D02*
X1325846D01*
X1323326Y913471D01*
X1321068Y912167D01*
X1319223Y910322D01*
X1317919Y908064D01*
X1317244Y905544D01*
Y902936D01*
X1317919Y900416D01*
X1319223Y898158D01*
X1321068Y896313D01*
X1323326Y895009D01*
X1325846Y894334D01*
X1328454D01*
X1330974Y895009D01*
X1333232Y896313D01*
X1335077Y898158D01*
X1336381Y900416D01*
X1337056Y902936D01*
Y905544D01*
X1336381Y908064D01*
X1335077Y910322D01*
X1333232Y912167D01*
X1330974Y913471D01*
X1328454Y914146D01*
D02*
G37*
G36*
X1756335Y899350D02*
X1753945D01*
X1751635Y898731D01*
X1749565Y897536D01*
X1747874Y895845D01*
X1746679Y893775D01*
X1746060Y891465D01*
Y889075D01*
X1746679Y886765D01*
X1747874Y884695D01*
X1749565Y883004D01*
X1751635Y881809D01*
X1753945Y881190D01*
X1756335D01*
X1758645Y881809D01*
X1760715Y883004D01*
X1762406Y884695D01*
X1763601Y886765D01*
X1764220Y889075D01*
Y891465D01*
X1763601Y893775D01*
X1762406Y895845D01*
X1760715Y897536D01*
X1758645Y898731D01*
X1756335Y899350D01*
D02*
G37*
G36*
X1551992Y887610D02*
X1551940D01*
Y878840D01*
X1560710D01*
Y878892D01*
X1560026Y881445D01*
X1558704Y883735D01*
X1556835Y885604D01*
X1554545Y886926D01*
X1551992Y887610D01*
D02*
G37*
G36*
X1549400D02*
X1549348D01*
X1546795Y886926D01*
X1544505Y885604D01*
X1542636Y883735D01*
X1541314Y881445D01*
X1540630Y878892D01*
Y878840D01*
X1549400D01*
Y887610D01*
D02*
G37*
G36*
X1480854Y888746D02*
X1478246D01*
X1475726Y888071D01*
X1473468Y886767D01*
X1471623Y884922D01*
X1470319Y882664D01*
X1469644Y880144D01*
Y877536D01*
X1470319Y875016D01*
X1471623Y872758D01*
X1473468Y870913D01*
X1475726Y869609D01*
X1478246Y868934D01*
X1480854D01*
X1483374Y869609D01*
X1485632Y870913D01*
X1487477Y872758D01*
X1488781Y875016D01*
X1489456Y877536D01*
Y880144D01*
X1488781Y882664D01*
X1487477Y884922D01*
X1485632Y886767D01*
X1483374Y888071D01*
X1480854Y888746D01*
D02*
G37*
G36*
X1328454D02*
X1325846D01*
X1323326Y888071D01*
X1321068Y886767D01*
X1319223Y884922D01*
X1317919Y882664D01*
X1317244Y880144D01*
Y877536D01*
X1317919Y875016D01*
X1319223Y872758D01*
X1321068Y870913D01*
X1323326Y869609D01*
X1325846Y868934D01*
X1328454D01*
X1330974Y869609D01*
X1333232Y870913D01*
X1335077Y872758D01*
X1336381Y875016D01*
X1337056Y877536D01*
Y880144D01*
X1336381Y882664D01*
X1335077Y884922D01*
X1333232Y886767D01*
X1330974Y888071D01*
X1328454Y888746D01*
D02*
G37*
G36*
X1560710Y876300D02*
X1551940D01*
Y867530D01*
X1551992D01*
X1554545Y868214D01*
X1556835Y869536D01*
X1558704Y871405D01*
X1560026Y873695D01*
X1560710Y876248D01*
Y876300D01*
D02*
G37*
G36*
X1549400D02*
X1540630D01*
Y876248D01*
X1541314Y873695D01*
X1542636Y871405D01*
X1544505Y869536D01*
X1546795Y868214D01*
X1549348Y867530D01*
X1549400D01*
Y876300D01*
D02*
G37*
G36*
X1756335Y873950D02*
X1753945D01*
X1751635Y873331D01*
X1749565Y872136D01*
X1747874Y870445D01*
X1746679Y868375D01*
X1746060Y866065D01*
Y863675D01*
X1746679Y861365D01*
X1747874Y859295D01*
X1749565Y857604D01*
X1751635Y856409D01*
X1753945Y855790D01*
X1756335D01*
X1758645Y856409D01*
X1760715Y857604D01*
X1762406Y859295D01*
X1763601Y861365D01*
X1764220Y863675D01*
Y866065D01*
X1763601Y868375D01*
X1762406Y870445D01*
X1760715Y872136D01*
X1758645Y873331D01*
X1756335Y873950D01*
D02*
G37*
G36*
X1480854Y863346D02*
X1478246D01*
X1475726Y862671D01*
X1473468Y861367D01*
X1471623Y859522D01*
X1470319Y857264D01*
X1469644Y854744D01*
Y852136D01*
X1470319Y849616D01*
X1471623Y847358D01*
X1473468Y845513D01*
X1475726Y844209D01*
X1478246Y843534D01*
X1480854D01*
X1483374Y844209D01*
X1485632Y845513D01*
X1487477Y847358D01*
X1488781Y849616D01*
X1489456Y852136D01*
Y854744D01*
X1488781Y857264D01*
X1487477Y859522D01*
X1485632Y861367D01*
X1483374Y862671D01*
X1480854Y863346D01*
D02*
G37*
G36*
X1328454D02*
X1325846D01*
X1323326Y862671D01*
X1321068Y861367D01*
X1319223Y859522D01*
X1317919Y857264D01*
X1317244Y854744D01*
Y852136D01*
X1317919Y849616D01*
X1319223Y847358D01*
X1321068Y845513D01*
X1323326Y844209D01*
X1325846Y843534D01*
X1328454D01*
X1330974Y844209D01*
X1333232Y845513D01*
X1335077Y847358D01*
X1336381Y849616D01*
X1337056Y852136D01*
Y854744D01*
X1336381Y857264D01*
X1335077Y859522D01*
X1333232Y861367D01*
X1330974Y862671D01*
X1328454Y863346D01*
D02*
G37*
G36*
X1756335Y848550D02*
X1753945D01*
X1751635Y847931D01*
X1749565Y846736D01*
X1747874Y845045D01*
X1746679Y842975D01*
X1746060Y840665D01*
Y838275D01*
X1746679Y835965D01*
X1747874Y833895D01*
X1749565Y832204D01*
X1751635Y831009D01*
X1753945Y830390D01*
X1756335D01*
X1758645Y831009D01*
X1760715Y832204D01*
X1762406Y833895D01*
X1763601Y835965D01*
X1764220Y838275D01*
Y840665D01*
X1763601Y842975D01*
X1762406Y845045D01*
X1760715Y846736D01*
X1758645Y847931D01*
X1756335Y848550D01*
D02*
G37*
G36*
X1603935D02*
X1601545D01*
X1599235Y847931D01*
X1597165Y846736D01*
X1595474Y845045D01*
X1594279Y842975D01*
X1593660Y840665D01*
Y838275D01*
X1594279Y835965D01*
X1595474Y833895D01*
X1597165Y832204D01*
X1599235Y831009D01*
X1601545Y830390D01*
X1603935D01*
X1606245Y831009D01*
X1608315Y832204D01*
X1610006Y833895D01*
X1611201Y835965D01*
X1611820Y838275D01*
Y840665D01*
X1611201Y842975D01*
X1610006Y845045D01*
X1608315Y846736D01*
X1606245Y847931D01*
X1603935Y848550D01*
D02*
G37*
G36*
X1480854Y837946D02*
X1478246D01*
X1475726Y837271D01*
X1473468Y835967D01*
X1471623Y834122D01*
X1470319Y831864D01*
X1469644Y829344D01*
Y826736D01*
X1470319Y824216D01*
X1471623Y821958D01*
X1473468Y820113D01*
X1475726Y818809D01*
X1478246Y818134D01*
X1480854D01*
X1483374Y818809D01*
X1485632Y820113D01*
X1487477Y821958D01*
X1488781Y824216D01*
X1489456Y826736D01*
Y829344D01*
X1488781Y831864D01*
X1487477Y834122D01*
X1485632Y835967D01*
X1483374Y837271D01*
X1480854Y837946D01*
D02*
G37*
G36*
X1705610Y823130D02*
Y815340D01*
X1713400D01*
X1712801Y817575D01*
X1711606Y819645D01*
X1709915Y821336D01*
X1707845Y822531D01*
X1705610Y823130D01*
D02*
G37*
G36*
X1703070D02*
X1700835Y822531D01*
X1698765Y821336D01*
X1697074Y819645D01*
X1695879Y817575D01*
X1695280Y815340D01*
X1703070D01*
Y823130D01*
D02*
G37*
G36*
X1713400Y812800D02*
X1705610D01*
Y805010D01*
X1707845Y805609D01*
X1709915Y806804D01*
X1711606Y808495D01*
X1712801Y810565D01*
X1713400Y812800D01*
D02*
G37*
G36*
X1703070D02*
X1695280D01*
X1695879Y810565D01*
X1697074Y808495D01*
X1698765Y806804D01*
X1700835Y805609D01*
X1703070Y805010D01*
Y812800D01*
D02*
G37*
G36*
X1756335Y823150D02*
X1753945D01*
X1751635Y822531D01*
X1749565Y821336D01*
X1747874Y819645D01*
X1746679Y817575D01*
X1746060Y815265D01*
Y812875D01*
X1746679Y810565D01*
X1747874Y808495D01*
X1749565Y806804D01*
X1751635Y805609D01*
X1753945Y804990D01*
X1756335D01*
X1758645Y805609D01*
X1760715Y806804D01*
X1762406Y808495D01*
X1763601Y810565D01*
X1764220Y812875D01*
Y815265D01*
X1763601Y817575D01*
X1762406Y819645D01*
X1760715Y821336D01*
X1758645Y822531D01*
X1756335Y823150D01*
D02*
G37*
G36*
X1730935D02*
X1728545D01*
X1726235Y822531D01*
X1724165Y821336D01*
X1722474Y819645D01*
X1721279Y817575D01*
X1720660Y815265D01*
Y812875D01*
X1721279Y810565D01*
X1722474Y808495D01*
X1724165Y806804D01*
X1726235Y805609D01*
X1728545Y804990D01*
X1730935D01*
X1733245Y805609D01*
X1735315Y806804D01*
X1737006Y808495D01*
X1738201Y810565D01*
X1738820Y812875D01*
Y815265D01*
X1738201Y817575D01*
X1737006Y819645D01*
X1735315Y821336D01*
X1733245Y822531D01*
X1730935Y823150D01*
D02*
G37*
G36*
X1680135D02*
X1677745D01*
X1675435Y822531D01*
X1673365Y821336D01*
X1671674Y819645D01*
X1670479Y817575D01*
X1669860Y815265D01*
Y812875D01*
X1670479Y810565D01*
X1671674Y808495D01*
X1673365Y806804D01*
X1675435Y805609D01*
X1677745Y804990D01*
X1680135D01*
X1682445Y805609D01*
X1684515Y806804D01*
X1686206Y808495D01*
X1687401Y810565D01*
X1688020Y812875D01*
Y815265D01*
X1687401Y817575D01*
X1686206Y819645D01*
X1684515Y821336D01*
X1682445Y822531D01*
X1680135Y823150D01*
D02*
G37*
G36*
X1654735D02*
X1652345D01*
X1650035Y822531D01*
X1647965Y821336D01*
X1646274Y819645D01*
X1645079Y817575D01*
X1644460Y815265D01*
Y812875D01*
X1645079Y810565D01*
X1646274Y808495D01*
X1647965Y806804D01*
X1650035Y805609D01*
X1652345Y804990D01*
X1654735D01*
X1657045Y805609D01*
X1659115Y806804D01*
X1660806Y808495D01*
X1662001Y810565D01*
X1662620Y812875D01*
Y815265D01*
X1662001Y817575D01*
X1660806Y819645D01*
X1659115Y821336D01*
X1657045Y822531D01*
X1654735Y823150D01*
D02*
G37*
G36*
X1629335D02*
X1626945D01*
X1624635Y822531D01*
X1622565Y821336D01*
X1620874Y819645D01*
X1619679Y817575D01*
X1619060Y815265D01*
Y812875D01*
X1619679Y810565D01*
X1620874Y808495D01*
X1622565Y806804D01*
X1624635Y805609D01*
X1626945Y804990D01*
X1629335D01*
X1631645Y805609D01*
X1633715Y806804D01*
X1635406Y808495D01*
X1636601Y810565D01*
X1637220Y812875D01*
Y815265D01*
X1636601Y817575D01*
X1635406Y819645D01*
X1633715Y821336D01*
X1631645Y822531D01*
X1629335Y823150D01*
D02*
G37*
G36*
X1603935D02*
X1601545D01*
X1599235Y822531D01*
X1597165Y821336D01*
X1595474Y819645D01*
X1594279Y817575D01*
X1593660Y815265D01*
Y812875D01*
X1594279Y810565D01*
X1595474Y808495D01*
X1597165Y806804D01*
X1599235Y805609D01*
X1601545Y804990D01*
X1603935D01*
X1606245Y805609D01*
X1608315Y806804D01*
X1610006Y808495D01*
X1611201Y810565D01*
X1611820Y812875D01*
Y815265D01*
X1611201Y817575D01*
X1610006Y819645D01*
X1608315Y821336D01*
X1606245Y822531D01*
X1603935Y823150D01*
D02*
G37*
G36*
X1337056Y801370D02*
X1328420D01*
Y792734D01*
X1328454D01*
X1330974Y793409D01*
X1333232Y794713D01*
X1335077Y796558D01*
X1336381Y798816D01*
X1337056Y801336D01*
Y801370D01*
D02*
G37*
G36*
X1325880D02*
X1317244D01*
Y801336D01*
X1317919Y798816D01*
X1319223Y796558D01*
X1321068Y794713D01*
X1323326Y793409D01*
X1325846Y792734D01*
X1325880D01*
Y801370D01*
D02*
G37*
G36*
X1182718Y812390D02*
X1179482D01*
X1176356Y811553D01*
X1173554Y809934D01*
X1171266Y807646D01*
X1169648Y804844D01*
X1168810Y801718D01*
Y798482D01*
X1169648Y795356D01*
X1171266Y792554D01*
X1173554Y790266D01*
X1176356Y788648D01*
X1179482Y787810D01*
X1182718D01*
X1185844Y788648D01*
X1188646Y790266D01*
X1190934Y792554D01*
X1192552Y795356D01*
X1193390Y798482D01*
Y801718D01*
X1192552Y804844D01*
X1190934Y807646D01*
X1188646Y809934D01*
X1185844Y811553D01*
X1182718Y812390D01*
D02*
G37*
G36*
X1480854Y787146D02*
X1478246D01*
X1475726Y786471D01*
X1473468Y785167D01*
X1471623Y783322D01*
X1470319Y781064D01*
X1469644Y778544D01*
Y775936D01*
X1470319Y773416D01*
X1471623Y771158D01*
X1473468Y769313D01*
X1475726Y768009D01*
X1478246Y767334D01*
X1480854D01*
X1483374Y768009D01*
X1485632Y769313D01*
X1487477Y771158D01*
X1488781Y773416D01*
X1489456Y775936D01*
Y778544D01*
X1488781Y781064D01*
X1487477Y783322D01*
X1485632Y785167D01*
X1483374Y786471D01*
X1480854Y787146D01*
D02*
G37*
G36*
X1328454D02*
X1325846D01*
X1323326Y786471D01*
X1321068Y785167D01*
X1319223Y783322D01*
X1317919Y781064D01*
X1317244Y778544D01*
Y775936D01*
X1317919Y773416D01*
X1319223Y771158D01*
X1321068Y769313D01*
X1323326Y768009D01*
X1325846Y767334D01*
X1328454D01*
X1330974Y768009D01*
X1333232Y769313D01*
X1335077Y771158D01*
X1336381Y773416D01*
X1337056Y775936D01*
Y778544D01*
X1336381Y781064D01*
X1335077Y783322D01*
X1333232Y785167D01*
X1330974Y786471D01*
X1328454Y787146D01*
D02*
G37*
G36*
Y761746D02*
X1328420D01*
Y753110D01*
X1337056D01*
Y753144D01*
X1336381Y755664D01*
X1335077Y757922D01*
X1333232Y759767D01*
X1330974Y761071D01*
X1328454Y761746D01*
D02*
G37*
G36*
X1325880D02*
X1325846D01*
X1323326Y761071D01*
X1321068Y759767D01*
X1319223Y757922D01*
X1317919Y755664D01*
X1317244Y753144D01*
Y753110D01*
X1325880D01*
Y761746D01*
D02*
G37*
G36*
X1182718Y863190D02*
X1179482D01*
X1176356Y862353D01*
X1173554Y860734D01*
X1171266Y858446D01*
X1169648Y855644D01*
X1168810Y852518D01*
Y849282D01*
X1169648Y846156D01*
X1171266Y843354D01*
X1173554Y841066D01*
X1176356Y839447D01*
X1179482Y838610D01*
X1182718D01*
X1184799Y839167D01*
X1210103Y813863D01*
X1211363Y813021D01*
X1212850Y812725D01*
X1319766D01*
X1320354Y811750D01*
X1320686Y810185D01*
X1319223Y808722D01*
X1317919Y806464D01*
X1317244Y803944D01*
Y803910D01*
X1327150D01*
X1337056D01*
Y803944D01*
X1336381Y806464D01*
X1335077Y808722D01*
X1333614Y810185D01*
X1333946Y811750D01*
X1334534Y812725D01*
X1386501D01*
X1399333Y799893D01*
X1400593Y799051D01*
X1402080Y798755D01*
X1470354D01*
X1471623Y796558D01*
X1473468Y794713D01*
X1475726Y793409D01*
X1478246Y792734D01*
X1480854D01*
X1483306Y793391D01*
X1503473Y773223D01*
X1504733Y772381D01*
X1506220Y772085D01*
X1541320D01*
X1542636Y769805D01*
X1544505Y767936D01*
X1546795Y766614D01*
X1549348Y765930D01*
X1551992D01*
X1554545Y766614D01*
X1556835Y767936D01*
X1558704Y769805D01*
X1560020Y772085D01*
X1595122D01*
X1596174Y769545D01*
X1595474Y768845D01*
X1594279Y766775D01*
X1593660Y764465D01*
Y762075D01*
X1594279Y759765D01*
X1595474Y757695D01*
X1597165Y756004D01*
X1599235Y754809D01*
X1601545Y754190D01*
X1603935D01*
X1606245Y754809D01*
X1608315Y756004D01*
X1610006Y757695D01*
X1611201Y759765D01*
X1611820Y762075D01*
Y764465D01*
X1611201Y766775D01*
X1610006Y768845D01*
X1609306Y769545D01*
X1610358Y772085D01*
X1747522D01*
X1748574Y769545D01*
X1747874Y768845D01*
X1746679Y766775D01*
X1746060Y764465D01*
Y762075D01*
X1746679Y759765D01*
X1747874Y757695D01*
X1749565Y756004D01*
X1751635Y754809D01*
X1753945Y754190D01*
X1756335D01*
X1758645Y754809D01*
X1760145Y755675D01*
X1761935Y755000D01*
X1762685Y754382D01*
Y750909D01*
X1758221Y746445D01*
X1756335Y746950D01*
X1753945D01*
X1751635Y746331D01*
X1749565Y745136D01*
X1747874Y743445D01*
X1746679Y741375D01*
X1746060Y739065D01*
Y736675D01*
X1746679Y734365D01*
X1747874Y732295D01*
X1749565Y730604D01*
X1751635Y729409D01*
X1753945Y728790D01*
X1756335D01*
X1758645Y729409D01*
X1760715Y730604D01*
X1762406Y732295D01*
X1763601Y734365D01*
X1764220Y736675D01*
Y739065D01*
X1763715Y740951D01*
X1769317Y746553D01*
X1770159Y747813D01*
X1770455Y749300D01*
Y771942D01*
X1770159Y773429D01*
X1769317Y774689D01*
X1765289Y778717D01*
X1764029Y779559D01*
X1762722Y779819D01*
X1762378Y780352D01*
X1761706Y782395D01*
X1762406Y783095D01*
X1763601Y785165D01*
X1764220Y787475D01*
Y789865D01*
X1763601Y792175D01*
X1762406Y794245D01*
X1760715Y795936D01*
X1758645Y797131D01*
X1756335Y797750D01*
X1753945D01*
X1751635Y797131D01*
X1749565Y795936D01*
X1747874Y794245D01*
X1746679Y792175D01*
X1746060Y789865D01*
Y787475D01*
X1746679Y785165D01*
X1747874Y783095D01*
X1748574Y782395D01*
X1747522Y779855D01*
X1610358D01*
X1609306Y782395D01*
X1610006Y783095D01*
X1611201Y785165D01*
X1611820Y787475D01*
Y789865D01*
X1611201Y792175D01*
X1610006Y794245D01*
X1608315Y795936D01*
X1606245Y797131D01*
X1603935Y797750D01*
X1601545D01*
X1599235Y797131D01*
X1597165Y795936D01*
X1595474Y794245D01*
X1594279Y792175D01*
X1593660Y789865D01*
Y787475D01*
X1594279Y785165D01*
X1595474Y783095D01*
X1596174Y782395D01*
X1595122Y779855D01*
X1560020D01*
X1558704Y782135D01*
X1556835Y784004D01*
X1554545Y785326D01*
X1551992Y786010D01*
X1549348D01*
X1546795Y785326D01*
X1544505Y784004D01*
X1542636Y782135D01*
X1541320Y779855D01*
X1507829D01*
X1488799Y798885D01*
X1489456Y801336D01*
Y803944D01*
X1488781Y806464D01*
X1487477Y808722D01*
X1485632Y810567D01*
X1483374Y811871D01*
X1480854Y812546D01*
X1478246D01*
X1475726Y811871D01*
X1473468Y810567D01*
X1471623Y808722D01*
X1470354Y806525D01*
X1403689D01*
X1390857Y819357D01*
X1389597Y820199D01*
X1388110Y820495D01*
X1337025D01*
X1335699Y823035D01*
X1336381Y824216D01*
X1337056Y826736D01*
Y829344D01*
X1336381Y831864D01*
X1335077Y834122D01*
X1333232Y835967D01*
X1330974Y837271D01*
X1328454Y837946D01*
X1325846D01*
X1323326Y837271D01*
X1321068Y835967D01*
X1319223Y834122D01*
X1317919Y831864D01*
X1317244Y829344D01*
Y826736D01*
X1317919Y824216D01*
X1318601Y823035D01*
X1317275Y820495D01*
X1214459D01*
X1191178Y843776D01*
X1192552Y846156D01*
X1193390Y849282D01*
Y852518D01*
X1192552Y855644D01*
X1190934Y858446D01*
X1188646Y860734D01*
X1185844Y862353D01*
X1182718Y863190D01*
D02*
G37*
G36*
X1337056Y750570D02*
X1328420D01*
Y741934D01*
X1328454D01*
X1330974Y742609D01*
X1333232Y743913D01*
X1335077Y745758D01*
X1336381Y748016D01*
X1337056Y750536D01*
Y750570D01*
D02*
G37*
G36*
X1325880D02*
X1317244D01*
Y750536D01*
X1317919Y748016D01*
X1319223Y745758D01*
X1321068Y743913D01*
X1323326Y742609D01*
X1325846Y741934D01*
X1325880D01*
Y750570D01*
D02*
G37*
G36*
X1603935Y746950D02*
X1601545D01*
X1599235Y746331D01*
X1597165Y745136D01*
X1595474Y743445D01*
X1594279Y741375D01*
X1593660Y739065D01*
Y736675D01*
X1594279Y734365D01*
X1595474Y732295D01*
X1597165Y730604D01*
X1599235Y729409D01*
X1601545Y728790D01*
X1603935D01*
X1606245Y729409D01*
X1608315Y730604D01*
X1610006Y732295D01*
X1611201Y734365D01*
X1611820Y736675D01*
Y739065D01*
X1611201Y741375D01*
X1610006Y743445D01*
X1608315Y745136D01*
X1606245Y746331D01*
X1603935Y746950D01*
D02*
G37*
G36*
X1480854Y736346D02*
X1478246D01*
X1475726Y735671D01*
X1473468Y734367D01*
X1471623Y732522D01*
X1470319Y730264D01*
X1469644Y727744D01*
Y725136D01*
X1470319Y722616D01*
X1471623Y720358D01*
X1473468Y718513D01*
X1475726Y717209D01*
X1478246Y716534D01*
X1480854D01*
X1483374Y717209D01*
X1485632Y718513D01*
X1487477Y720358D01*
X1488781Y722616D01*
X1489456Y725136D01*
Y727744D01*
X1488781Y730264D01*
X1487477Y732522D01*
X1485632Y734367D01*
X1483374Y735671D01*
X1480854Y736346D01*
D02*
G37*
G36*
X1328454D02*
X1325846D01*
X1323326Y735671D01*
X1321068Y734367D01*
X1319223Y732522D01*
X1317919Y730264D01*
X1317244Y727744D01*
Y725136D01*
X1317919Y722616D01*
X1319223Y720358D01*
X1321068Y718513D01*
X1323326Y717209D01*
X1325846Y716534D01*
X1328454D01*
X1330974Y717209D01*
X1333232Y718513D01*
X1335077Y720358D01*
X1336381Y722616D01*
X1337056Y725136D01*
Y727744D01*
X1336381Y730264D01*
X1335077Y732522D01*
X1333232Y734367D01*
X1330974Y735671D01*
X1328454Y736346D01*
D02*
G37*
G36*
X1756410Y721530D02*
Y713740D01*
X1764200D01*
X1763601Y715975D01*
X1762406Y718045D01*
X1760715Y719736D01*
X1758645Y720931D01*
X1756410Y721530D01*
D02*
G37*
G36*
X1753870D02*
X1751635Y720931D01*
X1749565Y719736D01*
X1747874Y718045D01*
X1746679Y715975D01*
X1746080Y713740D01*
X1753870D01*
Y721530D01*
D02*
G37*
G36*
X1764200Y711200D02*
X1756410D01*
Y703410D01*
X1758645Y704009D01*
X1760715Y705204D01*
X1762406Y706895D01*
X1763601Y708965D01*
X1764200Y711200D01*
D02*
G37*
G36*
X1753870D02*
X1746080D01*
X1746679Y708965D01*
X1747874Y706895D01*
X1749565Y705204D01*
X1751635Y704009D01*
X1753870Y703410D01*
Y711200D01*
D02*
G37*
G36*
X1182718Y717610D02*
X1179482D01*
X1176356Y716773D01*
X1173554Y715154D01*
X1171266Y712866D01*
X1169648Y710064D01*
X1168810Y706938D01*
Y703702D01*
X1169648Y700576D01*
X1171266Y697774D01*
X1173554Y695486D01*
X1176356Y693867D01*
X1179482Y693030D01*
X1182718D01*
X1185844Y693867D01*
X1188646Y695486D01*
X1190934Y697774D01*
X1192552Y700576D01*
X1193390Y703702D01*
Y706938D01*
X1192552Y710064D01*
X1190934Y712866D01*
X1188646Y715154D01*
X1185844Y716773D01*
X1182718Y717610D01*
D02*
G37*
G36*
X1480854Y710946D02*
X1478246D01*
X1475726Y710271D01*
X1473468Y708967D01*
X1471623Y707122D01*
X1470319Y704864D01*
X1469644Y702344D01*
Y699736D01*
X1470319Y697216D01*
X1471623Y694958D01*
X1473468Y693113D01*
X1475726Y691809D01*
X1478246Y691134D01*
X1480854D01*
X1483374Y691809D01*
X1485632Y693113D01*
X1487477Y694958D01*
X1488781Y697216D01*
X1489456Y699736D01*
Y702344D01*
X1488781Y704864D01*
X1487477Y707122D01*
X1485632Y708967D01*
X1483374Y710271D01*
X1480854Y710946D01*
D02*
G37*
G36*
X1328454D02*
X1325846D01*
X1323326Y710271D01*
X1321068Y708967D01*
X1319223Y707122D01*
X1317919Y704864D01*
X1317244Y702344D01*
Y699736D01*
X1317919Y697216D01*
X1319223Y694958D01*
X1321068Y693113D01*
X1323326Y691809D01*
X1325846Y691134D01*
X1328454D01*
X1330974Y691809D01*
X1333232Y693113D01*
X1335077Y694958D01*
X1336381Y697216D01*
X1337056Y699736D01*
Y702344D01*
X1336381Y704864D01*
X1335077Y707122D01*
X1333232Y708967D01*
X1330974Y710271D01*
X1328454Y710946D01*
D02*
G37*
G36*
X1480854Y761746D02*
X1478246D01*
X1475726Y761071D01*
X1473468Y759767D01*
X1471623Y757922D01*
X1470319Y755664D01*
X1469644Y753144D01*
Y750536D01*
X1470319Y748016D01*
X1471623Y745758D01*
X1473468Y743913D01*
X1475726Y742609D01*
X1478246Y741934D01*
X1480854D01*
X1483306Y742591D01*
X1527603Y698293D01*
X1528863Y697451D01*
X1530350Y697155D01*
X1596968D01*
X1597649Y694615D01*
X1597165Y694336D01*
X1595474Y692645D01*
X1594279Y690575D01*
X1593660Y688265D01*
Y685875D01*
X1594279Y683565D01*
X1595474Y681495D01*
X1597165Y679804D01*
X1599235Y678609D01*
X1601545Y677990D01*
X1603935D01*
X1606245Y678609D01*
X1608315Y679804D01*
X1610006Y681495D01*
X1611201Y683565D01*
X1611820Y685875D01*
Y688265D01*
X1611201Y690575D01*
X1610006Y692645D01*
X1608315Y694336D01*
X1607831Y694615D01*
X1608512Y697155D01*
X1739561D01*
X1746565Y690151D01*
X1746060Y688265D01*
Y685875D01*
X1746679Y683565D01*
X1747874Y681495D01*
X1749565Y679804D01*
X1751635Y678609D01*
X1753945Y677990D01*
X1756335D01*
X1758645Y678609D01*
X1760715Y679804D01*
X1762406Y681495D01*
X1763601Y683565D01*
X1764220Y685875D01*
Y688265D01*
X1763601Y690575D01*
X1762406Y692645D01*
X1760715Y694336D01*
X1758645Y695531D01*
X1756335Y696150D01*
X1753945D01*
X1752059Y695645D01*
X1743917Y703787D01*
X1742657Y704629D01*
X1741170Y704925D01*
X1611628D01*
X1611010Y705675D01*
X1610335Y707465D01*
X1611201Y708965D01*
X1611820Y711275D01*
Y713665D01*
X1611201Y715975D01*
X1610006Y718045D01*
X1608315Y719736D01*
X1606245Y720931D01*
X1603935Y721550D01*
X1601545D01*
X1599235Y720931D01*
X1597165Y719736D01*
X1595474Y718045D01*
X1594279Y715975D01*
X1593660Y713665D01*
Y711275D01*
X1594279Y708965D01*
X1595145Y707465D01*
X1594470Y705675D01*
X1593852Y704925D01*
X1558219D01*
X1557876Y705432D01*
X1557323Y707465D01*
X1558704Y708845D01*
X1560026Y711135D01*
X1560710Y713688D01*
Y716332D01*
X1560026Y718885D01*
X1558704Y721175D01*
X1556835Y723044D01*
X1554545Y724366D01*
X1551992Y725050D01*
X1549348D01*
X1546795Y724366D01*
X1544505Y723044D01*
X1542636Y721175D01*
X1541314Y718885D01*
X1540630Y716332D01*
Y713688D01*
X1541314Y711135D01*
X1542636Y708845D01*
X1544017Y707465D01*
X1543464Y705432D01*
X1543121Y704925D01*
X1531959D01*
X1488799Y748084D01*
X1489456Y750536D01*
Y753144D01*
X1488781Y755664D01*
X1487477Y757922D01*
X1485632Y759767D01*
X1483374Y761071D01*
X1480854Y761746D01*
D02*
G37*
G36*
Y685546D02*
X1478246D01*
X1475726Y684871D01*
X1473468Y683567D01*
X1471623Y681722D01*
X1470319Y679464D01*
X1469644Y676944D01*
Y674336D01*
X1470319Y671816D01*
X1471623Y669558D01*
X1473468Y667713D01*
X1475726Y666409D01*
X1478246Y665734D01*
X1480854D01*
X1483374Y666409D01*
X1485632Y667713D01*
X1487477Y669558D01*
X1488781Y671816D01*
X1489456Y674336D01*
Y676944D01*
X1488781Y679464D01*
X1487477Y681722D01*
X1485632Y683567D01*
X1483374Y684871D01*
X1480854Y685546D01*
D02*
G37*
G36*
X1328454D02*
X1325846D01*
X1323326Y684871D01*
X1321068Y683567D01*
X1319223Y681722D01*
X1317919Y679464D01*
X1317244Y676944D01*
Y674336D01*
X1317919Y671816D01*
X1319223Y669558D01*
X1321068Y667713D01*
X1323326Y666409D01*
X1325846Y665734D01*
X1328454D01*
X1330974Y666409D01*
X1333232Y667713D01*
X1335077Y669558D01*
X1336381Y671816D01*
X1337056Y674336D01*
Y676944D01*
X1336381Y679464D01*
X1335077Y681722D01*
X1333232Y683567D01*
X1330974Y684871D01*
X1328454Y685546D01*
D02*
G37*
G36*
X1756335Y670750D02*
X1753945D01*
X1751635Y670131D01*
X1749565Y668936D01*
X1747874Y667245D01*
X1746679Y665175D01*
X1746060Y662865D01*
Y660475D01*
X1746679Y658165D01*
X1747874Y656095D01*
X1749565Y654404D01*
X1751635Y653209D01*
X1753945Y652590D01*
X1756335D01*
X1758645Y653209D01*
X1760715Y654404D01*
X1762406Y656095D01*
X1763601Y658165D01*
X1764220Y660475D01*
Y662865D01*
X1763601Y665175D01*
X1762406Y667245D01*
X1760715Y668936D01*
X1758645Y670131D01*
X1756335Y670750D01*
D02*
G37*
G36*
X1603935D02*
X1601545D01*
X1599235Y670131D01*
X1597165Y668936D01*
X1595474Y667245D01*
X1594279Y665175D01*
X1593660Y662865D01*
Y660475D01*
X1594279Y658165D01*
X1595474Y656095D01*
X1597165Y654404D01*
X1599235Y653209D01*
X1601545Y652590D01*
X1603935D01*
X1606245Y653209D01*
X1608315Y654404D01*
X1610006Y656095D01*
X1611201Y658165D01*
X1611820Y660475D01*
Y662865D01*
X1611201Y665175D01*
X1610006Y667245D01*
X1608315Y668936D01*
X1606245Y670131D01*
X1603935Y670750D01*
D02*
G37*
G36*
X1182718Y667610D02*
X1179482D01*
X1176356Y666773D01*
X1173554Y665154D01*
X1171266Y662866D01*
X1169648Y660064D01*
X1168810Y656938D01*
Y653702D01*
X1169648Y650576D01*
X1171266Y647774D01*
X1173554Y645486D01*
X1176356Y643867D01*
X1179482Y643030D01*
X1182718D01*
X1185844Y643867D01*
X1188646Y645486D01*
X1190934Y647774D01*
X1192552Y650576D01*
X1193390Y653702D01*
Y656938D01*
X1192552Y660064D01*
X1190934Y662866D01*
X1188646Y665154D01*
X1185844Y666773D01*
X1182718Y667610D01*
D02*
G37*
G36*
X1480854Y660146D02*
X1478246D01*
X1475726Y659471D01*
X1473468Y658167D01*
X1471623Y656322D01*
X1470319Y654064D01*
X1469644Y651544D01*
Y648936D01*
X1470319Y646416D01*
X1471623Y644158D01*
X1473468Y642313D01*
X1475726Y641009D01*
X1478246Y640334D01*
X1480854D01*
X1483374Y641009D01*
X1485632Y642313D01*
X1487477Y644158D01*
X1488781Y646416D01*
X1489456Y648936D01*
Y651544D01*
X1488781Y654064D01*
X1487477Y656322D01*
X1485632Y658167D01*
X1483374Y659471D01*
X1480854Y660146D01*
D02*
G37*
G36*
X1328454D02*
X1325846D01*
X1323326Y659471D01*
X1321068Y658167D01*
X1319223Y656322D01*
X1317919Y654064D01*
X1317244Y651544D01*
Y648936D01*
X1317919Y646416D01*
X1319223Y644158D01*
X1321068Y642313D01*
X1323326Y641009D01*
X1325846Y640334D01*
X1328454D01*
X1330974Y641009D01*
X1333232Y642313D01*
X1335077Y644158D01*
X1336381Y646416D01*
X1337056Y648936D01*
Y651544D01*
X1336381Y654064D01*
X1335077Y656322D01*
X1333232Y658167D01*
X1330974Y659471D01*
X1328454Y660146D01*
D02*
G37*
G36*
X1756335Y645350D02*
X1753945D01*
X1751635Y644731D01*
X1749565Y643536D01*
X1747874Y641845D01*
X1746679Y639775D01*
X1746060Y637465D01*
Y635075D01*
X1746679Y632765D01*
X1747874Y630695D01*
X1749565Y629004D01*
X1751635Y627809D01*
X1753945Y627190D01*
X1756335D01*
X1758645Y627809D01*
X1760715Y629004D01*
X1762406Y630695D01*
X1763601Y632765D01*
X1764220Y635075D01*
Y637465D01*
X1763601Y639775D01*
X1762406Y641845D01*
X1760715Y643536D01*
X1758645Y644731D01*
X1756335Y645350D01*
D02*
G37*
G36*
X1603935D02*
X1601545D01*
X1599235Y644731D01*
X1597165Y643536D01*
X1595474Y641845D01*
X1594279Y639775D01*
X1593660Y637465D01*
Y635075D01*
X1594279Y632765D01*
X1595474Y630695D01*
X1597165Y629004D01*
X1599235Y627809D01*
X1601545Y627190D01*
X1603935D01*
X1606245Y627809D01*
X1608315Y629004D01*
X1610006Y630695D01*
X1611201Y632765D01*
X1611820Y635075D01*
Y637465D01*
X1611201Y639775D01*
X1610006Y641845D01*
X1608315Y643536D01*
X1606245Y644731D01*
X1603935Y645350D01*
D02*
G37*
G36*
X1480854Y634746D02*
X1478246D01*
X1475726Y634071D01*
X1473468Y632767D01*
X1471623Y630922D01*
X1470319Y628664D01*
X1469644Y626144D01*
Y623536D01*
X1470319Y621016D01*
X1471623Y618758D01*
X1473468Y616913D01*
X1475726Y615609D01*
X1478246Y614934D01*
X1480854D01*
X1483374Y615609D01*
X1485632Y616913D01*
X1487477Y618758D01*
X1488781Y621016D01*
X1489456Y623536D01*
Y626144D01*
X1488781Y628664D01*
X1487477Y630922D01*
X1485632Y632767D01*
X1483374Y634071D01*
X1480854Y634746D01*
D02*
G37*
G36*
X1328454D02*
X1325846D01*
X1323326Y634071D01*
X1321068Y632767D01*
X1319223Y630922D01*
X1317919Y628664D01*
X1317244Y626144D01*
Y623536D01*
X1317919Y621016D01*
X1319223Y618758D01*
X1321068Y616913D01*
X1323326Y615609D01*
X1325846Y614934D01*
X1328454D01*
X1330974Y615609D01*
X1333232Y616913D01*
X1335077Y618758D01*
X1336381Y621016D01*
X1337056Y623536D01*
Y626144D01*
X1336381Y628664D01*
X1335077Y630922D01*
X1333232Y632767D01*
X1330974Y634071D01*
X1328454Y634746D01*
D02*
G37*
G36*
X1551992Y623450D02*
X1551940D01*
Y614680D01*
X1560710D01*
Y614732D01*
X1560026Y617285D01*
X1558704Y619575D01*
X1556835Y621444D01*
X1554545Y622766D01*
X1551992Y623450D01*
D02*
G37*
G36*
X1549400D02*
X1549348D01*
X1546795Y622766D01*
X1544505Y621444D01*
X1542636Y619575D01*
X1541314Y617285D01*
X1540630Y614732D01*
Y614680D01*
X1549400D01*
Y623450D01*
D02*
G37*
G36*
X1560710Y612140D02*
X1551940D01*
Y603370D01*
X1551992D01*
X1554545Y604054D01*
X1556835Y605376D01*
X1558704Y607245D01*
X1560026Y609535D01*
X1560710Y612088D01*
Y612140D01*
D02*
G37*
G36*
X1549400D02*
X1540630D01*
Y612088D01*
X1541314Y609535D01*
X1542636Y607245D01*
X1544505Y605376D01*
X1546795Y604054D01*
X1549348Y603370D01*
X1549400D01*
Y612140D01*
D02*
G37*
G36*
X1756335Y619950D02*
X1753945D01*
X1751635Y619331D01*
X1749565Y618136D01*
X1747874Y616445D01*
X1746679Y614375D01*
X1746060Y612065D01*
Y609675D01*
X1746679Y607365D01*
X1747874Y605295D01*
X1749565Y603604D01*
X1751635Y602409D01*
X1753945Y601790D01*
X1756335D01*
X1758645Y602409D01*
X1760715Y603604D01*
X1762406Y605295D01*
X1763601Y607365D01*
X1764220Y609675D01*
Y612065D01*
X1763601Y614375D01*
X1762406Y616445D01*
X1760715Y618136D01*
X1758645Y619331D01*
X1756335Y619950D01*
D02*
G37*
G36*
X1603935D02*
X1601545D01*
X1599235Y619331D01*
X1597165Y618136D01*
X1595474Y616445D01*
X1594279Y614375D01*
X1593660Y612065D01*
Y609675D01*
X1594279Y607365D01*
X1595145Y605865D01*
X1594470Y604075D01*
X1593852Y603325D01*
X1576070D01*
X1574583Y603029D01*
X1573323Y602187D01*
X1561761Y590625D01*
X1488336D01*
X1487284Y593165D01*
X1487477Y593358D01*
X1488781Y595616D01*
X1489456Y598136D01*
Y600744D01*
X1488781Y603264D01*
X1487477Y605522D01*
X1485632Y607367D01*
X1483374Y608671D01*
X1480854Y609346D01*
X1478246D01*
X1475726Y608671D01*
X1473468Y607367D01*
X1471623Y605522D01*
X1470319Y603264D01*
X1469644Y600744D01*
Y598136D01*
X1470319Y595616D01*
X1471623Y593358D01*
X1471816Y593165D01*
X1470764Y590625D01*
X1335936D01*
X1334884Y593165D01*
X1335077Y593358D01*
X1336381Y595616D01*
X1337056Y598136D01*
Y600744D01*
X1336381Y603264D01*
X1335077Y605522D01*
X1333232Y607367D01*
X1330974Y608671D01*
X1328454Y609346D01*
X1325846D01*
X1323326Y608671D01*
X1321068Y607367D01*
X1319223Y605522D01*
X1317919Y603264D01*
X1317244Y600744D01*
Y598136D01*
X1317919Y595616D01*
X1319223Y593358D01*
X1319416Y593165D01*
X1318364Y590625D01*
X1193715D01*
X1193390Y593030D01*
X1193390D01*
Y617610D01*
X1168810D01*
Y607089D01*
X1168621Y606807D01*
X1168325Y605320D01*
X1168621Y603833D01*
X1168810Y603551D01*
Y593030D01*
X1179006D01*
X1188043Y583993D01*
X1189303Y583151D01*
X1190790Y582855D01*
X1318364D01*
X1319416Y580315D01*
X1319223Y580122D01*
X1317919Y577864D01*
X1317244Y575344D01*
Y572736D01*
X1317919Y570216D01*
X1319223Y567958D01*
X1321068Y566113D01*
X1323326Y564809D01*
X1325846Y564134D01*
X1328454D01*
X1330974Y564809D01*
X1333232Y566113D01*
X1335077Y567958D01*
X1336381Y570216D01*
X1337056Y572736D01*
Y575344D01*
X1336381Y577864D01*
X1335077Y580122D01*
X1334884Y580315D01*
X1335936Y582855D01*
X1470764D01*
X1471816Y580315D01*
X1471623Y580122D01*
X1470319Y577864D01*
X1469644Y575344D01*
Y572736D01*
X1470319Y570216D01*
X1471623Y567958D01*
X1473468Y566113D01*
X1475726Y564809D01*
X1478246Y564134D01*
X1480854D01*
X1483374Y564809D01*
X1485632Y566113D01*
X1487477Y567958D01*
X1488781Y570216D01*
X1489456Y572736D01*
Y575344D01*
X1488781Y577864D01*
X1487477Y580122D01*
X1487284Y580315D01*
X1488336Y582855D01*
X1563370D01*
X1564857Y583151D01*
X1566117Y583993D01*
X1577679Y595555D01*
X1596968D01*
X1597649Y593015D01*
X1597165Y592736D01*
X1595474Y591045D01*
X1594279Y588975D01*
X1593660Y586665D01*
Y584275D01*
X1594279Y581965D01*
X1595474Y579895D01*
X1597165Y578204D01*
X1599235Y577009D01*
X1601545Y576390D01*
X1603935D01*
X1606245Y577009D01*
X1608315Y578204D01*
X1610006Y579895D01*
X1611201Y581965D01*
X1611820Y584275D01*
Y586665D01*
X1611201Y588975D01*
X1610006Y591045D01*
X1608315Y592736D01*
X1607831Y593015D01*
X1608512Y595555D01*
X1636691D01*
X1649523Y582723D01*
X1650783Y581881D01*
X1652270Y581585D01*
X1746898D01*
X1747874Y579895D01*
X1749565Y578204D01*
X1751635Y577009D01*
X1753945Y576390D01*
X1756335D01*
X1758645Y577009D01*
X1760715Y578204D01*
X1762406Y579895D01*
X1763601Y581965D01*
X1764220Y584275D01*
Y586665D01*
X1763601Y588975D01*
X1762406Y591045D01*
X1760715Y592736D01*
X1758645Y593931D01*
X1756335Y594550D01*
X1753945D01*
X1751635Y593931D01*
X1749565Y592736D01*
X1747874Y591045D01*
X1746898Y589355D01*
X1653879D01*
X1641047Y602187D01*
X1639787Y603029D01*
X1638300Y603325D01*
X1611628D01*
X1611010Y604075D01*
X1610335Y605865D01*
X1611201Y607365D01*
X1611820Y609675D01*
Y612065D01*
X1611201Y614375D01*
X1610006Y616445D01*
X1608315Y618136D01*
X1606245Y619331D01*
X1603935Y619950D01*
D02*
G37*
G36*
X1756335Y569150D02*
X1753945D01*
X1751635Y568531D01*
X1749565Y567336D01*
X1747874Y565645D01*
X1746679Y563575D01*
X1746060Y561265D01*
Y558875D01*
X1746679Y556565D01*
X1747874Y554495D01*
X1749565Y552804D01*
X1751635Y551609D01*
X1753945Y550990D01*
X1756335D01*
X1758645Y551609D01*
X1760715Y552804D01*
X1762406Y554495D01*
X1763601Y556565D01*
X1764220Y558875D01*
Y561265D01*
X1763601Y563575D01*
X1762406Y565645D01*
X1760715Y567336D01*
X1758645Y568531D01*
X1756335Y569150D01*
D02*
G37*
G36*
X1603935D02*
X1601545D01*
X1599235Y568531D01*
X1597165Y567336D01*
X1595474Y565645D01*
X1594279Y563575D01*
X1593660Y561265D01*
Y558875D01*
X1594279Y556565D01*
X1595474Y554495D01*
X1597165Y552804D01*
X1599235Y551609D01*
X1601545Y550990D01*
X1603935D01*
X1606245Y551609D01*
X1608315Y552804D01*
X1610006Y554495D01*
X1611201Y556565D01*
X1611820Y558875D01*
Y561265D01*
X1611201Y563575D01*
X1610006Y565645D01*
X1608315Y567336D01*
X1606245Y568531D01*
X1603935Y569150D01*
D02*
G37*
G36*
X1756335Y543750D02*
X1753945D01*
X1751635Y543131D01*
X1749565Y541936D01*
X1747874Y540245D01*
X1746679Y538175D01*
X1746060Y535865D01*
Y533475D01*
X1746679Y531165D01*
X1747874Y529095D01*
X1749565Y527404D01*
X1751635Y526209D01*
X1753945Y525590D01*
X1756335D01*
X1758645Y526209D01*
X1760715Y527404D01*
X1762406Y529095D01*
X1763601Y531165D01*
X1764220Y533475D01*
Y535865D01*
X1763601Y538175D01*
X1762406Y540245D01*
X1760715Y541936D01*
X1758645Y543131D01*
X1756335Y543750D01*
D02*
G37*
G36*
X1603935D02*
X1601545D01*
X1599235Y543131D01*
X1597165Y541936D01*
X1595474Y540245D01*
X1594279Y538175D01*
X1593660Y535865D01*
Y533475D01*
X1594279Y531165D01*
X1595474Y529095D01*
X1597165Y527404D01*
X1599235Y526209D01*
X1601545Y525590D01*
X1603935D01*
X1606245Y526209D01*
X1608315Y527404D01*
X1610006Y529095D01*
X1611201Y531165D01*
X1611820Y533475D01*
Y535865D01*
X1611201Y538175D01*
X1610006Y540245D01*
X1608315Y541936D01*
X1606245Y543131D01*
X1603935Y543750D01*
D02*
G37*
G36*
X1725802Y530800D02*
X1723477D01*
X1721232Y530198D01*
X1719218Y529036D01*
X1717574Y527392D01*
X1716412Y525378D01*
X1715810Y523133D01*
Y520807D01*
X1716412Y518562D01*
X1717574Y516548D01*
X1719218Y514904D01*
X1721232Y513742D01*
X1723477Y513140D01*
X1725802D01*
X1728048Y513742D01*
X1730062Y514904D01*
X1731706Y516548D01*
X1732868Y518562D01*
X1733470Y520807D01*
Y523133D01*
X1732868Y525378D01*
X1731706Y527392D01*
X1730062Y529036D01*
X1728048Y530198D01*
X1725802Y530800D01*
D02*
G37*
G36*
X1756335Y518350D02*
X1753945D01*
X1751635Y517731D01*
X1749565Y516536D01*
X1747874Y514845D01*
X1746679Y512775D01*
X1746060Y510465D01*
Y508075D01*
X1746679Y505765D01*
X1747874Y503695D01*
X1749565Y502004D01*
X1751635Y500809D01*
X1753945Y500190D01*
X1756335D01*
X1758645Y500809D01*
X1760715Y502004D01*
X1762406Y503695D01*
X1763601Y505765D01*
X1764220Y508075D01*
Y510465D01*
X1763601Y512775D01*
X1762406Y514845D01*
X1760715Y516536D01*
X1758645Y517731D01*
X1756335Y518350D01*
D02*
G37*
G36*
X1603935D02*
X1601545D01*
X1599235Y517731D01*
X1597165Y516536D01*
X1595474Y514845D01*
X1594279Y512775D01*
X1593660Y510465D01*
Y508075D01*
X1594279Y505765D01*
X1595474Y503695D01*
X1597165Y502004D01*
X1599235Y500809D01*
X1601545Y500190D01*
X1603935D01*
X1606245Y500809D01*
X1608315Y502004D01*
X1610006Y503695D01*
X1611201Y505765D01*
X1611820Y508075D01*
Y510465D01*
X1611201Y512775D01*
X1610006Y514845D01*
X1608315Y516536D01*
X1606245Y517731D01*
X1603935Y518350D01*
D02*
G37*
G36*
X1478479Y521700D02*
X1475541D01*
X1472702Y520939D01*
X1470158Y519470D01*
X1468080Y517392D01*
X1466611Y514848D01*
X1465850Y512009D01*
Y509071D01*
X1466611Y506232D01*
X1468080Y503688D01*
X1470158Y501610D01*
X1472702Y500141D01*
X1475541Y499380D01*
X1478479D01*
X1481318Y500141D01*
X1483862Y501610D01*
X1485940Y503688D01*
X1487409Y506232D01*
X1488170Y509071D01*
Y512009D01*
X1487409Y514848D01*
X1485940Y517392D01*
X1483862Y519470D01*
X1481318Y520939D01*
X1478479Y521700D01*
D02*
G37*
G36*
X1668370Y515150D02*
X1666110D01*
X1663928Y514565D01*
X1661972Y513436D01*
X1660374Y511838D01*
X1659245Y509882D01*
X1658660Y507700D01*
Y505440D01*
X1659245Y503258D01*
X1660374Y501302D01*
X1661972Y499704D01*
X1663928Y498575D01*
X1666110Y497990D01*
X1668370D01*
X1670552Y498575D01*
X1672508Y499704D01*
X1674106Y501302D01*
X1675235Y503258D01*
X1675820Y505440D01*
Y507700D01*
X1675235Y509882D01*
X1674106Y511838D01*
X1672508Y513436D01*
X1670552Y514565D01*
X1668370Y515150D01*
D02*
G37*
G36*
X1648370D02*
X1646110D01*
X1643928Y514565D01*
X1641972Y513436D01*
X1640374Y511838D01*
X1639245Y509882D01*
X1638660Y507700D01*
Y505440D01*
X1639245Y503258D01*
X1640374Y501302D01*
X1641972Y499704D01*
X1643928Y498575D01*
X1646110Y497990D01*
X1648370D01*
X1650552Y498575D01*
X1652508Y499704D01*
X1654106Y501302D01*
X1655235Y503258D01*
X1655820Y505440D01*
Y507700D01*
X1655235Y509882D01*
X1654106Y511838D01*
X1652508Y513436D01*
X1650552Y514565D01*
X1648370Y515150D01*
D02*
G37*
G36*
X1628370D02*
X1626110D01*
X1623928Y514565D01*
X1621972Y513436D01*
X1620374Y511838D01*
X1619245Y509882D01*
X1618660Y507700D01*
Y505440D01*
X1619245Y503258D01*
X1620374Y501302D01*
X1621972Y499704D01*
X1623928Y498575D01*
X1626110Y497990D01*
X1628370D01*
X1630552Y498575D01*
X1632508Y499704D01*
X1634106Y501302D01*
X1635235Y503258D01*
X1635820Y505440D01*
Y507700D01*
X1635235Y509882D01*
X1634106Y511838D01*
X1632508Y513436D01*
X1630552Y514565D01*
X1628370Y515150D01*
D02*
G37*
G36*
X1184466Y531820D02*
X1180274D01*
X1176163Y531002D01*
X1172290Y529398D01*
X1168805Y527069D01*
X1165841Y524105D01*
X1163512Y520620D01*
X1161908Y516747D01*
X1161090Y512636D01*
Y508444D01*
X1161908Y504333D01*
X1163512Y500460D01*
X1165841Y496975D01*
X1168805Y494011D01*
X1172290Y491682D01*
X1176163Y490078D01*
X1180274Y489260D01*
X1184466D01*
X1188577Y490078D01*
X1192450Y491682D01*
X1195935Y494011D01*
X1198899Y496975D01*
X1201228Y500460D01*
X1202832Y504333D01*
X1203650Y508444D01*
Y512636D01*
X1202832Y516747D01*
X1201228Y520620D01*
X1198899Y524105D01*
X1195935Y527069D01*
X1192450Y529398D01*
X1188577Y531002D01*
X1184466Y531820D01*
D02*
G37*
G36*
X1725802Y505400D02*
X1723477D01*
X1721232Y504798D01*
X1719218Y503636D01*
X1717574Y501992D01*
X1716412Y499978D01*
X1715810Y497733D01*
Y495407D01*
X1716412Y493162D01*
X1717574Y491148D01*
X1719218Y489504D01*
X1721232Y488342D01*
X1723477Y487740D01*
X1725802D01*
X1728048Y488342D01*
X1730062Y489504D01*
X1731706Y491148D01*
X1732868Y493162D01*
X1733470Y495407D01*
Y497733D01*
X1732868Y499978D01*
X1731706Y501992D01*
X1730062Y503636D01*
X1728048Y504798D01*
X1725802Y505400D01*
D02*
G37*
G36*
X1668370Y495150D02*
X1666110D01*
X1663928Y494565D01*
X1661972Y493436D01*
X1660374Y491838D01*
X1659245Y489882D01*
X1658660Y487700D01*
Y485440D01*
X1659245Y483258D01*
X1660374Y481302D01*
X1661972Y479704D01*
X1663928Y478575D01*
X1666110Y477990D01*
X1668370D01*
X1670552Y478575D01*
X1672508Y479704D01*
X1674106Y481302D01*
X1675235Y483258D01*
X1675820Y485440D01*
Y487700D01*
X1675235Y489882D01*
X1674106Y491838D01*
X1672508Y493436D01*
X1670552Y494565D01*
X1668370Y495150D01*
D02*
G37*
G36*
X1648370D02*
X1646110D01*
X1643928Y494565D01*
X1641972Y493436D01*
X1640374Y491838D01*
X1639245Y489882D01*
X1638660Y487700D01*
Y485440D01*
X1639245Y483258D01*
X1640374Y481302D01*
X1641972Y479704D01*
X1643928Y478575D01*
X1646110Y477990D01*
X1648370D01*
X1650552Y478575D01*
X1652508Y479704D01*
X1654106Y481302D01*
X1655235Y483258D01*
X1655820Y485440D01*
Y487700D01*
X1655235Y489882D01*
X1654106Y491838D01*
X1652508Y493436D01*
X1650552Y494565D01*
X1648370Y495150D01*
D02*
G37*
G36*
X1628370D02*
X1626110D01*
X1623928Y494565D01*
X1621972Y493436D01*
X1620374Y491838D01*
X1619245Y489882D01*
X1618660Y487700D01*
Y485440D01*
X1619245Y483258D01*
X1620374Y481302D01*
X1621972Y479704D01*
X1623928Y478575D01*
X1626110Y477990D01*
X1628370D01*
X1630552Y478575D01*
X1632508Y479704D01*
X1634106Y481302D01*
X1635235Y483258D01*
X1635820Y485440D01*
Y487700D01*
X1635235Y489882D01*
X1634106Y491838D01*
X1632508Y493436D01*
X1630552Y494565D01*
X1628370Y495150D01*
D02*
G37*
G36*
X1756335Y492950D02*
X1753945D01*
X1751635Y492331D01*
X1749565Y491136D01*
X1747874Y489445D01*
X1746679Y487375D01*
X1746060Y485065D01*
Y482675D01*
X1746679Y480365D01*
X1747874Y478295D01*
X1749565Y476604D01*
X1751635Y475409D01*
X1753945Y474790D01*
X1756335D01*
X1758645Y475409D01*
X1760715Y476604D01*
X1762406Y478295D01*
X1763601Y480365D01*
X1764220Y482675D01*
Y485065D01*
X1763601Y487375D01*
X1762406Y489445D01*
X1760715Y491136D01*
X1758645Y492331D01*
X1756335Y492950D01*
D02*
G37*
G36*
X1603935D02*
X1601545D01*
X1599235Y492331D01*
X1597165Y491136D01*
X1595474Y489445D01*
X1594279Y487375D01*
X1593660Y485065D01*
Y482675D01*
X1594279Y480365D01*
X1595474Y478295D01*
X1597165Y476604D01*
X1599235Y475409D01*
X1601545Y474790D01*
X1603935D01*
X1606245Y475409D01*
X1608315Y476604D01*
X1610006Y478295D01*
X1611201Y480365D01*
X1611820Y482675D01*
Y485065D01*
X1611201Y487375D01*
X1610006Y489445D01*
X1608315Y491136D01*
X1606245Y492331D01*
X1603935Y492950D01*
D02*
G37*
G36*
X1478479Y496300D02*
X1475541D01*
X1472702Y495539D01*
X1470158Y494070D01*
X1468080Y491992D01*
X1466611Y489448D01*
X1465850Y486609D01*
Y483671D01*
X1466611Y480832D01*
X1468080Y478288D01*
X1470158Y476210D01*
X1472702Y474741D01*
X1475541Y473980D01*
X1478479D01*
X1481318Y474741D01*
X1483862Y476210D01*
X1485940Y478288D01*
X1487409Y480832D01*
X1488170Y483671D01*
Y486609D01*
X1487409Y489448D01*
X1485940Y491992D01*
X1483862Y494070D01*
X1481318Y495539D01*
X1478479Y496300D01*
D02*
G37*
G36*
X1725802Y480000D02*
X1723477D01*
X1721232Y479398D01*
X1719218Y478236D01*
X1717574Y476592D01*
X1716412Y474578D01*
X1715810Y472332D01*
Y470008D01*
X1716412Y467762D01*
X1717574Y465748D01*
X1719218Y464104D01*
X1721232Y462942D01*
X1723477Y462340D01*
X1725802D01*
X1728048Y462942D01*
X1730062Y464104D01*
X1731706Y465748D01*
X1732868Y467762D01*
X1733470Y470008D01*
Y472332D01*
X1732868Y474578D01*
X1731706Y476592D01*
X1730062Y478236D01*
X1728048Y479398D01*
X1725802Y480000D01*
D02*
G37*
G36*
X1756335Y467550D02*
X1753945D01*
X1751635Y466931D01*
X1749565Y465736D01*
X1747874Y464045D01*
X1746679Y461975D01*
X1746060Y459665D01*
Y457275D01*
X1746679Y454965D01*
X1747874Y452895D01*
X1749565Y451204D01*
X1751635Y450009D01*
X1753945Y449390D01*
X1756335D01*
X1758645Y450009D01*
X1760715Y451204D01*
X1762406Y452895D01*
X1763601Y454965D01*
X1764220Y457275D01*
Y459665D01*
X1763601Y461975D01*
X1762406Y464045D01*
X1760715Y465736D01*
X1758645Y466931D01*
X1756335Y467550D01*
D02*
G37*
G36*
X1478479Y470900D02*
X1475541D01*
X1472702Y470139D01*
X1470158Y468670D01*
X1468080Y466592D01*
X1466611Y464048D01*
X1465850Y461209D01*
Y458271D01*
X1466611Y455432D01*
X1468080Y452888D01*
X1470158Y450810D01*
X1472702Y449341D01*
X1475541Y448580D01*
X1478479D01*
X1481318Y449341D01*
X1483862Y450810D01*
X1485940Y452888D01*
X1487409Y455432D01*
X1488170Y458271D01*
Y461209D01*
X1487409Y464048D01*
X1485940Y466592D01*
X1483862Y468670D01*
X1481318Y470139D01*
X1478479Y470900D01*
D02*
G37*
G36*
X1603935Y467550D02*
X1601545D01*
X1599235Y466931D01*
X1597165Y465736D01*
X1595474Y464045D01*
X1594279Y461975D01*
X1593660Y459665D01*
Y457275D01*
X1594279Y454965D01*
X1595474Y452895D01*
X1597165Y451204D01*
X1599235Y450009D01*
X1599848Y449845D01*
X1599513Y447305D01*
X1486090D01*
X1484603Y447009D01*
X1483343Y446167D01*
X1481697Y444520D01*
X1481318Y444739D01*
X1478479Y445500D01*
X1475541D01*
X1472702Y444739D01*
X1470158Y443270D01*
X1468080Y441192D01*
X1466611Y438648D01*
X1465850Y435809D01*
Y432871D01*
X1466611Y430032D01*
X1468080Y427488D01*
X1470158Y425410D01*
X1472702Y423941D01*
X1475541Y423180D01*
X1478479D01*
X1481318Y423941D01*
X1483862Y425410D01*
X1485940Y427488D01*
X1487409Y430032D01*
X1488170Y432871D01*
Y435809D01*
X1487852Y436995D01*
X1489686Y439535D01*
X1593055D01*
X1594522Y436995D01*
X1594279Y436575D01*
X1593660Y434265D01*
Y431875D01*
X1594279Y429565D01*
X1595474Y427495D01*
X1597165Y425804D01*
X1599235Y424609D01*
X1599848Y424445D01*
X1599513Y421905D01*
X1582890D01*
X1581403Y421609D01*
X1580143Y420767D01*
X1572200Y412825D01*
X1487523D01*
X1487409Y413248D01*
X1485940Y415792D01*
X1483862Y417870D01*
X1481318Y419339D01*
X1478479Y420100D01*
X1475541D01*
X1472702Y419339D01*
X1470158Y417870D01*
X1468080Y415792D01*
X1466611Y413248D01*
X1465850Y410409D01*
Y407471D01*
X1466611Y404632D01*
X1468080Y402088D01*
X1470158Y400010D01*
X1472702Y398541D01*
X1475541Y397780D01*
X1478479D01*
X1481318Y398541D01*
X1483862Y400010D01*
X1485940Y402088D01*
X1487409Y404632D01*
X1487523Y405055D01*
X1573810D01*
X1575296Y405351D01*
X1576556Y406193D01*
X1584499Y414135D01*
X1593055D01*
X1594522Y411595D01*
X1594279Y411175D01*
X1593680Y408940D01*
X1602740D01*
X1611800D01*
X1611201Y411175D01*
X1610958Y411595D01*
X1612425Y414135D01*
X1648105D01*
X1682717Y379523D01*
X1683977Y378681D01*
X1685464Y378385D01*
X1746898D01*
X1747874Y376695D01*
X1749565Y375004D01*
X1751635Y373809D01*
X1753945Y373190D01*
X1756335D01*
X1758645Y373809D01*
X1760715Y375004D01*
X1762406Y376695D01*
X1763601Y378765D01*
X1764220Y381075D01*
Y383465D01*
X1763601Y385775D01*
X1762406Y387845D01*
X1760715Y389536D01*
X1758645Y390731D01*
X1756335Y391350D01*
X1753945D01*
X1751635Y390731D01*
X1749565Y389536D01*
X1747874Y387845D01*
X1746898Y386155D01*
X1687073D01*
X1652461Y420767D01*
X1651200Y421609D01*
X1649714Y421905D01*
X1605967D01*
X1605632Y424445D01*
X1606245Y424609D01*
X1608315Y425804D01*
X1610006Y427495D01*
X1611201Y429565D01*
X1611820Y431875D01*
Y434265D01*
X1611201Y436575D01*
X1610958Y436995D01*
X1612425Y439535D01*
X1655886D01*
X1690499Y404923D01*
X1691759Y404081D01*
X1693245Y403785D01*
X1746898D01*
X1747874Y402095D01*
X1749565Y400404D01*
X1751635Y399209D01*
X1753945Y398590D01*
X1756335D01*
X1758645Y399209D01*
X1760715Y400404D01*
X1762406Y402095D01*
X1763601Y404165D01*
X1764220Y406475D01*
Y408865D01*
X1763601Y411175D01*
X1762406Y413245D01*
X1760715Y414936D01*
X1758645Y416131D01*
X1756335Y416750D01*
X1753945D01*
X1751635Y416131D01*
X1749565Y414936D01*
X1747874Y413245D01*
X1746898Y411555D01*
X1731904D01*
X1730852Y414095D01*
X1731706Y414948D01*
X1732868Y416962D01*
X1733470Y419207D01*
Y421533D01*
X1732868Y423778D01*
X1731706Y425792D01*
X1730062Y427436D01*
X1728048Y428598D01*
X1725802Y429200D01*
X1723477D01*
X1721232Y428598D01*
X1719218Y427436D01*
X1717574Y425792D01*
X1716412Y423778D01*
X1715810Y421533D01*
Y419207D01*
X1716412Y416962D01*
X1717574Y414948D01*
X1718428Y414095D01*
X1717376Y411555D01*
X1694854D01*
X1660242Y446167D01*
X1658982Y447009D01*
X1657495Y447305D01*
X1605967D01*
X1605632Y449845D01*
X1606245Y450009D01*
X1608315Y451204D01*
X1610006Y452895D01*
X1611201Y454965D01*
X1611820Y457275D01*
Y459665D01*
X1611201Y461975D01*
X1610006Y464045D01*
X1608315Y465736D01*
X1606245Y466931D01*
X1603935Y467550D01*
D02*
G37*
G36*
X1725802Y454600D02*
X1723477D01*
X1721232Y453998D01*
X1719218Y452836D01*
X1717574Y451192D01*
X1716412Y449178D01*
X1715810Y446932D01*
Y444608D01*
X1716412Y442362D01*
X1717574Y440348D01*
X1719218Y438704D01*
X1721232Y437542D01*
X1723477Y436940D01*
X1725802D01*
X1728048Y437542D01*
X1730062Y438704D01*
X1731706Y440348D01*
X1732868Y442362D01*
X1733470Y444608D01*
Y446932D01*
X1732868Y449178D01*
X1731706Y451192D01*
X1730062Y452836D01*
X1728048Y453998D01*
X1725802Y454600D01*
D02*
G37*
G36*
X1756335Y442150D02*
X1753945D01*
X1751635Y441531D01*
X1749565Y440336D01*
X1747874Y438645D01*
X1746679Y436575D01*
X1746060Y434265D01*
Y431875D01*
X1746679Y429565D01*
X1747874Y427495D01*
X1749565Y425804D01*
X1751635Y424609D01*
X1753945Y423990D01*
X1756335D01*
X1758645Y424609D01*
X1760715Y425804D01*
X1762406Y427495D01*
X1763601Y429565D01*
X1764220Y431875D01*
Y434265D01*
X1763601Y436575D01*
X1762406Y438645D01*
X1760715Y440336D01*
X1758645Y441531D01*
X1756335Y442150D01*
D02*
G37*
G36*
X1611800Y406400D02*
X1604010D01*
Y398610D01*
X1606245Y399209D01*
X1608315Y400404D01*
X1610006Y402095D01*
X1611201Y404165D01*
X1611800Y406400D01*
D02*
G37*
G36*
X1601470D02*
X1593680D01*
X1594279Y404165D01*
X1595474Y402095D01*
X1597165Y400404D01*
X1599235Y399209D01*
X1601470Y398610D01*
Y406400D01*
D02*
G37*
G36*
X1629335Y391350D02*
X1626945D01*
X1624635Y390731D01*
X1622565Y389536D01*
X1620874Y387845D01*
X1619679Y385775D01*
X1619060Y383465D01*
Y381075D01*
X1619679Y378765D01*
X1620874Y376695D01*
X1622565Y375004D01*
X1624635Y373809D01*
X1626945Y373190D01*
X1629335D01*
X1631645Y373809D01*
X1633715Y375004D01*
X1635406Y376695D01*
X1636601Y378765D01*
X1637220Y381075D01*
Y383465D01*
X1636601Y385775D01*
X1635406Y387845D01*
X1633715Y389536D01*
X1631645Y390731D01*
X1629335Y391350D01*
D02*
G37*
G36*
X1603935D02*
X1601545D01*
X1599235Y390731D01*
X1597165Y389536D01*
X1595474Y387845D01*
X1594279Y385775D01*
X1593660Y383465D01*
Y381075D01*
X1594279Y378765D01*
X1595474Y376695D01*
X1597165Y375004D01*
X1599235Y373809D01*
X1601545Y373190D01*
X1603935D01*
X1606245Y373809D01*
X1608315Y375004D01*
X1610006Y376695D01*
X1611201Y378765D01*
X1611820Y381075D01*
Y383465D01*
X1611201Y385775D01*
X1610006Y387845D01*
X1608315Y389536D01*
X1606245Y390731D01*
X1603935Y391350D01*
D02*
G37*
G36*
X1478479Y394700D02*
X1475541D01*
X1472702Y393939D01*
X1470158Y392470D01*
X1468080Y390392D01*
X1466611Y387848D01*
X1465850Y385009D01*
Y382071D01*
X1466611Y379232D01*
X1468080Y376688D01*
X1470158Y374610D01*
X1472702Y373141D01*
X1475541Y372380D01*
X1478479D01*
X1481318Y373141D01*
X1483862Y374610D01*
X1485940Y376688D01*
X1487409Y379232D01*
X1488170Y382071D01*
Y385009D01*
X1487409Y387848D01*
X1485940Y390392D01*
X1483862Y392470D01*
X1481318Y393939D01*
X1478479Y394700D01*
D02*
G37*
G36*
X1756335Y365950D02*
X1753945D01*
X1751635Y365331D01*
X1749565Y364136D01*
X1747874Y362445D01*
X1746679Y360375D01*
X1746060Y358065D01*
Y355675D01*
X1746679Y353365D01*
X1747874Y351295D01*
X1749565Y349604D01*
X1751635Y348409D01*
X1753945Y347790D01*
X1756335D01*
X1758645Y348409D01*
X1760715Y349604D01*
X1762406Y351295D01*
X1763601Y353365D01*
X1764220Y355675D01*
Y358065D01*
X1763601Y360375D01*
X1762406Y362445D01*
X1760715Y364136D01*
X1758645Y365331D01*
X1756335Y365950D01*
D02*
G37*
G36*
X1603935D02*
X1601545D01*
X1599235Y365331D01*
X1597165Y364136D01*
X1595474Y362445D01*
X1594279Y360375D01*
X1593660Y358065D01*
Y355675D01*
X1594279Y353365D01*
X1595474Y351295D01*
X1597165Y349604D01*
X1599235Y348409D01*
X1601545Y347790D01*
X1603935D01*
X1606245Y348409D01*
X1608315Y349604D01*
X1610006Y351295D01*
X1611201Y353365D01*
X1611820Y355675D01*
Y358065D01*
X1611201Y360375D01*
X1610006Y362445D01*
X1608315Y364136D01*
X1606245Y365331D01*
X1603935Y365950D01*
D02*
G37*
G36*
X1478479Y369300D02*
X1475541D01*
X1472702Y368539D01*
X1470158Y367070D01*
X1468080Y364992D01*
X1466611Y362448D01*
X1465850Y359609D01*
Y356671D01*
X1466611Y353832D01*
X1468080Y351288D01*
X1470158Y349210D01*
X1472702Y347741D01*
X1475541Y346980D01*
X1478479D01*
X1481318Y347741D01*
X1483862Y349210D01*
X1485940Y351288D01*
X1487409Y353832D01*
X1488170Y356671D01*
Y359609D01*
X1487409Y362448D01*
X1485940Y364992D01*
X1483862Y367070D01*
X1481318Y368539D01*
X1478479Y369300D01*
D02*
G37*
G36*
Y343900D02*
X1475541D01*
X1472702Y343139D01*
X1470158Y341670D01*
X1468080Y339592D01*
X1466611Y337048D01*
X1465850Y334209D01*
Y331271D01*
X1466611Y328432D01*
X1468080Y325888D01*
X1470158Y323810D01*
X1472702Y322341D01*
X1475541Y321580D01*
X1478479D01*
X1481318Y322341D01*
X1483862Y323810D01*
X1485940Y325888D01*
X1487409Y328432D01*
X1488170Y331271D01*
Y334209D01*
X1487409Y337048D01*
X1485940Y339592D01*
X1483862Y341670D01*
X1481318Y343139D01*
X1478479Y343900D01*
D02*
G37*
G36*
Y318500D02*
X1478280D01*
Y308610D01*
X1488170D01*
Y308809D01*
X1487409Y311648D01*
X1485940Y314192D01*
X1483862Y316270D01*
X1481318Y317739D01*
X1478479Y318500D01*
D02*
G37*
G36*
X1475740D02*
X1475541D01*
X1472702Y317739D01*
X1470158Y316270D01*
X1468080Y314192D01*
X1466611Y311648D01*
X1465850Y308809D01*
Y308610D01*
X1475740D01*
Y318500D01*
D02*
G37*
G36*
X1488170Y306070D02*
X1478280D01*
Y296180D01*
X1478479D01*
X1481318Y296941D01*
X1483862Y298410D01*
X1485940Y300488D01*
X1487409Y303032D01*
X1488170Y305871D01*
Y306070D01*
D02*
G37*
G36*
X1475740D02*
X1465850D01*
Y305871D01*
X1466611Y303032D01*
X1468080Y300488D01*
X1470158Y298410D01*
X1472702Y296941D01*
X1475541Y296180D01*
X1475740D01*
Y306070D01*
D02*
G37*
G36*
X1184466Y328620D02*
X1180274D01*
X1176163Y327802D01*
X1172290Y326198D01*
X1168805Y323869D01*
X1165841Y320905D01*
X1163512Y317420D01*
X1161908Y313547D01*
X1161090Y309436D01*
Y305244D01*
X1161908Y301133D01*
X1163512Y297260D01*
X1165841Y293775D01*
X1168805Y290811D01*
X1172290Y288482D01*
X1176163Y286878D01*
X1180274Y286060D01*
X1184466D01*
X1188577Y286878D01*
X1192450Y288482D01*
X1195935Y290811D01*
X1198899Y293775D01*
X1201228Y297260D01*
X1202832Y301133D01*
X1203650Y305244D01*
Y309436D01*
X1202832Y313547D01*
X1201228Y317420D01*
X1198899Y320905D01*
X1195935Y323869D01*
X1192450Y326198D01*
X1188577Y327802D01*
X1184466Y328620D01*
D02*
G37*
G36*
X1748682Y318770D02*
X1744429D01*
X1740258Y317940D01*
X1736329Y316313D01*
X1732793Y313950D01*
X1729786Y310943D01*
X1727423Y307407D01*
X1725796Y303478D01*
X1724966Y299306D01*
Y295054D01*
X1725796Y290882D01*
X1727423Y286953D01*
X1729786Y283417D01*
X1732793Y280410D01*
X1736329Y278047D01*
X1740258Y276420D01*
X1744429Y275590D01*
X1748682D01*
X1752854Y276420D01*
X1756783Y278047D01*
X1760319Y280410D01*
X1763326Y283417D01*
X1765689Y286953D01*
X1767316Y290882D01*
X1768146Y295054D01*
Y299306D01*
X1767316Y303478D01*
X1765689Y307407D01*
X1763326Y310943D01*
X1760319Y313950D01*
X1756783Y316313D01*
X1752854Y317940D01*
X1748682Y318770D01*
D02*
G37*
G36*
X1076546D02*
X1072294D01*
X1068122Y317940D01*
X1064193Y316313D01*
X1060657Y313950D01*
X1057650Y310943D01*
X1055287Y307407D01*
X1053660Y303478D01*
X1052830Y299306D01*
Y295054D01*
X1053660Y290882D01*
X1055287Y286953D01*
X1057650Y283417D01*
X1060657Y280410D01*
X1064193Y278047D01*
X1068122Y276420D01*
X1072294Y275590D01*
X1076546D01*
X1080718Y276420D01*
X1084647Y278047D01*
X1088183Y280410D01*
X1091190Y283417D01*
X1093553Y286953D01*
X1095180Y290882D01*
X1096010Y295054D01*
Y299306D01*
X1095180Y303478D01*
X1093553Y307407D01*
X1091190Y310943D01*
X1088183Y313950D01*
X1084647Y316313D01*
X1080718Y317940D01*
X1076546Y318770D01*
D02*
G37*
%LPD*%
D10*
X1563370Y586740D02*
X1576070Y599440D01*
X1638300D01*
X1190790Y586740D02*
X1563370D01*
X1685464Y382270D02*
X1755140D01*
X1649714Y418020D02*
X1685464Y382270D01*
X1582890Y418020D02*
X1649714D01*
X1573810Y408940D02*
X1582890Y418020D01*
X1477010Y408940D02*
X1573810D01*
X1657495Y443420D02*
X1693245Y407670D01*
X1755140D01*
X1477010Y434340D02*
X1486090Y443420D01*
X1657495D01*
X1172210Y605320D02*
X1190790Y586740D01*
X1652270Y585470D02*
X1755140D01*
X1638300Y599440D02*
X1652270Y585470D01*
X1350880Y1021080D02*
X1394460D01*
X1675384Y1042670D02*
X1686560Y1031494D01*
X1635760Y1042670D02*
X1675384D01*
X1635760Y1010920D02*
X1645920Y1000760D01*
X1686560D01*
X1635760Y977900D02*
X1679194D01*
X1686560Y985266D01*
X1543427Y1041023D02*
X1624330Y960120D01*
Y886460D02*
Y960120D01*
X1534160Y1042670D02*
X1535807Y1041023D01*
X1543427D01*
X1619250Y906780D02*
Y948690D01*
X1557020Y1010920D02*
X1619250Y948690D01*
X1534160Y1010920D02*
X1557020D01*
X1602740Y864870D02*
X1624330Y886460D01*
X1602740Y890270D02*
X1619250Y906780D01*
X1530350Y701040D02*
X1741170D01*
X1479550Y751840D02*
X1530350Y701040D01*
X1741170D02*
X1755140Y687070D01*
X1388110Y816610D02*
X1402080Y802640D01*
X1212850Y816610D02*
X1388110D01*
X1178560Y850900D02*
X1212850Y816610D01*
X1402080Y802640D02*
X1479550D01*
X1506220Y775970D01*
X1550670D01*
X1762542D02*
X1766570Y771942D01*
X1550670Y775970D02*
X1762542D01*
X1766570Y749300D02*
Y771942D01*
X1755140Y737870D02*
X1766570Y749300D01*
D11*
X1602740Y737870D02*
D03*
Y763270D02*
D03*
Y788670D02*
D03*
Y814070D02*
D03*
Y839470D02*
D03*
Y864870D02*
D03*
Y890270D02*
D03*
Y915670D02*
D03*
Y941070D02*
D03*
X1755140D02*
D03*
Y915670D02*
D03*
Y890270D02*
D03*
Y864870D02*
D03*
Y839470D02*
D03*
Y814070D02*
D03*
Y788670D02*
D03*
Y763270D02*
D03*
Y737870D02*
D03*
X1602740Y356870D02*
D03*
Y382270D02*
D03*
Y407670D02*
D03*
Y433070D02*
D03*
Y458470D02*
D03*
Y483870D02*
D03*
Y509270D02*
D03*
Y534670D02*
D03*
Y560070D02*
D03*
Y585470D02*
D03*
Y610870D02*
D03*
Y636270D02*
D03*
Y661670D02*
D03*
Y687070D02*
D03*
X1755140Y712470D02*
D03*
Y687070D02*
D03*
Y661670D02*
D03*
Y636270D02*
D03*
Y610870D02*
D03*
Y585470D02*
D03*
Y560070D02*
D03*
Y534670D02*
D03*
Y509270D02*
D03*
Y483870D02*
D03*
Y458470D02*
D03*
Y433070D02*
D03*
Y407670D02*
D03*
X1602740Y712470D02*
D03*
X1653540Y814070D02*
D03*
X1628140Y382270D02*
D03*
Y814070D02*
D03*
X1678940D02*
D03*
X1704340D02*
D03*
X1729740D02*
D03*
X1755140Y382270D02*
D03*
Y356870D02*
D03*
D12*
X1724640Y521970D02*
D03*
Y496570D02*
D03*
Y471170D02*
D03*
Y445770D02*
D03*
Y420370D02*
D03*
D13*
X1667240Y486570D02*
D03*
X1647240D02*
D03*
X1667240Y506570D02*
D03*
X1647240D02*
D03*
X1627240Y486570D02*
D03*
Y506570D02*
D03*
D14*
X1280560Y1021080D02*
D03*
X1350880D02*
D03*
D15*
X1327150Y574040D02*
D03*
Y904240D02*
D03*
Y599440D02*
D03*
Y624840D02*
D03*
Y650240D02*
D03*
Y675640D02*
D03*
Y701040D02*
D03*
Y726440D02*
D03*
Y751840D02*
D03*
Y777240D02*
D03*
Y802640D02*
D03*
Y828040D02*
D03*
Y853440D02*
D03*
Y878840D02*
D03*
X1479550Y574040D02*
D03*
Y904240D02*
D03*
Y599440D02*
D03*
Y624840D02*
D03*
Y650240D02*
D03*
Y675640D02*
D03*
Y701040D02*
D03*
Y726440D02*
D03*
Y751840D02*
D03*
Y777240D02*
D03*
Y802640D02*
D03*
Y828040D02*
D03*
Y853440D02*
D03*
Y878840D02*
D03*
D16*
X1181100Y605320D02*
D03*
D17*
Y655320D02*
D03*
Y705320D02*
D03*
Y800100D02*
D03*
Y850900D02*
D03*
Y941070D02*
D03*
Y991870D02*
D03*
D18*
X1746556Y297180D02*
D03*
X1074420D02*
D03*
Y1078230D02*
D03*
X1746556Y1078105D02*
D03*
D19*
X1534160Y1042670D02*
D03*
X1635760D02*
D03*
X1498600Y967740D02*
D03*
X1447800D02*
D03*
X1534160Y1010920D02*
D03*
X1635760D02*
D03*
X1534160Y977900D02*
D03*
X1635760D02*
D03*
X1550670Y613410D02*
D03*
Y715010D02*
D03*
Y877570D02*
D03*
Y775970D02*
D03*
X1496060Y1021080D02*
D03*
X1394460D02*
D03*
D20*
X1686560Y985266D02*
D03*
D21*
Y1031494D02*
D03*
Y1000760D02*
D03*
Y1016000D02*
D03*
D22*
X1182370Y307340D02*
D03*
Y510540D02*
D03*
D23*
X1477010D02*
D03*
Y307340D02*
D03*
Y332740D02*
D03*
Y358140D02*
D03*
Y383540D02*
D03*
Y408940D02*
D03*
Y434340D02*
D03*
Y459740D02*
D03*
Y485140D02*
D03*
%TF.MD5,2ceeb09d5d1a060a71ea84e546d0d31f*%
M02*
