%TF.GenerationSoftware,Altium Limited,Altium Designer,24.9.1 (31)*%
G04 Layer_Color=16711935*
%FSLAX44Y44*%
%MOMM*%
%TF.SameCoordinates,85F17886-7C47-4E42-9478-76476F6C8A6A*%
%TF.FilePolarity,Positive*%
%TF.FileFunction,Other,Mechanical_13*%
%TF.Part,Single*%
G01*
G75*
%TA.AperFunction,NonConductor*%
%ADD25C,0.1270*%
%ADD27C,0.2000*%
%ADD46C,0.1000*%
%ADD47C,0.2644*%
D25*
X1376720Y1021080D02*
G03*
X1376720Y1021080I-61000J0D01*
G01*
X1718310Y1008380D02*
G03*
X1718310Y1008380I-31750J0D01*
G01*
X1590040Y344170D02*
X1638640D01*
X1719240D02*
X1767840D01*
X1638640Y337170D02*
X1719240D01*
X1638640D02*
Y344170D01*
X1719240Y337170D02*
Y344170D01*
X1767840D02*
Y953770D01*
X1590040D02*
X1767840D01*
X1590040Y344170D02*
Y953770D01*
X1223600Y580320D02*
Y730320D01*
X1141100Y580320D02*
X1223600D01*
X1141100D02*
Y730320D01*
X1223600D01*
D27*
X1777730Y407670D02*
G03*
X1777730Y407670I-1000J0D01*
G01*
X1182100Y572820D02*
G03*
X1182100Y572820I-1000J0D01*
G01*
X1687560Y971380D02*
G03*
X1687560Y971380I-1000J0D01*
G01*
D46*
X1221600Y774700D02*
Y876300D01*
X1140600Y774700D02*
Y876300D01*
Y774700D02*
X1162100D01*
X1167200D02*
X1221600D01*
X1140600Y876300D02*
X1210500D01*
X1215600D02*
X1221600D01*
X1159500Y768700D02*
X1169800D01*
X1207900Y882300D02*
X1218200D01*
X1159500Y768700D02*
X1162100Y774700D01*
X1167200D02*
X1169800Y768700D01*
X1207900Y882300D02*
X1210500Y876300D01*
X1215600D02*
X1218200Y882300D01*
X1221600Y915670D02*
Y1017270D01*
X1140600Y915670D02*
Y1017270D01*
Y915670D02*
X1162100D01*
X1167200D02*
X1221600D01*
X1140600Y1017270D02*
X1210500D01*
X1215600D02*
X1221600D01*
X1159500Y909670D02*
X1169800D01*
X1207900Y1023270D02*
X1218200D01*
X1159500Y909670D02*
X1162100Y915670D01*
X1167200D02*
X1169800Y909670D01*
X1207900Y1023270D02*
X1210500Y1017270D01*
X1215600D02*
X1218200Y1023270D01*
D47*
X1662844Y646470D02*
Y654934D01*
Y650702D01*
X1675540D01*
Y665514D02*
Y661282D01*
X1673424Y659166D01*
X1669192D01*
X1667076Y661282D01*
Y665514D01*
X1669192Y667630D01*
X1671308D01*
Y659166D01*
X1675540Y678210D02*
Y673978D01*
X1673424Y671862D01*
X1669192D01*
X1667076Y673978D01*
Y678210D01*
X1669192Y680326D01*
X1671308D01*
Y671862D01*
X1675540Y684558D02*
X1667076D01*
Y690906D01*
X1669192Y693022D01*
X1675540D01*
Y697253D02*
Y703602D01*
X1673424Y705717D01*
X1671308Y703602D01*
Y699370D01*
X1669192Y697253D01*
X1667076Y699370D01*
Y705717D01*
Y709949D02*
X1673424D01*
X1675540Y712065D01*
Y718413D01*
X1677656D01*
X1679772Y716297D01*
Y714181D01*
X1675540Y718413D02*
X1667076D01*
X1675540Y741689D02*
X1662844D01*
X1669192Y735341D01*
Y743805D01*
X1675540Y748037D02*
X1673424D01*
Y750153D01*
X1675540D01*
Y748037D01*
Y758617D02*
Y762849D01*
Y760733D01*
X1662844D01*
X1664960Y758617D01*
%TF.MD5,b5a54a853f4fef619efafea1625cecee*%
M02*
