%TF.GenerationSoftware,Altium Limited,Altium Designer,24.9.1 (31)*%
G04 Layer_Color=255*
%FSLAX44Y44*%
%MOMM*%
%TF.SameCoordinates,85F17886-7C47-4E42-9478-76476F6C8A6A*%
%TF.FilePolarity,Positive*%
%TF.FileFunction,Pads,Bot*%
%TF.Part,Single*%
G01*
G75*
%TA.AperFunction,ComponentPad*%
%ADD11C,1.3080*%
%ADD12C,1.2580*%
%ADD13C,1.2080*%
%ADD14C,1.2800*%
%ADD15C,1.4732*%
%ADD16R,1.9500X1.9500*%
%ADD17C,1.9500*%
%TA.AperFunction,ViaPad*%
%ADD18C,3.8100*%
%TA.AperFunction,ComponentPad*%
%ADD19C,1.5000*%
%ADD20R,1.1000X1.1000*%
%ADD21C,1.1000*%
%ADD22C,3.7480*%
%ADD23C,1.7240*%
D11*
X1602740Y737870D02*
D03*
Y763270D02*
D03*
Y788670D02*
D03*
Y814070D02*
D03*
Y839470D02*
D03*
Y864870D02*
D03*
Y890270D02*
D03*
Y915670D02*
D03*
Y941070D02*
D03*
X1755140D02*
D03*
Y915670D02*
D03*
Y890270D02*
D03*
Y864870D02*
D03*
Y839470D02*
D03*
Y814070D02*
D03*
Y788670D02*
D03*
Y763270D02*
D03*
Y737870D02*
D03*
X1602740Y356870D02*
D03*
Y382270D02*
D03*
Y407670D02*
D03*
Y433070D02*
D03*
Y458470D02*
D03*
Y483870D02*
D03*
Y509270D02*
D03*
Y534670D02*
D03*
Y560070D02*
D03*
Y585470D02*
D03*
Y610870D02*
D03*
Y636270D02*
D03*
Y661670D02*
D03*
Y687070D02*
D03*
X1755140Y712470D02*
D03*
Y687070D02*
D03*
Y661670D02*
D03*
Y636270D02*
D03*
Y610870D02*
D03*
Y585470D02*
D03*
Y560070D02*
D03*
Y534670D02*
D03*
Y509270D02*
D03*
Y483870D02*
D03*
Y458470D02*
D03*
Y433070D02*
D03*
Y407670D02*
D03*
X1602740Y712470D02*
D03*
X1653540Y814070D02*
D03*
X1628140Y382270D02*
D03*
Y814070D02*
D03*
X1678940D02*
D03*
X1704340D02*
D03*
X1729740D02*
D03*
X1755140Y382270D02*
D03*
Y356870D02*
D03*
D12*
X1724640Y521970D02*
D03*
Y496570D02*
D03*
Y471170D02*
D03*
Y445770D02*
D03*
Y420370D02*
D03*
D13*
X1667240Y486570D02*
D03*
X1647240D02*
D03*
X1667240Y506570D02*
D03*
X1647240D02*
D03*
X1627240Y486570D02*
D03*
Y506570D02*
D03*
D14*
X1280560Y1021080D02*
D03*
X1350880D02*
D03*
D15*
X1327150Y574040D02*
D03*
Y904240D02*
D03*
Y599440D02*
D03*
Y624840D02*
D03*
Y650240D02*
D03*
Y675640D02*
D03*
Y701040D02*
D03*
Y726440D02*
D03*
Y751840D02*
D03*
Y777240D02*
D03*
Y802640D02*
D03*
Y828040D02*
D03*
Y853440D02*
D03*
Y878840D02*
D03*
X1479550Y574040D02*
D03*
Y904240D02*
D03*
Y599440D02*
D03*
Y624840D02*
D03*
Y650240D02*
D03*
Y675640D02*
D03*
Y701040D02*
D03*
Y726440D02*
D03*
Y751840D02*
D03*
Y777240D02*
D03*
Y802640D02*
D03*
Y828040D02*
D03*
Y853440D02*
D03*
Y878840D02*
D03*
D16*
X1181100Y605320D02*
D03*
D17*
Y655320D02*
D03*
Y705320D02*
D03*
Y800100D02*
D03*
Y850900D02*
D03*
Y941070D02*
D03*
Y991870D02*
D03*
D18*
X1746556Y297180D02*
D03*
X1074420D02*
D03*
Y1078230D02*
D03*
X1746556Y1078105D02*
D03*
D19*
X1534160Y1042670D02*
D03*
X1635760D02*
D03*
X1498600Y967740D02*
D03*
X1447800D02*
D03*
X1534160Y1010920D02*
D03*
X1635760D02*
D03*
X1534160Y977900D02*
D03*
X1635760D02*
D03*
X1550670Y613410D02*
D03*
Y715010D02*
D03*
Y877570D02*
D03*
Y775970D02*
D03*
X1496060Y1021080D02*
D03*
X1394460D02*
D03*
D20*
X1686560Y985266D02*
D03*
D21*
Y1031494D02*
D03*
Y1000760D02*
D03*
Y1016000D02*
D03*
D22*
X1182370Y307340D02*
D03*
Y510540D02*
D03*
D23*
X1477010D02*
D03*
Y307340D02*
D03*
Y332740D02*
D03*
Y358140D02*
D03*
Y383540D02*
D03*
Y408940D02*
D03*
Y434340D02*
D03*
Y459740D02*
D03*
Y485140D02*
D03*
%TF.MD5,8dfc3cc03634d6d0fcc7cc6c73956a0e*%
M02*
