M48
;Layer_Color=9474304
;FILE_FORMAT=4:3
METRIC,LZ
;TYPE=PLATED
T01F00S00C0.700
T02F00S00C0.750
T03F00S00C0.800
T04F00S00C0.850
T05F00S00C1.016
T06F00S00C1.020
T07F00S00C1.300
T08F00S00C2.286
T09F00S00C2.540
%
T01
X0162724Y0048657
X0164724
X0166724
Y0050657
X0164724
X0162724
X0168656Y0098527
Y0100076
Y01016
Y0103149
T02
X0172464Y0042037
Y0044577
Y0047117
Y0049657
Y0052197
T03
X0160274Y0035687
Y0038227
X0162814
X0175514
Y0035687
Y0040767
Y0043307
Y0045847
Y0048387
Y0050927
Y0053467
Y0056007
Y0058547
Y0061087
Y0063627
Y0066167
Y0068707
Y0071247
Y0073787
Y0076327
Y0078867
X0160274
Y0076327
Y0073787
Y0071247
Y0068707
Y0066167
Y0063627
Y0061087
Y0058547
Y0056007
Y0053467
Y0050927
Y0048387
Y0045847
Y0043307
Y0040767
Y0081407
Y0083947
Y0086487
Y0089027
Y0091567
Y0094107
X0175514
Y0091567
Y0089027
Y0086487
Y0083947
Y0081407
X0172974
X0170434
X0167894
X0165354
X0162814
T04
X0155067Y0061341
Y0071501
Y0077597
Y0087757
X0153416Y009779
Y0101092
Y0104267
X0149606Y0102108
X014986Y0096774
X014478
X0139446Y0102108
X0135088
X0128056
X0163576Y0101092
Y0104267
Y009779
T05
X0132715Y0057404
Y0059944
Y0062484
Y0065024
Y0067564
Y0070104
Y0072644
Y0075184
Y0077724
X0147955
Y0075184
Y0072644
Y0070104
Y0067564
Y0065024
Y0062484
Y0059944
Y0057404
Y0080264
Y0082804
Y0085344
Y0087884
Y0090424
X0132715
Y0087884
Y0085344
Y0082804
Y0080264
T06
X0147701Y0030734
Y0033274
Y0035814
Y0038354
Y0040894
Y0043434
Y0045974
Y0048514
Y0051054
T07
X011811Y0060532
Y0065532
Y0070532
Y008001
Y008509
Y0094107
Y0099187
T08
X0118237Y0030734
Y0051054
T09
X0107442Y0029718
X0174656
X0107442Y0107823
X0174656Y0107811
M30
